<svg version="1.2" xmlns="http://www.w3.org/2000/svg" viewBox="0 0 1024 1024" width="1024" height="1024">
	<title>TEACUP</title>
	<style>
		.s0 { opacity: 1;fill: #67acb4 } 
		.s1 { fill: #23747c } 
		.s2 { fill: #9ebc12 } 
		.s3 { opacity: 1;fill: #079592 } 
		.s4 { opacity: 1;fill: #8e8b8a } 
		.s5 { opacity: 1;fill: #d9d9d9 } 
		.s6 { opacity: 1;fill: #fbd03f } 
		.s7 { opacity: 1;fill: #ebd3a8 } 
		.s8 { opacity: 1;fill: #f3f1ee } 
		.s9 { opacity: 1;fill: #101806 } 
	</style>
	<path id="Path 0" fill-rule="evenodd" class="s0" d="m510.5 116.7c20.9 0.2 47 1 58 1.8 11 0.9 28.3 2.4 38.5 3.5 10.2 1.1 24 2.9 30.8 4 6.7 1.1 13.3 2.7 14.7 3.5 1.5 0.9 2.5 2.4 2.5 3.7 0 1.3-2.8 6.1-12.5 19.1l-6-0.6c-3.3-0.3-14.1-1.7-24-3.1-9.9-1.4-27-3.5-38-4.5-11-1.1-30.4-2.5-43-3.2-14.2-0.7-35.9-0.9-56.5-0.6-18.4 0.4-38.9 1.1-45.5 1.6-6.6 0.6-17.6 1.6-24.5 2.2-6.9 0.6-21.3 2.4-32 4-10.7 1.7-22.4 3.7-26 4.4-3.6 0.8-13.5 3.2-22 5.4-8.5 2.2-19.1 5.3-23.5 6.9-4.4 1.6-10.7 4.1-14 5.7-3.3 1.5-7.9 4-10.3 5.6-2.3 1.6-5.3 4.6-6.7 6.6-1.4 2.1-2.5 4.8-2.5 6 0 1.3 0.8 3.5 1.8 4.9 0.9 1.5 3.7 4.1 6.2 5.9 2.5 1.8 7.6 4.9 11.5 6.9 3.9 2 8.1 4.9 9.6 6.4 1.4 1.5 4.4 7.6 6.7 13.7 2.3 6.1 5.8 14.3 7.7 18.2 1.9 4 3.5 8.3 3.5 9.5 0.1 1.5-1.7 4-5 7-2.7 2.7-6.2 5.3-7.7 5.8-1.6 0.6-3.5 0.8-4.3 0.5-0.8-0.3-3.1-3.1-5.2-6.3-2-3.1-5.7-10.2-8.2-15.7-2.5-5.5-4.6-10.4-4.6-11 0-0.6-1.2-2.2-2.7-3.7-1.6-1.5-6.6-4.8-11.3-7.3-4.7-2.6-11.8-7.2-15.9-10.3-4.1-3.2-9-7.7-11.1-10.2-2-2.5-4.7-6.8-6.1-9.5-1.7-3.5-2.4-6.7-2.4-10.5 0-4.1 0.7-6.7 2.6-10 1.5-2.5 5-6.5 8-8.8 3-2.4 8.3-6.1 11.9-8.3 3.6-2.1 15.1-7 25.5-11 10.4-3.9 25.3-8.6 33-10.5 7.7-1.8 22.6-4.9 33-6.8 10.4-1.9 29.8-4.6 43-6 13.2-1.4 31.6-3 41-3.6 9.4-0.6 23.1-1.2 30.5-1.4 7.4-0.2 30.6-0.2 51.5 0.1zm158.9 16.3c2 0 9.6 1.5 16.8 3.4 7.3 1.9 17.8 5.1 23.3 7.1 5.5 2.1 13.1 5.4 16.9 7.4 3.8 2 8.2 4.3 9.7 5.1 1.6 0.8 5.9 4.2 9.5 7.5 3.7 3.3 8.1 8 9.8 10.5 3.1 4.5 3.1 4.6 3.4 19.5 0.2 8.2-0.1 23.6-0.7 34-0.6 10.4-2 32.9-3.1 50-1.1 17.1-2.7 39.3-3.5 49.5-0.9 10.2-2.7 28.9-4.1 41.5-1.3 12.6-4.3 36.5-6.5 53-2.2 16.5-4.5 32.2-5.2 34.9-0.7 2.7-2 5.4-2.9 6-1.3 0.8-3.6 0.5-9.5-1.3-4.3-1.3-9.2-2.6-10.8-2.8-1.9-0.3-3.3 0-3.7 0.9-0.4 0.7-0.1 1.9 0.5 2.6 0.7 0.7 1.7 1.3 2.2 1.3 0.5 0 5.5 1.5 11 3.5 5.5 2 16.3 6.3 24 9.7 7.7 3.4 17.6 8.3 22 11 4.4 2.6 8.1 4.7 8.2 4.7 0.2 0 2.7 1.9 5.7 4.2 3 2.4 7.3 5.7 9.6 7.3 2.3 1.6 7.9 6.8 12.4 11.5 4.4 4.7 10 11.5 12.4 15 2.4 3.6 5.2 8.9 6.3 11.7 1 2.9 2.2 8.6 2.5 12.5 0.3 4 0.2 9.8-0.4 12.8-0.6 3-2.1 8.2-3.3 11.5-1.3 3.3-4.8 9.8-8 14.5-3.1 4.7-8.5 11.1-12 14.3-3.5 3.2-8.2 6.7-10.4 7.9-3.3 1.7-5.2 1.9-10.5 1.5-3.6-0.3-8.3-1.2-10.5-2.2-2.2-0.9-5.3-2.8-6.8-4.3-1.6-1.5-4.1-4.7-5.7-7.2-2.5-3.7-3-5.6-3-17l5.7-4.8c3.1-2.6 7.4-6.5 9.4-8.7 2.1-2.2 4.3-5.8 5-8 0.6-2.3 0.8-5.5 0.4-7.5-0.4-1.9-1.5-5.1-2.5-7-1-1.9-4.2-5.5-7.1-8.1-3-2.5-6.8-5.5-8.4-6.6-1.6-1.2-7.5-4.4-13-7.1-5.5-2.7-16.1-7-23.5-9.6-7.4-2.6-17.8-5.8-23-7.1-8.2-2.1-9.7-2.3-11-1.1-1.3 1.2-1.2 1.6 1 2.9 1.4 0.8 6.3 2.5 11 3.8 4.7 1.2 9.3 2.6 10.2 3q1.8 0.9 1.8 4.4c0 1.9-1.3 6.1-2.9 9.2-1.6 3.2-5.4 10.1-8.6 15.3-3.1 5.2-8.4 13.3-11.8 18-3.3 4.7-8.1 10.9-10.6 13.9-2.5 2.9-8.4 8.7-13.1 12.8-4.7 4.1-12.1 9.9-16.5 12.9-4.4 2.9-10 6.8-12.5 8.6-2.5 1.7-6.8 4.5-9.5 6-2.8 1.5-10 5.2-16 8.2-6 3-17.3 7.5-25 10.1-7.7 2.5-19.4 5.6-26 7-6.6 1.3-17.2 3.1-23.5 4.1-9.1 1.4-17.2 1.8-38.5 1.7-21.7 0-30-0.4-42.5-2.1-8.5-1.2-22.5-3.9-31-6.1-8.5-2.1-18.2-4.8-21.5-5.9-3.3-1.1-9.8-3.4-14.5-5.1-4.7-1.8-13.9-5.8-20.5-9.1-6.6-3.2-15.8-8.6-20.5-12-4.7-3.4-9.4-6.6-10.5-7-1.1-0.5-7.9-6.4-15.2-13.2-7.2-6.7-15.1-14.6-17.5-17.3-2.4-2.8-7.1-8.4-10.4-12.5-3.2-4.1-6.8-8.8-7.9-10.4-1.1-1.6-2.4-3.6-3-4.5-0.6-0.9-2-3.1-3.3-4.9-1.2-1.7-2.2-3.5-2.2-4 0.1-0.4-0.6-1.4-1.5-2.2-0.9-0.8-1.6-2.2-1.6-3 0-0.8-0.6-2.2-1.3-3-0.8-0.8-4-7.1-7.1-14-3.2-6.9-7.9-19.1-10.6-27.3-2.7-8.1-6.2-20.9-7.8-28.5-1.6-7.5-4.3-22.5-6-33.2-1.6-10.7-3.9-28.7-5-40-1.2-11.3-3-32.6-4-47.5-1.1-14.9-2.5-42.8-3.2-62-0.9-26.6-0.9-39 0-51.8 0.6-9.2 1.3-17.1 1.6-17.7 0.3-0.6 1.8-1 3.5-1 2.1 0 4.6 1.4 8.7 4.9 3.2 2.7 9 7 12.8 9.6 3.9 2.5 7.9 4.8 9 5 1.1 0.3 2.7 1.2 3.5 2 0.8 0.9 1.9 1.6 2.5 1.5 0.6 0 2 1 3.2 2.2 1.2 1.3 4.6 7.7 7.6 14.3 3 6.6 7.4 16.1 9.9 21 2.5 4.9 5.2 9.6 5.9 10.2 1.1 1 3.1-0.4 10.9-7.8 5.2-5 14-12.1 19.5-15.9 5.5-3.7 17.1-10.4 25.7-14.9 8.7-4.4 17-8.1 18.5-8.1 1.6 0 6.4 0.7 10.8 1.5 4.4 0.9 13.4 2.2 20 3 6.6 0.8 18.1 1.9 25.5 2.5 7.4 0.5 25.4 1.4 40 2 19.1 0.8 34.2 0.8 54 0 15.1-0.6 37.6-2 50-3.1 12.4-1.1 28.4-2.9 35.5-4 7.1-1.1 18-2.9 24-4 6-1.1 16.9-3.6 24-5.6 7.1-2 16.4-4.8 20.5-6.3 4.1-1.5 10.9-4.1 15-5.8 4.1-1.7 10.3-4.9 13.7-7.2 4.1-2.6 7.4-5.7 9.3-8.8 1.7-2.6 3-5.7 3-7 0-1.2-0.7-3.9-1.6-6-0.9-2-2.6-4.5-3.7-5.4-1.2-1-5.1-3.3-8.7-5.2-3.6-1.9-10.8-5-16-6.9-5.2-1.9-14.5-4.7-20.5-6.2-6.4-1.6-11.5-3.4-12.2-4.4-0.7-0.9-1.3-2.3-1.3-3.1 0-0.8 0.6-2.8 1.4-4.5 0.8-1.7 3.9-5.4 7-8.3 4.5-4.3 6.1-5.2 9-5.2zm-99.9 158.1c-4.4 1.1-10.5 2.9-13.5 4-3 1.2-8.9 3.8-13 5.8-4.1 2-9.1 4.3-11 5.1-1.9 0.8-6.9 3.4-11 6-4.1 2.5-8.4 5-9.5 5.7-1.1 0.7-2.7 1.5-3.5 1.9-0.8 0.4-2.8 1.7-4.5 2.8-1.6 1.2-3.9 2.6-5 3.3-1.1 0.7-2.9 1.7-4 2.3-1.1 0.6-3.8 2.2-6 3.5-2.2 1.4-6.5 3.7-9.5 5.1-3 1.4-7.8 2.8-10.5 3.1-4.1 0.4-5.6 0.1-8.4-1.9-1.9-1.2-3.9-3.2-4.5-4.3-0.6-1.1-1.9-3-2.9-4.2l-1.7-2.3c-2.5 6.6-3.2 10.3-3.1 12.5 0 2.2 0.7 6 1.5 8.5 0.9 2.5 3.2 6.1 5.1 8 3.5 3.4 3.8 3.5 10.8 3.3 4-0.2 9.2-1 11.7-1.8 2.5-0.9 11.7-5.3 20.5-9.9 8.8-4.6 20.5-10.9 26-14.1 5.5-3.2 15.6-8.9 22.5-12.7 6.9-3.9 16.8-8.5 22-10.4 8.3-3 11.2-3.5 22.5-4.1 12.5-0.6 13.3-0.6 22 2.3 5 1.6 10.7 4.1 12.7 5.6 2.1 1.6 4 2.7 4.3 2.6 0.3-0.2-0.3-2.1-1.4-4.3-1.1-2.2-4.4-6.5-7.4-9.5-3-3-7.7-6.7-10.3-8.2-2.7-1.5-8.5-3.6-12.9-4.8-4.4-1.1-9.8-2-12-1.9-2.2 0.1-4.9 0.3-6 0.6-1.1 0.2-5.6 1.3-10 2.4zm-245.3 13.7c-3.1 3.2-7.1 8.3-8.7 11.4-1.6 3.1-2.7 6-2.2 6.5 0.4 0.4 1.7-0.2 3-1.3 1.2-1.2 3.8-3 5.7-4 2.5-1.3 5.5-1.8 10.5-1.8 4.1 0 9.9 1 14 2.2 3.9 1.2 8.7 3.3 10.8 4.7 2 1.4 3.9 2.5 4.2 2.5 0.3 0 2.6 1.5 5.3 3.3 2.6 1.9 8.8 6.6 13.7 10.6 5 4 11.3 8.7 14 10.6 2.8 1.9 6.4 3.7 8 4.1 2.2 0.4 3.8 0 5.8-1.5 1.5-1.2 3.9-4.7 5.3-7.8 1.4-3.2 2.8-8 3.1-10.8 0.3-2.7 0.1-6.5-0.3-8.4-0.5-1.9-1.3-3.6-1.9-3.8-0.5-0.1-2.4 3.2-4 7.5-2.7 7-3.3 7.7-6 8-2.7 0.3-4.6-1.2-17.2-13.2-7.9-7.5-18-16-22.5-19-4.6-3-10.8-6.1-13.8-7-3-0.9-6.9-1.6-8.5-1.5-1.6 0-5.1 0.7-7.7 1.5-3.5 1-6.4 3-10.5 7.2zm-13.8 64.2c-0.3 2.5-0.1 10.8 0.4 18.5 0.9 10.9 1.8 16 4.2 23 1.6 4.9 4.2 11 5.7 13.5 1.4 2.5 4.6 7.1 7.1 10.3 2.5 3.2 6.4 7 8.6 8.5 2.2 1.5 6.7 4 10 5.5 3.3 1.6 8.3 3.3 11 3.9 2.9 0.6 8.5 0.8 13.5 0.4 5.9-0.5 10.3-1.5 14.5-3.4 3.2-1.5 8.4-4.6 11.5-7 3-2.4 7.4-6.7 9.8-9.5 2.3-2.9 5.3-7.6 6.7-10.5 1.4-2.8 3.4-8.5 4.6-12.5 1.1-4 2.3-11.8 2.6-17.7l0.5-10.5 8.3-7.3c-3.9-1.5-16-2.4-29.5-3-16.7-0.8-30.9-2.1-44.5-4.1-11-1.6-24.2-3.9-29.2-5-5.1-1.2-10.1-2.1-11.2-2.1-1 0-2.3 1-2.9 2.2-0.5 1.3-1.3 4.3-1.7 6.8zm248 2.5c-13.2 0.9-39.5 1.8-58.5 2.2-19 0.3-35.3 1-36.2 1.4-1.3 0.7-1.8 2.1-1.8 5.6 0 2.7 0.5 9.5 1.1 15.3 0.6 5.8 2.2 14.1 3.6 18.5 1.4 4.4 3.9 10.6 5.7 13.9 1.7 3.2 5.8 8.5 9.1 11.7 3.3 3.2 7.1 6.6 8.5 7.7 1.4 1 4.6 2.8 7.3 4 2.6 1.2 7.5 3 11 3.9 4.5 1.3 10 1.8 20.2 1.8 10.2 0 15.7-0.5 20.5-1.8 3.6-1 9.6-3.2 13.5-5 3.9-1.8 9.5-5.1 12.5-7.3 3-2.3 8.1-7 11.3-10.5 3.2-3.5 6.5-7.8 7.4-9.4 0.9-1.6 2.4-4.6 3.3-6.5 1-1.9 2.6-5.8 3.6-8.5 1.2-3.4 1.9-8.9 2.2-17.5 0.2-7.3 0.9-13.1 1.5-14 0.7-0.9 2.9-2.6 5-3.8 2-1.2 3.7-2.4 3.7-2.7 0-0.3-1.6-1.2-3.5-2-1.9-0.8-4.3-1.4-5.2-1.4-1 0.1-6.3 0.8-11.8 1.5-5.5 0.7-20.8 2-34 2.9zm18.5 100.9c-1.9 1-4.3 2.6-5.3 3.5-1 0.9-1.8 1.9-1.7 2.3 0 0.5 1.7 0.1 3.8-0.7 2-0.8 5.3-1.5 7.2-1.5 2-0.1 4 0.6 4.8 1.5 0.6 0.8 1 2.6 0.7 4-0.3 1.4-3.8 6-7.9 10.2-4 4.3-10.7 10.4-14.7 13.5-4.1 3.2-7.9 5.8-8.4 5.8-0.5 0-1.7 0.7-2.5 1.5-0.8 0.7-6.2 3.3-12 5.6-5.8 2.3-15.5 5.4-21.5 6.9-6 1.6-17.5 3.6-25.5 4.5-13.6 1.6-15.7 1.6-33 0-10.2-0.9-21.2-2-24.5-2.5-3.3-0.4-8.7-1.5-12-2.4-3.3-0.9-10.5-3.1-15.9-4.9-5.5-1.7-17-6.6-25.5-10.9-8.6-4.2-15.8-7.4-16.1-7.2-0.3 0.2 1.1 2 3 3.9 1.9 1.9 7.3 5.5 12 7.9 4.7 2.5 13.2 6.3 19 8.6 5.8 2.2 14.6 5.1 19.5 6.5 5 1.3 14.4 3.4 21 4.5 10.7 1.9 14.6 2.1 36.5 1.7 21.7-0.4 25.8-0.7 36-3 6.3-1.4 14.6-3.7 18.5-5 3.9-1.3 9.9-3.8 13.5-5.4 3.6-1.6 11.2-6.2 17-10 6.1-4.2 13.2-10 17-14.1 3.6-3.9 8.9-10 11.8-13.6 4.7-6 5.5-6.6 9-6.6 2.8-0.1 4.9 0.9 9 4 2.8 2.2 5.4 4 5.7 4 0.3 0 0.5-0.8 0.5-1.8 0-0.9-1.2-3.2-2.5-5-1.4-1.7-4.9-4.3-7.7-5.6-2.9-1.4-7.6-2.9-10.4-3.4-3.4-0.5-6.8-0.4-10 0.3-2.7 0.6-6.5 2-8.4 2.9zm-82 93.7c-5.6 0.7-14.4 0.9-21.5 0.5-6.6-0.3-13.8-0.8-16-1.1-3.9-0.6-4-0.6-1.5 0.9 1.4 0.8 5.2 2.4 8.5 3.5 3.3 1.1 9.1 2.2 13 2.6 5 0.4 9.8 0.1 17-1.3 5.5-1.1 12.5-3.1 15.5-4.5 3-1.4 6.1-3.2 6.8-4.1 0.7-0.9 0.9-1.6 0.5-1.5-0.4 0-3.5 0.9-6.8 2-3.3 1-10.3 2.4-15.5 3zm323-359.9c3-0.1 11 0.3 17.8 0.8 8.5 0.7 14.6 1.8 20 3.6 4.2 1.5 10.2 4 13.2 5.6 3 1.6 7.3 3.9 9.4 5.1 2.2 1.2 8.2 6.2 13.4 11.2q9.4 9 14.3 17c2.7 4.4 6.2 12 7.9 17 1.6 4.9 3.4 11.7 4.1 15 0.7 3.9 0.9 12.9 0.6 25.5-0.4 17.5-0.8 20.7-3.5 31.5-1.7 6.6-4.3 15.4-5.7 19.5-1.5 4.1-4.8 12-7.4 17.5-2.6 5.5-8.6 15.8-13.3 23-4.7 7.1-11.8 16.7-15.7 21.2-5 5.8-7.8 8.3-9.3 8.3-1.5 0-4.4-2.2-8.4-6.2-3.3-3.5-8.3-9-11-12.3-2.7-3.3-6.2-7.8-7.7-10-1.5-2.2-2.7-5.4-2.7-7-0.1-1.7 0.7-3.7 1.6-4.5 0.9-0.8 3.5-4 5.8-7 2.2-3 6.4-8.9 9.1-13 2.8-4.1 5.8-9.1 6.7-11 0.9-1.9 3.3-7.1 5.3-11.5 2-4.4 4.6-11.6 5.8-16 1.7-6.2 2.2-10.7 2.2-20.5 0-10.1-0.5-13.9-2.3-19.8-1.2-3.9-3.5-9.1-5.1-11.5-1.6-2.3-5.2-6.3-8-9-2.8-2.6-8.1-6.2-11.8-8-6.5-3.1-7.3-3.2-19-3.2-6.7 0-12.4-0.2-12.6-0.5-0.3-0.3-1.3-6.1-2.2-13-0.9-6.9-2.5-17-3.5-22.5-1.8-9.3-1.8-10.2-0.3-12.2 0.9-1.2 2.8-2.4 4.2-2.6 1.4-0.2 5.1-0.5 8.1-0.5zm-25.5 4.8c1.7 0 3.7 0.7 4.6 1.7 0.9 1 2.1 3.4 2.8 5.3 0.6 1.9 1.7 8 2.5 13.5 0.8 5.5 1.8 14.3 2.9 29l-5.4 3.6c-3 1.9-7.6 4.9-10.4 6.5-2.7 1.6-5.8 3.3-6.7 3.9-1 0.5-5.1 3.6-9.3 6.7-4.8 3.8-8.3 5.7-9.7 5.5-2.1-0.2-2.3-0.8-2.6-7.2-0.2-3.9 0.4-18 1.2-31.5 1.5-23.3 1.7-24.6 3.8-26.4 1.3-1 5.2-3.3 8.8-4.9 3.6-1.7 8.3-3.6 10.5-4.3 2.2-0.7 5.4-1.3 7-1.4zm34.5 189c2-0.1 5.2 3.1 16.3 16 8.6 10.1 13.7 16.8 13.7 18.2 0.1 1.5-2.1 4.4-6.2 8.3-3.5 3.3-12.6 11.1-20.3 17.2-7.7 6.2-14.6 11.2-15.2 11.3-0.7 0-1.8 0.9-2.3 2-0.5 1.1-2 2.3-3.2 2.6-1.3 0.4-4 2-6 3.5-2.1 1.6-4.1 2.9-4.5 2.9-0.5 0.1-3 1.7-5.8 3.7-2.7 2-6.6 3.9-8.5 4.1-2.8 0.4-4.8-0.4-10.5-4-3.9-2.5-11.5-6.9-17-9.8-5.5-2.9-11.2-6.1-12.7-7.2-1.9-1.2-2.8-2.7-2.8-4.6-0.1-2.4 1.2-3.5 9.7-8.9 5.4-3.4 14.1-9.2 19.4-13 5.3-3.7 13-9.2 17-12.1 4.1-2.9 9.4-7.1 11.9-9.3 2.5-2.2 9-7.8 14.5-12.4 6.6-5.6 10.8-8.5 12.5-8.5zm-534.3 174c1.6 0 6.9 4.4 16.5 13.7 7.9 7.6 14.8 14.5 15.5 15.3 0.7 0.8 1.3 2.5 1.3 3.7 0 1.5-1.8 3.9-5 6.8-2.8 2.5-5.5 4.5-6 4.5-0.6 0-2.7 1.1-4.8 2.5-2 1.4-7.1 3.8-11.2 5.4-4.1 1.6-10.7 3.4-14.5 4-3.9 0.7-10.6 1.1-15 0.9-7.7-0.3-8-0.4-8.3-2.8-0.2-1.4 0.8-6.8 2.2-12 1.4-5.2 3-13.7 3.6-18.8 0.5-5 1.2-9.7 1.5-10.2 0.3-0.5 3.9-2.9 8.2-5.3 4.2-2.3 9-5 10.7-6 1.7-0.9 4.1-1.7 5.3-1.7z"/>
	<path id="Path 0" class="s1" d="m447.7 146.7c-1.1 0.4-7.4 1.1-14 1.5-6.6 0.3-14.3 0.9-17 1.1-2.8 0.2-8.5 0.9-12.8 1.4-4.2 0.6-8.2 0.8-8.7 0.5-0.6-0.3-2-0.1-3.3 0.4-1.2 0.5-5.2 1.2-8.7 1.5-3.6 0.3-9.2 0.9-12.5 1.5-3.3 0.6-9.6 1.7-14 2.5-4.4 0.8-14.6 3.1-22.5 5-8 1.9-18.5 4.5-21.8 5.6-3.3 1.1-7 2-8.2 2.1-1.2 0-2.3 0.4-2.3 1 0 0.5-1.9 1.5-4.2 2.1-2.3 0.6-5.8 1.9-7.8 2.9-1.9 0.9-5.9 3-9 4.6-4.5 2.4-5.8 6.7-6.1 9.2-0.3 2.5 2.1 3.7 5.5 6.4 2.3 1.8 4.6 3.2 5.1 3.2 0.6 0 1 0.5 1 1 0 0.6 1.3 1 2.8 1 1.5 0 4.2-0.9 6-2 1.8-1.1 4.6-2 6.2-2 1.7 0 4.7-0.8 6.8-1.9 2-1 7.4-2.4 12.1-3.3 4.7-0.9 10.5-2.1 13-2.6 2.5-0.5 9.4-1.5 15.5-2.3 6-0.8 15-2 20-2.6 4.9-0.5 13.3-1.5 18.5-2.2 5.2-0.6 10.6-0.9 12-0.6 1.4 0.3 3.8 0.2 5.5-0.3 1.6-0.5 7-1.2 12-1.5 4.9-0.4 13.5-0.8 19-0.9 5.5-0.1 10.7-0.5 11.5-0.9 0.8-0.4 25.4-3 53.7-2.7 28.3 0.2 57.8 2.9 64.9 3.5 7.2 0.6 20.4 1.8 29.5 2.8 9.1 0.9 19.4 1.7 23 1.7l9.2-0.5c6.9-19 8.7-22 7.2-23-0.9-0.6-4.1-1.7-7.1-2.4-3-0.8-9-2.6-9.4-2.5-0.4 0.1-3.1-0.3-6-0.9-2.9-0.5-12.6-1.9-21.7-2.9-9.1-1.1-22.1-2.3-29-2.6-7.2-0.4-13.7-1.3-15.3-2.1-1.5-0.7-4.1-1.3-5.7-1.3-1.7 0-3 0.4-3 1 0 0.5-2.5 1-5.5 1-3 0-5.6-0.5-5.6-1-0.1-0.6-15.4 0.9-38.9 0.9-20.4 0.1-38.8-0.8-39.9-0.4zm192.3 18.3q-3.2 2.8-3.1 5.3c0.1 1.4-0.5 3.4-1.2 4.5-0.7 1.1-1.7 5.9-1.7 7.7 0.1 1.9 0.7 3.6 1.6 4.1 0.8 0.4 7.2 2 10.5 2.7 3.3 0.7 6.7 1.5 7.5 1.8 0.8 0.3 1.9 0.5 2.3 0.4 0.4-0.1 3.8 0.5 7.5 1.3 3.7 0.8 9.6 2.1 13.2 3 3.6 0.9 8.5 2 11 2.5 2.5 0.4 4.6 1.3 4.8 1.9 0.1 0.7 1.2 1.1 2.5 1.1 1.2 0 8.3-2.6 10.9-3.8 4.2-2 4.7-2.6 5.1-6.2 0.4-2.4 0-5.2-0.8-7-1.1-2.3-2.3-5.8-7.6-7.9-3.7-1.4-11.4-3.7-12.6-4-1.3-0.3-2.3-1-2.3-1.6 0-0.5-0.8-0.9-1.7-0.8-1 0.1-4.9-0.8-8.8-2-3.8-1.1-11.8-3.3-17.7-4.6-5.9-1.4-11.2-2.6-11.7-2.6-0.4 0-5.9 2.7-7.7 4.2z"/>
	<path id="Path 0" class="s2" d="m468 184.1c-1.9 0.4-13.2 1.3-25 1.9-11.8 0.6-26.7 1.5-33 2.1-6.3 0.5-13.8 1.2-16.5 1.4-2.8 0.2-8.8 0.9-13.5 1.4-4.7 0.5-12.6 1.4-17.5 2-4.9 0.6-12.4 1.6-16.5 2.2-4.1 0.6-9.8 1.5-12.5 2.1-2.8 0.5-7 1.2-9.5 1.7-2.5 0.4-7.4 1.6-11 2.5-4 1.1-7.2 2.6-8.2 3.9-1 1.2-1.8 3.2-1.8 4.5 0 1.2 0.4 2.4 1 2.7 0.6 0.3 1 1.5 1 2.8 0 1.2 2.5 8.3 5.5 15.7 3.1 7.4 6.2 14.5 7 15.8 1.1 1.5 2.5 2.2 4.8 2.2 1.8 0 3.7-0.4 4.3-0.9 0.5-0.5 5.6-3.4 11.4-6.4 5.8-3 15.4-8 21.5-11.1l11-5.7c14.7 3.1 23.3 4.4 28.5 5 5.2 0.6 14.4 1.5 20.5 2 6.1 0.6 14.4 1.3 18.5 1.6 4.1 0.3 18.8 1 32.5 1.6 17.8 0.7 30.6 0.7 44.5-0.1 10.7-0.6 30.3-1.7 43.5-2.5 13.2-0.8 31.6-2.6 41-3.9 9.4-1.4 23.1-3.9 30.5-5.6 7.4-1.7 17.8-4.2 23-5.6 5.2-1.4 11.5-3.4 14-4.5 2.5-1.1 5.2-2.4 6-2.8 0.9-0.5 1.5-2.2 1.5-4.2 0-3.1-0.3-3.5-4-4.4-2.2-0.6-4.5-1.3-5-1.7-0.5-0.4-4.6-1.1-9-1.7-4.4-0.6-11.1-1.6-15-2.2-6.6-1.2-7.3-1.1-12 1.1-4.9 2.2-5 2.3-6.2 0.4-0.7-1-2.3-2.9-3.5-4.2-2.1-2.1-2.9-2.3-7.8-1.7-3.5 0.4-6.6 0.2-8.5-0.6-1.6-0.7-7.5-1.6-13-2.1-5.5-0.4-17.6-1.3-27-1.9-9.4-0.7-22.2-1.2-28.5-1.3-6.8-0.1-12.6-0.6-14.3-1.4-1.9-0.8-9.4-1.2-25.9-1.1-12.8 0.1-24.9 0.5-26.8 1z"/>
	<g id="Layer 6">
		<path id="Path 0" class="s3" d="m126 397.8c-3 0.4-6.6 1.4-8 2.3-1.3 0.9-5.1 3.4-6.5 5.8-1.9 3.4-2.4 5.5-2.2 10.5 0.1 3.5 0.8 11.3 1.6 16.1 0.8 4.8 1.7 18 2 29.3 0.3 11.2 0.6 22.7 1 23.1 0.4 0.4 8.5 1.1 16.1 1.2 7.6 0.2 15.5 0.6 15.5 0.3 0.1-0.3 0.5-12.5 0.7-24.9 0.2-12.3 0.8-27.3 1.2-33.3 0.5-5.9 0.7-14.2 0.4-17-0.3-4-1.1-5.8-3-7.6-1.4-1.3-6.1-3.7-8.3-4.8-2.2-1-4.2-1.8-4.5-1.7-0.2 0.1-2.9 0.4-6 0.7zm47 1.1c-1.9 1-6.4 3.1-8.2 5.1-1.9 2.1-3.5 5.3-3.9 7.4-0.4 2.1-0.3 8.4 0.1 12.8 0.4 4.4 1 20.4 1.4 35.5 0.4 16.2 0.9 30.5 1.6 31.9 0.6 1.4 4.3 4.4 6.4 6.4 3 2.9 4.3 3.5 5.8 2.9 1.1-0.4 2.9-1.6 4-2.7 1.1-1 3.7-3 5.8-4.6 2.1-1.5 4.2-2.7 4.7-2.7 0.6 0 3.9-0.5 4.6-1.7 0.8-1.5 1.8-13 2.3-30.7 0.4-14.5 1.1-30.7 1.5-35.9 0.6-6.9 0.4-11.3-0.5-13.5-0.7-1.7-2.3-4.2-3.5-5.5-1.2-1.3-5.7-4-7.3-4.9-1.7-0.9-5.1-1.2-7.3-1.4-2.3-0.1-5.4 0.5-7.5 1.6zm6 190.2c-2.2 2.4-2.8 4.4-1 9.1 1 2.6 1.8 7.7 1.9 11.2 0 3.8-0.6 8-1.4 10-0.8 2-3 5.1-4.9 6.9-1.9 1.9-6.6 5.5-9.6 7.2l-5.5 3.2c0.3 27 0.7 37.1 1.1 39.9 0.3 2.7 1.2 6.1 1.9 7.5 0.6 1.3 2.6 3.7 4.3 5.2 1.8 1.5 3.9 2.8 4.7 2.8 0.8 0 1.5 0.4 1.5 1 0 0.5 4.5 0.9 7.5 0.9 3 0 8.2 1.2 8.8 0.7 0.7-0.5 2.8-2.2 4.6-3.7 1.8-1.6 3.4-4.3 4.2-5.8 0.8-1.5 0.8-8.4 0.5-15-0.2-6.6-0.5-28.4-0.9-46-0.3-17.6-0.1-34.1-0.2-34.2-0.1-0.2-6.3-1.2-9.5-1.9-5.7-1.4-5.9-1.4-8 1zm-67 50.9c-1.1 1.3-1.1 7.5-1.4 22-0.3 17.7-0.2 19.3 1.8 23.3 1.7 3.5 4.2 6.3 8.1 7.7 3.5 1.2 6.4 1.5 10.8 1 4.3-0.4 6.6-1.2 8.2-2.9 1.2-1.2 4-4.4 4.3-5.7 0.2-1.4 0.9-4.6 1.5-7 0.7-2.7 1-11.4 0.8-21l-0.6-17.7c-27.3-0.5-32.3-1.1-33.5 0.3z"/>
		<path id="Path 0" class="s4" d="m175.6 73.3c-0.7 1.2-1.7 4-2.1 6.2-0.4 2.2-1.1 4.7-1.6 5.5-0.5 0.8-2.5 6.2-4.5 12-1.9 5.8-3.8 11.6-4 13-0.3 1.4-1.2 5.7-2 9.5-0.9 3.8-2.2 9.7-2.9 13-0.8 3.3-2.1 10.9-3 17-0.9 6.1-1.8 13.7-2 17-0.3 3.3-0.8 11.6-1.1 18.5-0.6 10.2-1.1 12.8-2.6 14.3-1.7 1.6-1.7 1.9-0.1 6 1.4 3.3 1.7 7.4 1.7 19.7 0 8.5-0.3 28.1-0.7 43.5-0.4 15.4-1.1 37-1.7 48-0.5 11-1.3 22.2-1.7 24.9-0.6 3.7-1.3 5.1-3 5.7-1.3 0.5-2.3 1.2-2.3 1.7-0.1 0.4-14.3 3.9-13.6 4.5 0.8 0.7 22.8 0 32 0.1 12.4 0.1 15.8-0.5 17-1.8 1.2-1.2 2.9-9.8 2.9-24.7 0-10 0.2-27 0.5-37.7 0.2-10.7 0.6-30.5 0.7-44 0.2-13.5 0.6-59.1 1-101.3 0.6-75.3 0.6-76.7-1.3-76.7-1 0-4.8 4.8-5.6 6.1zm-33.4 290.1c-7.2 0.3-13.4 0.8-13.7 1.1-0.3 0.3-0.9 4.2 0.4 6.9 1.4 2.8 2.7 7.4 3 10.3 0.4 4.1 2.5 5.3 3.9 5.3 0.9 0 3.7 2.7 6.4 4 2.8 1.3 6.6 4 8.5 5.9l3.5 3.4c6.2-5.9 9.8-8.4 12-9.3 2.2-0.9 8.6-3.1 9.8-3.6 1.8-0.7 0.4-2.1 0.6-5.2 0.2-2.2 0.3-7 0.3-10.7l-0.1-8.3c-15.5-0.1-27.3-0.1-34.6 0.2z"/>
		<path id="Path 0" class="s5" d="m175 73.8c-2.8 3.1-8 10-11.5 15.2-3.5 5.2-8.4 13.3-10.9 18-2.4 4.7-5.8 12-7.5 16.3-1.7 4.2-4.5 12.5-6.1 18.5-1.7 5.9-3.7 15-4.6 20.2-0.8 5.2-1.7 18.1-1.9 28.5-0.3 10.4-0.7 51.1-1 90.3l-0.5 71.2c12.8 0 19.5 0.2 20.4-0.3 1-0.6-1.9-0.7-4.1-1.4-1.7-0.5-3.4-0.2-3.5-0.8-0.2-0.5 0.8-1.2 2.2-1.5 1.8-0.3 2.6-1.2 2.8-3 0.1-1.4 0.6-5.9 1.1-10 0.5-4.1 0.9-12.4 1-18.5 0.1-6.1 0.4-12.4 0.6-14 0.2-1.6 0.7-23 1.1-47.5 0.7-40.4 1.1-60.3 1.6-72.2 0.4-9 1.7-22.8 2.8-30.8 1.1-8 2.8-17.4 3.6-21 0.8-3.6 2.1-9.3 2.9-12.7 0.8-3.5 4.2-16.2 5.5-20.3 1.3-4.1 3.6-10.4 3.8-11.5 0.2-1.1 8.6-18.5 8.1-18.5-0.4 0-3.1 2.6-5.9 5.8z"/>
	</g>
	<path id="Path 0" class="s6" d="m904 459.4c-4.7 1.3-9.5 2.8-10.8 3.4-1.7 1-2.2 2.1-2.2 5.5 0 2.3 0.7 6.7 1.5 9.7 1.3 4.8 1.3 5.7 0 7-1.3 1.3-1.6 1.3-2.9-0.5-0.8-1.1-2.2-4.5-3.1-7.5-0.9-3-2.3-6.5-3.1-7.7-1.1-1.8-2.3-2.3-5.6-2.3-2.4 0-7.4 0.9-11.3 2.1-3.9 1.1-8 3.1-9.3 4.2-1.3 1.2-4.2 6-6.4 10.7-3.8 7.9-4.1 8.9-3.6 14.5 0.3 3.3 5.2 24.9 10.7 48 5.6 23.1 10.8 43 11.6 44.3 0.8 1.2 2.7 2.5 4.3 2.8 1.5 0.4 4.7 0.4 7.2 0 2.5-0.3 13.5-2.9 24.5-5.6 11-2.8 26.5-6.9 34.5-9.1 10.1-2.9 15.6-5 18.3-7 3.2-2.6 3.7-3.4 3.7-7.1 0-2.4-4.5-23-10-45.8-5.6-22.8-10.9-43.2-11.8-45.3-1.1-2.6-3.8-5.4-8.2-8.5-3.6-2.6-8-5.5-9.7-6.5-1.8-0.9-4.8-1.6-6.5-1.6-1.8 0.1-7.1 1.1-11.8 2.3z"/>
	<path id="Path 0" class="s7" d="m113.5 542.6c-3.8 0.8-10.3 3-14.3 4.9-3.9 1.9-9.3 5.4-11.8 7.7-2.6 2.4-5.4 5.6-6.2 7.3-1.2 2.2-1.7 5.7-1.6 13 0 8.8 0.3 10.5 2.4 14.4 1.4 2.4 3.3 4.8 4.3 5.2 0.9 0.5 2.7 0.9 4 0.9 1.2 0 4.5-1.4 7.2-3.2 2.8-1.8 7.3-4.3 10-5.6 2.8-1.2 7.3-3 10-3.8 2.8-0.8 9-1.7 14-2.1 8-0.5 10.5-0.2 22 2.6 7.2 1.8 14.3 3.1 16 2.9 2.6-0.3 3-0.7 3.3-3.8 0.1-1.9-0.6-6-1.7-9-1-3-2.4-8.2-3.1-11.5-0.6-3.3-1.5-7.4-2-9-0.5-1.7-2.4-4.1-4.2-5.4-1.8-1.4-6.5-3.3-10.3-4.3-4.2-1.2-11.8-2.1-19-2.3-8.1-0.3-14.3 0.1-19 1.1zm-2.5-46.7c-3.6 1-8.7 2.8-11.5 4-3 1.4-7.3 4.7-10.8 8.4-4.5 4.8-6.2 7.5-7.4 11.7-1 3.4-1.4 7.6-1.1 11 0.3 3 1.3 7.3 2.4 9.5 1.7 3.5 2.4 4 5.7 4.2 2.2 0.2 5.4-0.5 8-1.8 2.3-1.2 7.4-3.3 11.2-4.6 4.8-1.6 10.4-2.6 17.5-3 8.4-0.4 12.7-0.1 21.5 1.6 6.1 1.1 12.3 2.1 13.9 2.1 2 0 4-1.2 6.6-3.8 2.3-2.3 4.2-5.4 5-8.2 0.7-2.6 0.9-6.4 0.6-9-0.4-2.5-1.9-6.7-3.4-9.3-1.5-2.7-4.3-6.1-6.2-7.5-1.9-1.4-5.7-3.5-8.5-4.6-4.1-1.6-8-2-21-2.2-13-0.3-17.2 0-22.5 1.5zm87 0.1c-1.9 0.5-5.2 2.1-7.2 3.5-2.1 1.4-5.2 4.4-6.8 6.7-1.7 2.4-3.5 6.5-4 9.3-0.5 2.7-2.4 12.4-4.1 21.5-3 15.3-3.1 17-2 24.2 0.6 4.3 2.1 9.7 3.4 11.9 1.2 2.3 3.5 5.1 5 6.3 2.3 1.7 4.3 2.1 10.5 2.1 7 0 8-0.3 11.5-3 2.1-1.6 5-5.3 6.3-8 1.5-3.2 3.1-9.9 4.4-18.5 1.2-7.4 2.5-14.2 2.9-15 0.6-1.1 1.1-0.7 2.2 2 0.9 2.2 1.4 6.7 1.3 12-0.1 6.1-0.9 10.8-2.7 16.5-2.2 7-3.4 8.8-9.2 15l-6.7 7c0.6 49.7 1 54.7 2.2 56.1 1.1 1.1 2.5 1.4 5 1 2.7-0.4 5.2-2.3 11.3-8.6 4.2-4.4 7.7-7.5 7.7-7 0 0.5-0.9 3.1-2.1 5.7-1.1 2.7-1.9 5.9-1.7 7.3 0.2 2.1 0.9 2.6 3.8 2.8 1.9 0.2 5.1-0.3 7-1 1.9-0.8 5.2-2.7 7.3-4.4 2.1-1.6 5.3-5.4 7.1-8.4 1.8-3 4.5-8.7 6-12.5 1.6-3.9 3.5-10.6 4.3-15 1-5.1 1.3-10.3 0.9-14.5-0.3-3.6-1.7-8.8-3-11.5-1.2-2.8-3.6-6.5-5.2-8.3-2.1-2.4-3.6-3.3-5.3-3-1.9 0.2-2.7 1.5-4.6 7.3-1.2 3.9-2.9 8.6-3.8 10.5-0.8 1.9-3.1 5.2-5.1 7.2-2 2.1-4 3.8-4.6 3.8-0.6 0 0.6-3.3 2.6-7.3 2-3.9 4.5-10.6 5.5-14.7 1.5-6 1.9-11.2 1.9-26 0-13.6-0.4-20.1-1.6-24.5-0.8-3.3-2.7-8.3-4.1-11-1.4-2.8-3.9-6.8-5.6-8.9-1.8-2.1-5.2-5-7.7-6.4-3.5-2.1-6.1-2.7-12-2.9-4.1-0.1-9.1 0.2-11 0.7zm537.1 75.4c-1.9 0.8-4.9 3.3-6.7 5.7-1.9 2.4-3.8 6.2-4.4 8.4-0.5 2.2-1 6.9-1 10.5 0 3.6-0.4 7.2-0.9 8-0.7 1.2-1.1 0.7-2-2-0.6-1.9-1.4-5.8-1.7-8.5-0.4-2.8-1.3-6-2-7.3-0.9-1.3-2.4-2.2-3.9-2.2-1.4 0-5.8 0.7-9.8 1.5-3.9 0.9-10.3 3.1-14.2 5-3.9 1.9-10.1 5.8-13.9 8.7-3.8 2.9-8.8 7.8-11 10.8-2.3 3-5.3 7.7-6.8 10.5-1.4 2.7-3.4 7.9-4.4 11.5-1.3 4.7-1.8 10-1.8 19.5 0 7.6 0.5 14.1 1.2 15.7 0.9 2.2 1.9 2.8 4.2 2.8 2.6 0 3.3-0.6 4.9-4.3l1.9-4.2c0.8 16.3 1.8 23.4 2.6 26.2 1.2 3.8 3 6.7 6.6 10.3 3.6 3.6 6.1 5.2 8.7 5.6 2.1 0.4 4.5 0.2 5.3-0.3 1.2-0.8 1.4-2.8 1.1-10.4-0.3-6.9-0.1-9.2 0.7-8.7 0.7 0.5 1.2 1.9 1.2 3.3 0 1.4 1.1 6 2.5 10.2 1.8 5.5 4 9.6 7.4 13.8 3.4 4.2 6.5 6.9 10.7 9 5.8 3 6.1 3 23.9 3.3 17.9 0.3 18 0.3 23.5-2.5 3-1.5 7-4.2 8.7-6 1.8-1.8 4.4-5.6 5.8-8.3 1.4-2.8 2.5-6 2.5-7.3 0.1-1.2-0.5-2.8-1.2-3.4-1-0.9-2.6-1-6.3-0.4-2.8 0.5-7.3 1.7-10 2.6-2.8 0.9-5.4 2.1-6 2.6-0.5 0.5-1.5 0.9-2.2 0.9-0.7 0-1.5-0.9-1.8-2-0.3-1.1-1.9-2.5-3.8-3.1-2.4-0.9-2.8-1.4-1.7-1.9 0.8-0.4 4.4-1.1 8-1.5 3.6-0.4 9.2-1.3 12.5-2.2 3.3-0.8 7.8-2.4 10-3.6 2.2-1.1 6.3-4.3 9-7.1 2.8-2.8 6.2-7.4 7.5-10.1 1.3-2.8 2.6-7.1 2.9-9.6 0.4-2.9 0.2-5.2-0.5-6-0.7-0.8-4.6-1.7-9.5-2.2-4.6-0.5-10.7-1.3-13.4-1.9-2.8-0.6-7.3-2.1-10-3.4-2.8-1.3-7.1-4.3-9.7-6.6-2.5-2.4-5.5-5.6-6.5-7.2-1.7-2.8-1.4-2.6 5.7 1.9 4.1 2.7 9.7 5.9 12.5 7.1 2.7 1.3 8.4 2.8 12.5 3.5 4.1 0.6 9.7 0.9 12.5 0.5 2.7-0.3 6.7-1 8.7-1.6 2.1-0.5 5.9-2.9 8.4-5.3 2.6-2.3 5.3-5.4 6-7 0.8-1.5 1.4-4.6 1.4-7 0-2.3-0.7-5.2-1.5-6.5q-1.5-2.2-4.5-2.2c-1.6 0-4.7 1.1-6.8 2.5-3.3 2.3-4.7 2.6-12.7 2.5-7.3 0-9.9-0.5-14-2.4-2.8-1.2-7.3-4.3-10-6.8-2.8-2.4-6-6.4-7.2-8.9q-2.3-4.4-2.4-10.4c-0.2-4.8 0.3-6.9 2.4-10.5 1.5-2.5 2.7-5.5 2.7-6.8 0-1.6-1.1-2.7-4.3-4.2-2.3-1.1-6-2-8.2-1.9-2.2 0-5.5 0.6-7.4 1.3zm-618.6 18.4c-3.3 1-8.2 3.1-11 4.7-2.7 1.6-6.7 4.5-8.9 6.5-2.1 1.9-4.8 5.1-5.9 7-1.8 3-2.1 4.9-1.9 13 0.2 8.1 0.5 10.1 2.7 13.7 1.4 2.4 3.4 4.8 4.5 5.3 1.1 0.5 2.8 1 3.8 1 0.9 0 4.2-2.1 7.1-4.7l5.5-4.8c36-1.1 40-1.5 44.6-3.3 3.2-1.2 7.5-4 10.3-6.7 3.7-3.6 4.8-5.4 5.3-8.8 0.3-2.3 0.1-6-0.4-8.2-0.7-2.6-2.5-5.3-5.1-7.8-2.3-2-5.4-4.4-7.1-5.2-1.7-0.8-8.1-1.9-14.2-2.5-6.2-0.5-14-1-17.3-0.9-3.3 0-8.7 0.8-12 1.7zm528.5 153.4c-1 0.8-1.4 3.3-1.2 8.3 0.1 6.7 0 7.1-3.1 10-1.8 1.6-5.3 3.6-7.7 4.3-2.5 0.8-8.5 1.4-13.5 1.4-7.7 0-9.8-0.4-14.2-2.6-3.6-1.8-5.4-3.3-5.7-4.9-0.3-1.2-0.8-4.9-1.3-8.2l-0.8-6c-7.1 0-9.4 0.8-12.5 3-2.3 1.6-5.5 4.8-7.1 7-1.6 2.2-3.2 5.8-3.6 8-0.3 2.3 0 6.2 0.8 9 0.9 3.3 2.6 6.3 5.1 8.7 2.1 2.1 6.3 5.5 9.3 7.5 3.1 2.1 5.6 4.1 5.5 4.5 0 0.5-1.2 0.5-2.7 0.2-1.6-0.3-6.1-2.1-10-4-4-1.9-8.1-3.2-9.1-2.9-1 0.3-3.5 2.7-5.5 5.5-2.4 3.2-4.2 7.3-5.2 11.2-0.8 3.5-1.5 8.1-1.5 10.3 0 2.2 0.5 5.8 1.1 8 0.7 2.2 2.6 6 4.4 8.5 1.8 2.5 5 5.8 7.1 7.5 2.2 1.6 6.6 4.4 9.9 6.2 3.3 1.8 5.7 3.3 5.3 3.3-0.5 0-5.2-1.6-10.5-3.6-5.6-2-11.1-3.4-12.8-3.2-2.9 0.3-3 0.5-3.3 6.3-0.3 4.7 0.1 6.5 1.6 8.5 1 1.4 4.6 3.9 7.8 5.7 3.2 1.7 9.3 4.1 13.4 5.2 4.1 1.2 11.3 2.8 16 3.6 4.7 0.8 11.2 1.5 14.5 1.5 3.9 0 7-0.6 8.9-1.8 2.9-1.7 3.1-1.6 15.5 2.5 6.9 2.4 18.2 5.2 25.1 6.4 11.4 1.9 15.3 2 44.5 1.6 28.3-0.4 33-0.7 40.8-2.6 4.8-1.1 11.7-3.2 15.5-4.4 3.7-1.3 8.7-3.5 11.2-4.8 2.5-1.4 5.6-3.2 7-4.1 1.4-0.9 3.7-3.4 5.2-5.5 2.2-3 2.8-4.9 2.8-9.3 0-3.3-0.6-6.4-1.5-7.8-1.1-1.7-2.5-2.2-5.5-2.2-2.9 0-7 1.5-14.7 5.5-6.3 3.2-14.7 6.5-20.3 8-5.2 1.4-14.2 3.2-20 4.1-7.1 1.2-16.9 1.7-30.5 1.7-13.9 0-23-0.5-30-1.7-5.5-0.9-13.1-2.5-17-3.6l-7-2c8.5 0.8 18 1.5 26.5 2.1 8.7 0.6 24.1 0.9 35 0.6 15.4-0.5 22-1.1 31.5-3.1 6.6-1.4 14.9-3.5 18.5-4.7 3.6-1.2 7.9-2.8 9.5-3.7 1.6-0.8 5.4-3.5 8.4-6.1 3-2.5 6.1-6.2 6.9-8.1 0.9-2.1 1.6-6.9 1.6-12 0.1-7.6-0.2-9.2-3.2-15.3-1.7-3.7-5.2-8.6-7.6-11-2.4-2.3-6.8-5.7-9.7-7.4-3-1.8-8-4.2-11.1-5.3-3.2-1.1-10.2-2.5-15.5-3.2-7.6-0.9-12.4-0.9-21.3 0.1-6.3 0.6-15.9 2.1-21.2 3.1-5.5 1.1-16.6 4.6-25 8-8.4 3.3-18.3 6.6-22 7.5-4.1 0.9-7.5 1.2-8.5 0.7-1.4-0.7 0.2-1.5 6.2-3.2 4.4-1.2 10.7-3.7 14-5.4 3.3-1.7 8-5.1 10.5-7.6 2.9-2.9 4.8-5.8 5.3-8 0.4-1.9 0.7-5.1 0.7-7 0-1.9-0.9-5-2-6.8-1.1-1.7-4.4-4.9-7.2-7-2.9-2.1-6.9-4.4-8.8-5-1.9-0.7-5.1-1.2-7-1.2-2 0-4.2 0.5-5 1.2zm-271 1c-1 0.9-1.3 3.5-1.2 10l0.2 8.8c-10.4 4.1-13.5 4.5-22 4.5-9.6 0-10.9-0.2-15.2-2.8-2.8-1.5-5.3-3.9-5.9-5.5-0.6-1.5-1.3-4.5-1.6-6.7-0.3-2.2-1-4.8-1.4-5.8-0.5-0.9-1.8-1.7-2.9-1.7-1.1 0-4.1 1-6.7 2.2-2.5 1.3-6.1 4.1-8 6.3-1.8 2.2-3.5 5.3-3.8 7-0.3 1.6-0.5 4.6-0.5 6.5 0 2.3 0.9 4.8 2.7 7.2 1.6 2 4.2 4.7 5.8 6.1 1.6 1.4 5.3 3.6 8 5 2.8 1.4 7.9 3.3 11.5 4.3 3.6 0.9 7.2 2 8 2.6 1 0.6-1 0.8-6 0.4-6.1-0.3-9.9-1.4-20-5.6-6.9-2.8-14.7-6-17.5-7-2.7-1-7.9-2.6-11.5-3.4-3.6-0.8-11-2-16.5-2.6-5.5-0.7-13.6-0.9-18-0.6-4.4 0.4-11.7 1.5-16.2 2.6-4.6 1.1-10.9 3.3-14 4.9-3.2 1.6-8.2 4.7-11 7-2.9 2.2-6.9 6.5-8.8 9.3-2.1 3.3-3.9 7.6-4.6 11.3-0.6 3.3-0.9 8.7-0.6 12 0.3 3.6 1.4 7.7 2.8 10.4 1.3 2.4 4.4 5.9 6.9 7.6 2.5 1.8 7.3 4.5 10.8 5.9 3.4 1.4 10.8 3.7 16.5 5.1 6.6 1.6 15.9 2.9 26.2 3.6 9 0.7 23.5 0.9 33 0.5 9.4-0.3 19.3-0.8 22-1.1l5-0.5c-7 2.4-13.1 3.8-18 4.7-6 1.1-14.5 1.6-25.5 1.6-11.7 0-20.5-0.6-30-2.1-7.4-1.1-17.6-3.3-22.5-4.7-4.9-1.5-12.2-4.3-16-6.3-3.8-2-8.1-4.4-9.5-5.4-1.4-1-3.7-1.9-5.2-1.8-2 0-3.7 1.1-5.9 3.7-2.6 3.3-3 4.5-2.7 8.3 0.3 2.9 1.4 5.8 3 8 1.5 1.9 5.1 5 8 6.7 2.9 1.8 8 4.4 11.3 5.7 3.3 1.4 10.5 3.6 16 5 5.5 1.4 14.3 3.2 19.5 4.1 6.6 1 16.5 1.5 32.5 1.5 18.1-0.1 25.2-0.5 33.5-2 5.8-1 14.3-2.6 19-3.4 4.7-0.9 17.7-2.1 29-2.6 11.3-0.5 23.9-1.4 28-1.9 4.1-0.5 11.3-2.4 16-4.1 4.7-1.7 10.5-4.6 13-6.4 2.5-1.8 4.8-4.1 5.3-5 0.4-0.9 0.7-3.5 0.7-5.9 0.1-2.7-0.6-5.2-2-7-1.2-1.7-2.9-2.7-4.5-2.7-1.4 0-6.7 1.8-11.7 3.9-5.1 2.1-10.3 4.2-11.5 4.5-1.3 0.3-2.3 0.5-2.3 0.3-0.1-0.1 2.7-1.3 6.2-2.7 3.9-1.6 8.3-4.4 11.6-7.5 3.1-2.9 6.5-7.4 8-10.5 2.4-4.9 2.7-6.6 2.7-16.5 0-9.3-0.3-11.6-2.1-15-1.2-2.2-4.1-5.7-6.5-7.8-2.4-2-5.1-3.7-5.9-3.8-0.8 0-4.6 1.5-8.3 3.3-5.5 2.7-7 3.1-8 2-0.9-1-0.6-1.8 1.8-3.7 1.6-1.3 3.4-2.5 4-2.5 0.6-0.1 3.2-2 5.9-4.3 2.7-2.3 5.3-5.1 5.9-6.2 0.6-1.1 1.4-3.6 1.8-5.5 0.5-1.9 0.5-5.3 0.2-7.5-0.5-2.9-1.9-5.2-5-8.3-3.1-3.1-6-4.7-10.5-6.1-3.5-1-7.9-2.1-9.9-2.5-2.2-0.4-4-0.2-4.9 0.6z"/>
	<path id="Path 0" class="s8" d="m317 369.6c-0.8 2-1 6.8-0.7 15.4 0.3 7.5 1.3 15.5 2.5 20 1.1 4.1 3.6 10.6 5.5 14.5 2 3.8 6.2 9.9 9.4 13.4 4.2 4.6 7.7 7.3 12.8 9.7 4.1 2 9.9 3.9 14 4.5 5.1 0.8 8.8 0.8 13.5-0.1 3.6-0.6 9-2.3 12-3.7 3-1.4 8.1-5 11.3-8.2 3.2-3.1 6-6.4 6.2-7.4 0.3-0.9-0.1-2.4-0.8-3.2-0.8-1.1-2.8-1.6-6-1.5-2.6 0-7.1-0.5-10-1.1-2.8-0.7-6.6-2.2-8.2-3.4-1.6-1.3-4.3-4.7-6-7.7-2.5-4.6-3-6.6-3.3-14.8-0.3-7.4 0-10.3 1.3-13 0.9-1.9 1.5-4.4 1.3-5.5-0.3-1.7-1.6-2.2-8.3-3.2-4.4-0.7-15.2-2.5-24-3.9-8.8-1.5-17.2-2.9-18.6-3.1-2.2-0.4-2.9 0-3.9 2.3zm254 10c-2.8 2.3-3.1 3.1-3.1 8 0.1 4.1 0.6 6 2.3 8 1.7 1.9 3.6 2.8 7.4 3.3 5 0.6 5.3 0.5 8.8-3.2 3-3.1 3.6-4.4 3.6-8-0.1-3.5-0.7-4.8-3.5-7.5-2.9-2.6-4.3-3.2-7.9-3.2-3.3 0-5.2 0.7-7.6 2.6zm-42-0.7c-5.8 0.4-21.5 0.8-35 1-13.5 0.1-24.9 0.6-25.4 0.9-0.6 0.4-0.7 4.9-0.3 10.7 0.4 5.5 1.4 13.1 2.2 17 0.8 3.9 3.3 10.6 5.4 15 2.8 5.6 5.9 9.8 10.3 14.2 4.1 4 8.6 7.2 12.8 9.1 3.6 1.6 9 3.6 12 4.3 3.3 0.9 10.2 1.4 17.5 1.3 8.7-0.1 14.1-0.7 19.5-2.2 4.1-1.1 10.4-3.4 14-5 3.6-1.6 9.1-4.9 12.3-7.3 4.1-3.1 5.7-5.1 5.7-6.7 0-1.2-0.9-2.7-2-3.2-1.1-0.6-3.2-1-4.8-1-1.5 0-5.7-0.9-9.5-2-5.5-1.6-7.3-2.8-10.2-6.3-2-2.3-4.5-6.7-5.7-9.7-1.6-4.1-2.1-7.4-1.9-13 0.1-4.1 0.3-9.8 0.4-12.5l0.2-5c-5.4-0.1-11.7 0.1-17.5 0.4zm-134 0.1c-0.9 0.6-2.4 2.5-3.3 4.3-1 1.7-1.7 4-1.7 4.9 0 1 0.8 3.4 1.7 5.4 1.3 2.5 2.8 3.9 5.3 4.6 1.9 0.6 4.9 0.7 6.5 0.3 1.6-0.4 4.2-2 5.7-3.6 2.1-2.1 2.8-3.9 2.8-6.7-0.1-2.9-0.8-4.4-3.5-7-2.8-2.6-4.3-3.2-7.8-3.2-2.3 0-4.9 0.5-5.7 1z"/>
	<path id="Path 0" fill-rule="evenodd" class="s9" d="m187 45.2c-2.5 1.7-8.8 7.4-14 12.7-5.3 5.3-10.9 11.4-12.5 13.6-1.7 2.2-3.8 4.9-4.8 6-1 1.1-4.7 6.7-8.2 12.5-3.5 5.8-7.4 12.7-8.6 15.5-1.2 2.7-2.9 6.8-3.9 9-1 2.2-2.8 6.7-3.9 10-1.2 3.3-3.2 10.1-4.5 15-1.4 4.9-2.7 10.6-3 12.5-0.4 1.9-1.4 7.8-2.3 13-1.4 8.3-1.7 20.9-1.7 99.5-0.1 49.5-0.4 90.8-0.9 91.8-0.4 0.9-1.4 1.7-2.2 1.7-0.8 0-1.8 0.6-2.1 1.3-0.4 0.6-0.8 3.1-1 5.5-0.3 3.5 0.1 4.8 2.4 7.5 1.6 1.7 3.6 4.3 4.5 5.7 1 1.4 1.7 3.9 1.7 5.5 0.1 2.7-0.5 3.2-4.7 4.9-2.8 1.1-6.6 3.9-9.1 6.5-2.3 2.5-5 6.2-5.9 8.1-0.9 1.9-2.1 6.2-2.6 9.5-0.8 4.5-0.7 7.5 0.2 12 0.7 3.3 1.7 18.1 2.3 33 0.6 14.9 0.8 28.4 0.4 30-0.3 1.6-1 2.7-1.4 2.3-0.4-0.4-2.5 0.2-4.7 1.4-2.2 1.1-5.8 3.4-8 5.1-2.2 1.7-5.3 4.5-7 6.2-1.7 1.7-4.2 5.6-5.7 8.6-1.5 3-3.2 8.1-3.8 11.4-0.6 4.1-0.6 8.1 0.1 12.5 0.5 3.6 2.1 8.9 3.5 11.8 2.4 5.1 2.4 5.2 0.5 8-1 1.5-2.6 4.7-3.4 7.2-0.8 2.5-1.9 6.8-2.2 9.5-0.5 3.4-0.2 7.4 1 12.5 0.9 4.1 2.4 8.9 3.2 10.5 0.9 1.6 3.1 4.4 5 6l3.4 3c-2.4 7.4-3.1 12.8-3.1 16.8 0 4.4 0.7 9.3 1.8 12.7 1 3 2.7 6.8 3.8 8.4 1 1.5 4.7 4.9 8.2 7.5 3.4 2.5 6.3 5.1 6.3 5.6 0.1 0.5 0 7.1-0.1 14.5-0.2 8.7 0.2 14.9 1 17.5 0.7 2.2 2.5 5.8 3.9 7.9 1.8 2.8 4.4 4.8 8.6 6.8 5.1 2.4 7.2 2.8 14.5 2.8 6 0 10.1-0.6 14-2 3.1-1.1 7-3.6 9-5.6l3.5-3.5c5.4 5.2 8.8 7.6 11 8.7 3.2 1.5 6.2 1.9 14.5 1.9 9.9 0 10.8-0.2 15-2.9 2.5-1.6 5-3.4 5.6-4 0.6-0.6 2.2-2.9 3.4-5.1 2.1-3.5 2.4-5.7 2.9-18.9 0.5-11.8 0.9-15 2.1-15.6 0.8-0.4 2.8-1.4 4.3-2.1 2.4-1.2 3.7-1.2 7.3-0.2 2.4 0.7 5.9 1.3 7.7 1.3 1.7 0 5.2-0.6 7.7-1.4 2.5-0.7 5.8-2 7.5-2.9 1.7-0.8 5.5-3.8 8.5-6.6l5.5-5.2c13.2 0 20.6-0.6 25-1.3 4.4-0.8 10.5-2 13.5-2.9 3-0.8 8.6-3 12.5-4.8 3.9-1.8 9.3-4.8 12-6.5 2.8-1.8 6.4-4.4 8-5.8 1.6-1.4 3.8-2.8 4.8-3.1 0.9-0.3 3.2 0.3 5 1.3 1.7 1 5 2.9 7.2 4.2 2.3 1.4 5 3.1 6 3.7 1.1 0.7 4.3 2.4 7 3.9l5 2.5c-5.5 5.7-8.9 9.6-11.1 12.4-2.2 2.7-6 7.9-8.4 11.5-2.4 3.6-6.1 10-8.2 14.2-2.1 4.3-3.8 8.5-3.8 9.3 0 0.8-0.3 1.5-0.7 1.5-0.5 0-1.6 2.8-2.7 6.2-1 3.5-2.5 10.1-3.2 14.8-0.8 4.7-1.4 14.7-1.4 22.2v13.8c-7.4 2.3-12.3 5-15.8 7.5-3.4 2.5-6.2 5.2-6.2 6 0 0.8-0.3 1.5-0.7 1.5-0.5 0-1.4 1.2-2.1 2.8-0.8 1.5-1.6 5.4-1.9 8.7l-0.6 6c-9.4-1.9-16.4-3.2-21.4-4-5.1-0.8-12.8-1.5-17.1-1.5-4.2 0-10.6 0.5-14.2 1-3.6 0.5-9.4 1.9-13 3.1-3.6 1.1-9.2 3.4-12.5 5-3.3 1.6-8.5 4.8-11.5 7-3 2.3-7.1 6.1-9 8.5-1.9 2.4-4.4 6.1-5.6 8.2-1.1 2-2.6 5.7-3.3 8.2-0.7 2.5-1.3 8.1-1.3 12.5 0 4.4 0.2 9 0.6 10.2 0.4 1.7 0 2.6-1.6 3.5-1.3 0.6-3.3 2.3-4.6 3.7-1.3 1.4-3 3.8-3.8 5.3-1 2-2.7 3.1-5.7 3.9-2.3 0.6-5.8 1.7-7.7 2.5-1.9 0.8-6.8 3.2-10.9 5.2-4.1 2-9.2 5.1-11.5 6.9-2.3 1.7-5.2 5.1-6.6 7.6-2.4 4.3-2.4 4.7-1 8.7 0.8 2.3 3.3 5.9 5.5 8 2.2 2.1 7.2 5.5 11 7.5 3.8 2 12.2 5.4 18.5 7.5 6.3 2.1 14.2 4.5 17.5 5.3 3.3 0.9 11.8 2.7 19 4.1 7.2 1.5 15.5 3.1 18.5 3.6 3 0.6 7.3 1.2 9.5 1.5 2.2 0.3 9.8 1.4 17 2.5 7.1 1 19.5 2.6 27.5 3.5 8 0.8 18.8 1.9 24 2.5 5.2 0.5 15.6 1.4 23 2 7.4 0.6 16 1.3 19 1.6 3 0.3 17.9 1.1 33 1.9 15.1 0.8 51.4 2 80.5 2.6 42 1 62.3 1 97.5 0.1 24.5-0.7 52.1-1.7 61.5-2.2 9.4-0.6 24.4-1.5 33.5-2.1 9.1-0.5 24.4-1.7 34-2.6 9.6-0.8 20.9-1.9 25-2.3 4.1-0.5 11.8-1.3 17-1.9 5.2-0.6 12.9-1.5 17-2 4.1-0.6 12-1.7 17.5-2.6 5.5-0.8 14.7-2.4 20.5-3.6 5.8-1.1 15.2-3.2 21-4.6 5.8-1.3 15.2-4 21-5.9 5.8-1.9 12-4.4 13.8-5.5 1.7-1 3.7-1.9 4.2-1.9 0.5 0 3.5-1.6 6.5-3.5 3-1.9 6.5-4.5 7.6-5.7 1.2-1.3 3-3.7 4-5.3 1-1.6 1.9-4.1 1.9-5.5 0-1.4-1-4.1-2.1-6-1.2-1.9-3.6-4.9-5.3-6.5-1.8-1.6-6.4-4.6-10.2-6.7-3.8-2-9.6-4.6-12.9-5.8-3.3-1.2-9.6-3.2-14-4.5-4.4-1.3-10.7-2.9-14-3.6-4.8-1-6.6-1.9-9-4.8l-3-3.5c0.6-21.6 0.4-23.9-1.6-29.1-1.2-3.3-3.5-8-5.2-10.5-1.6-2.5-5.3-6.7-8.1-9.3-2.8-2.7-7.4-6.1-10.1-7.7-2.8-1.6-5.3-2.7-5.8-2.4-0.4 0.2-0.7 0.1-0.7-0.3 0-0.5-2.8-1.8-6.2-3-3.5-1.2-8.6-2.5-11.3-3-2.8-0.4-12-0.8-20.5-0.7-11.9 0.1-18 0.6-26 2.3-5.8 1.2-10.7 2.4-11 2.6-0.3 0.2-0.8-2.7-1.2-6.3-0.4-4.3-1.7-8.6-3.5-12.1-2-3.8-4.3-6.5-8-9-2.9-2-8.5-4.8-12.5-6.3-4-1.5-9.2-3.2-11.6-3.8-3.7-0.9-4.2-1.3-4.2-3.7 0-1.6-0.7-6.4-1.5-10.8-0.8-4.4-2.1-10.7-3-14-0.9-3.3-2.5-8.7-3.7-12-1.1-3.3-3-8-4.1-10.5-1.2-2.5-4.3-8.2-6.9-12.7-2.6-4.6-5.3-8.3-5.8-8.3-0.5 0-1-0.6-1-1.2-0.1-0.7-2-3.5-4.3-6.3-2.3-2.7-4.4-5.2-4.7-5.5-0.3-0.3-1.6-1.7-3-3.2l-2.5-2.7c15.1-7.1 22.4-10.9 26-13.1 3.6-2.2 6.9-4 7.4-4 0.5 0 1.6-0.6 2.3-1.3 0.7-0.7 3-2.3 5-3.5 2.1-1.2 4-2.2 4.3-2.2 0.3 0-0.1 1.5-0.9 3.3-0.8 1.7-2.4 6.8-3.6 11.2-1.5 5.3-2.3 11.2-2.3 17.5-0.1 5.2 0.4 12.4 1.2 16 0.8 3.6 2.8 9.1 4.5 12.3 1.9 3.6 4.5 6.7 6.8 8.3 2.1 1.3 3.8 3.1 3.8 3.9 0 0.8 0.9 3.4 2 5.8 1 2.3 3.7 6.2 5.8 8.7 2.2 2.6 5.9 5.4 8.8 6.7 2.7 1.2 7.1 2.7 9.9 3.2 3.9 0.9 6.3 2.3 11 6.6 3.3 3.1 6.6 5.6 7.2 5.5 0.7 0 1.3 0.3 1.3 0.8 0 0.4 3.7 2 8.2 3.6 6.2 2.1 10.9 2.9 18.3 3.3 5.6 0.3 12.6 0 16-0.6 3.3-0.6 9.6-2.8 13.9-4.9 5.6-2.6 9.3-5.2 12.5-8.7 2.5-2.8 5.9-7.8 7.6-11 2-4.2 3.1-8.1 3.5-12.9 0.5-6.6 0.7-7.1 5.1-11.5 2.6-2.5 5.4-6.2 6.4-8.1 1-1.9 2.4-5.3 3.2-7.5 0.7-2.2 1.3-7 1.3-10.7 0-6.3 0.2-6.9 2.5-7.8 1.4-0.5 4.2-2.5 6.2-4.4 2.1-1.8 4.9-5.6 6.3-8.2 1.3-2.8 2.6-7.3 2.8-10.4 0.4-4.6 0-6.5-2.4-11.2l-2.9-5.8c8.7-12.8 12.6-19.2 14.2-22.5 1.7-3.3 4-8.8 5.2-12.2 1.2-3.5 2.4-10 2.7-14.5 0.4-4.9 0.1-10.8-0.5-14.3-0.7-3.3-1.9-7.6-2.8-9.5-0.9-1.9-3.5-6.4-5.7-10-2.3-3.6-5-7.6-6.1-9-1.1-1.4-6.6-7.1-12.2-12.7-6.5-6.6-10.1-10.8-9.8-11.8 0.3-0.8 1-1.5 1.5-1.5 0.5 0 5.8-3.2 11.7-7.2 6-3.9 11-7.4 11.3-7.8 0.3-0.4 1-0.9 1.6-1.1 0.6-0.2 2.9-1.8 5-3.6 2.1-1.8 7.8-6.3 12.5-10 4.8-3.7 11.4-9.4 14.8-12.5 3.3-3.2 6.6-5.8 7.1-5.8 0.5 0 3 3 5.5 6.8 3.2 4.7 4.1 6.9 3.2 7.4-0.6 0.4-4.6 1.5-8.7 2.4-4.1 1-8.6 2.5-10 3.4-1.5 1-5 6.8-8.7 14.1-4.3 8.5-6.3 13.6-6.3 16.2 0 2 1.4 9.9 3.1 17.5 1.6 7.5 3.3 14.4 3.6 15.2 0.3 0.8 0.8 2.4 0.9 3.5 0.2 1.1 0.8 3.8 1.4 6 0.5 2.2 2.6 11.2 4.5 20 2 8.8 4.8 20.5 6.2 26 1.5 5.5 3.6 11.4 4.7 13.2 1.2 1.8 3.9 4 6.1 5 2.7 1.2 6.1 1.7 10.5 1.6 3.6-0.1 11-1.3 16.5-2.8 5.5-1.4 12-3.1 14.5-3.6 2.5-0.5 6.7-1.5 9.5-2.3 2.7-0.8 10.4-2.9 17-4.6 6.6-1.8 13.8-3.8 16-4.5 2.2-0.7 5.8-2 8-2.9 2.4-0.9 5.1-3 6.7-5.3 1.5-2.1 3.2-5.8 3.9-8.3 1.1-4 0.9-5.5-1.4-14-1.5-5.2-3.4-12.6-4.3-16.5-0.9-3.9-1.8-7.7-2.1-8.5-0.4-0.8-0.8-2.6-1-4-0.2-1.4-0.8-3.9-1.3-5.5-0.6-1.6-1-4-1-5.2 0-1.3-0.5-2.3-1-2.3-0.5 0-0.8-0.3-0.6-0.7 0.3-0.5-1.5-9.1-4-19.3-2.4-10.2-5-20.3-5.6-22.4-1.1-3.1-2.8-5-9.1-9.5-4.3-3.1-9.1-6.6-10.5-7.8-1.5-1.3-3.3-2.3-4-2.3-0.6 0-1.2-0.4-1.2-1 0-0.6-1.8-1-4-1-2.2 0-9.7 1.3-16.8 3-7 1.6-13.7 3.2-15 3.5-1.9 0.4-3.2-1-9.2-10l-7-10.5c6.6-7.5 9.6-11.1 11-12.9 1.4-1.8 3.3-4.2 4.3-5.4 1-1.2 2.8-3.8 4-5.7 1.1-1.9 2.4-3.7 2.7-4 0.3-0.3 2.6-3.6 5.2-7.5 2.5-3.9 7.3-12.6 10.6-19.5 3.3-6.9 7.9-17.9 10-24.5 2.2-6.6 4.2-13.6 4.6-15.5 0.3-1.9 1.3-7.1 2.1-11.5 1.1-5.2 1.7-13.8 1.7-24.5 0.1-11.4-0.4-19-1.5-24.5-0.8-4.4-2.7-11.1-4.1-15-1.4-3.9-3.8-9.5-5.4-12.5-1.6-3-3.5-6.6-4.3-8-0.8-1.4-1.6-2.7-1.9-3-0.3-0.3-1.8-2.3-3.5-4.5-1.6-2.2-5.4-6.5-8.5-9.5-3-3-7.5-6.9-10-8.6-2.5-1.7-6.9-4.6-9.8-6.3-2.8-1.7-5.9-3.1-6.7-3.1-0.8 0-1.5-0.3-1.5-0.7 0-0.5-3.7-2.1-8.2-3.7-4.6-1.5-11.2-3.5-14.8-4.4-4.5-1-12.3-1.6-25.5-1.7l-19-0.1c-2-9.2-3.7-15.7-5.2-20.4-1.5-4.7-3.2-8.8-3.7-9.2-0.6-0.4-0.8-0.8-0.4-0.8 0.5 0-1.2-3.9-3.7-8.7-2.4-4.9-5.8-10.3-7.5-12-1.6-1.8-3-3.6-3-4 0.1-0.5-2.5-3.3-5.7-6.3-3.2-3-7.8-7.1-10.2-9-2.4-1.9-6.4-4.7-8.8-6.3-2.4-1.5-4.6-2.7-5.1-2.7-0.4 0-3.4-1.3-6.7-2.9-3.3-1.5-9.1-3.5-13-4.4-3.9-0.9-10.1-1.9-14-2.3-4.2-0.4-10.4-0.2-15.5 0.6-4.7 0.6-10.1 1.6-12 2.1-1.9 0.6-5.8 2-8.5 3.2-2.8 1.2-7 3.4-9.5 5-2.5 1.5-5.9 2.7-7.5 2.7-1.6 0-8.6-1.2-15.5-2.6-6.9-1.4-15.4-2.9-19-3.4-3.6-0.5-11.7-1.5-18-2.3-6.3-0.9-16.5-2-22.5-2.6-6-0.6-18.2-1.6-27-2.3-9.8-0.8-35.4-1.2-66-1.2-28.9 0-57.2 0.5-67 1.2-9.4 0.7-21.3 1.7-26.5 2.2-5.2 0.6-13.6 1.5-18.5 2.1-4.9 0.6-13.7 1.7-19.5 2.5-5.8 0.8-13.6 2.1-17.5 2.9-3.9 0.7-10.1 1.9-14 2.6-3.9 0.7-7.4 1.6-7.9 2.1-0.6 0.4-2.1 0.8-3.5 0.8-1.5 0-4.4 0.5-6.6 1.1-2.2 0.6-4.7 1.4-5.5 1.7-0.8 0.3-2.6 0.7-4 0.9-1.4 0.2-7.2 1.9-13 3.7-5.8 1.9-13.6 4.6-17.5 6-3.9 1.5-11.1 4.7-16 7-4.9 2.4-10.8 5.5-13 7-2.2 1.4-4.9 3.2-6 3.9-1.1 0.6-4 3.3-6.5 5.8-2.5 2.5-4.9 5.2-5.5 6-0.6 0.8-1.5 2.5-2.1 3.9-0.6 1.4-1.7 3.8-2.3 5.5-0.7 1.7-1.7 8.6-2.2 15.5-0.5 6.9-1.2 28.7-1.5 48.5-0.4 22.2-0.2 45.2 0.5 60 0.7 13.2 1.6 29.6 2.1 36.5 0.5 6.9 1.4 17.9 1.9 24.5 0.6 6.6 1.3 14.9 1.6 18.5 0.3 3.6 1 10.8 1.6 16 0.5 5.2 1.9 15.8 3 23.5 1.1 7.7 3.1 19.6 4.4 26.5 1.3 6.9 4 18.6 5.9 26 1.9 7.4 5.4 18.9 7.6 25.5 2.3 6.6 7.6 19 11.8 27.5 4.2 8.5 11.8 21.7 16.9 29.3 6.9 10.1 9 13.9 8 14.6-0.6 0.5-4.6 2.5-8.7 4.4l-7.5 3.6c-5.4-9.4-9.5-14.3-12.5-17l-5.5-4.7c-1.2-13.7-1.8-20.2-2.1-23.2-0.3-3-1.4-8.6-2.6-12.5-1.1-3.9-3.3-9.6-4.9-12.8-1.6-3.1-5.6-8.4-8.9-11.7-3.3-3.3-6.4-5.8-7-5.5-0.6 0.3-1 0.2-1-0.3 0-0.4-1.7-1.3-3.7-2.1-2.1-0.7-6.1-1.6-8.8-1.8l-5-0.5c-0.6-40.8-0.3-48.5 0.6-51.8 0.7-2.5 1.3-9 1.2-14.5 0-8.2-0.4-10.9-2.2-15-1.2-2.8-4.1-6.7-6.4-8.9-2.3-2.1-6-4.6-8.1-5.5l-4-1.6c1.1-64.3 1.9-99.2 2.4-119 0.5-19.8 1.2-65.3 1.5-101 0.3-35.8 1-70.4 1.5-77 0.5-6.6 1.2-19.2 1.6-28 0.6-14.7 0.5-16.2-1.2-18.2l-1.9-2.2zm-12 28.6c2.8-3.2 5.5-5.8 6-5.8 0.4 0 0.6 1.5 0.4 3.3-0.2 1.7-0.8 33.8-1.3 71.2-0.6 37.4-1.3 82.9-1.6 101-0.3 18.2-1 49.7-1.6 70-0.5 20.4-1.1 37.1-1.2 37.2-0.1 0.1-10.2 0.6-44.6 1.8l0.5-74.5c0.2-41 0.6-81.9 0.9-91 0.2-10 1.2-21 2.4-28 1.1-6.3 3.8-17.1 6.1-24 2.2-6.9 6.5-17.4 9.4-23.5 3-6 8.6-15.7 12.4-21.5 3.9-5.8 9.3-13.1 12.2-16.2zm273 45.8c4.1-0.2 29.6-0.2 56.5 0 33.8 0.2 54.7 0.7 67.5 1.8 10.2 0.9 26.6 2.5 36.5 3.7 9.9 1.1 23.6 2.9 30.5 4 6.9 1.1 13 2.4 13.5 2.9 0.7 0.7 0.2 1.9-1.2 3.8-1.3 1.5-4.1 5.3-6.3 8.5-2.2 3.1-4.2 5.7-4.5 5.7-0.3 0-5.8-0.9-12.3-2-6.4-1.1-18.9-2.9-27.7-4-8.8-1.1-23.2-2.7-32-3.5-8.8-0.8-30.9-2-49-2.7-26-0.9-39.3-0.9-62.5 0-16.2 0.7-38.3 2.1-49 3.2-10.7 1-25.6 2.8-33 3.9-7.4 1.2-19.4 3.3-26.5 4.6-7.1 1.4-18.9 4.1-26 6-7.1 1.8-17.1 4.8-22 6.5-4.9 1.7-12.7 4.9-17.3 7.1-4.5 2.1-10.2 5.8-12.6 8.2-2.4 2.3-4.9 5.8-5.4 7.7-0.7 2.2-0.7 4.9-0.1 7.3 0.6 2.6 2.2 4.7 5.2 7 2.3 1.9 5.8 4.3 7.7 5.4 1.9 1.2 6.6 3.7 10.5 5.6 5.8 2.9 7.3 4.2 8.7 7.3 1 2.2 4.1 9.8 6.9 16.9 2.8 7.2 5.9 14.7 8.4 20.6l-6 5.4c-4.4 4-6.4 5.2-7.5 4.6-0.8-0.5-5-7.9-9.3-16.5-4.2-8.6-7.7-15.9-7.7-16.3 0.1-0.5-1-2.1-2.2-3.7-1.3-1.6-5.4-4.5-9.3-6.4-3.9-1.9-9.2-4.9-12-6.7-2.7-1.7-7.9-5.8-11.4-9.1-3.5-3.2-7.6-7.7-9.2-9.9-1.5-2.2-3.5-6-4.3-8.5-1.1-2.9-1.4-5.7-1-8 0.5-2.5 2.6-5.4 7.8-10.5 4.3-4.2 10.1-8.6 14.6-11.1 4.1-2.2 12.7-6.1 19-8.7 6.3-2.5 15.1-5.7 19.5-7.2 4.4-1.4 11.4-3.4 15.5-4.5 4.1-1 12.9-3 19.5-4.4 6.6-1.4 17.4-3.4 24-4.5 6.6-1.1 19.4-2.9 28.5-4 9.1-1.2 26.2-2.8 38-3.6 11.8-0.8 24.9-1.7 29-1.9zm254.7 0.9c3.9-0.5 8.2-0.3 9.8-0.4 1.6 0 7.3 0.8 12.5 1.9 6.5 1.4 12.8 3.6 19.8 7 8.8 4.3 11.4 6.2 19.5 14.3 5.1 5 10.2 10.6 11.3 12.2 1.1 1.7 3.8 6.6 6 11 2.2 4.4 5 11.4 6.2 15.5 1.2 4.1 2.7 8.9 3.2 10.5 0.5 1.7 1 4.4 1 6 0 2.7-0.4 3.1-4.7 4.4-2.7 0.8-8.1 3-19.3 8.1l-0.5-33.5-3.8-7c-2.2-3.8-5.1-8.3-6.5-9.9-1.5-1.6-7.4-6-13.2-9.8-5.8-3.7-11-6.8-11.5-6.8-0.5 0-3.5-1.3-6.5-2.8-3-1.6-10.2-4.5-16-6.5-5.8-2-13.8-4.4-17.8-5.4-4-1-8.4-2.5-8.4-2.8 0-0.3 1.1-1 3.1-1.6 1.4-0.5 4.1-1.7 5.9-2.2 1.7-0.4 6.1-1.7 9.9-2.2zm-39.7 19.3c2.5-2.6 5.4-4.8 6.5-4.8 1.1 0 5.1 0.9 9 2.1 3.9 1.1 7.7 2.2 8.5 2.4 0.8 0.2 3.7 0.9 6.4 1.7 2.7 0.7 5 1.6 5.2 2.1 0.2 0.4 1.2 0.7 2.2 0.7 0.9 0 4.2 0.9 7.2 2.1 3 1.1 6.3 2.5 7.3 3 0.9 0.5 2.4 0.9 3.2 0.9 0.8 0 5 2.2 7.5 3.6 2.5 1.4 6.1 3.5 8 4.7 2 1.2 5.3 3.6 7.5 5.2 2.2 1.7 5.4 4.6 7.3 6.5 1.8 1.9 4.3 5.5 5.5 8 2.1 4.2 2.2 5.7 1.9 26-0.1 11.8-0.9 32.1-1.8 45-0.9 12.9-2 29.4-2.4 36.5-0.4 7.2-1.3 20.2-1.9 29-0.7 8.8-1.6 19.8-2.2 24.5-0.5 4.7-1.2 11-1.4 14-0.3 3-0.9 10.2-1.5 16-0.6 5.8-1.5 12.3-1.9 14.5-0.5 2.2-0.9 6-1 8.5-0.1 2.5-1.3 12.4-2.7 22-1.4 9.6-2.9 20.9-3.4 25-0.5 4.1-1.4 9.5-1.9 12-0.5 2.5-1.2 5.6-1.5 7-0.4 1.4-0.7 2.6-0.9 2.7-0.1 0.2-2-0.4-4.2-1.1-2.2-0.8-6.5-2.1-9.5-3-3-0.9-6.4-1.6-7.5-1.7-1.1 0-2.7 0.8-3.6 1.8-0.8 1-1.4 2.9-1.3 4.3 0.1 1.4 0.8 2.8 1.6 3.3 0.7 0.4 3.9 1.5 7.1 2.5 3.1 0.9 5.7 2 5.7 2.5 0 0.4 4.9 1 5.3 1.4 0.5 0.5 1.6 0.9 2.5 1 1 0.1 5.1 1.6 9.2 3.4 4.1 1.8 8.9 4 10.5 5 1.6 1.1 6.6 2.2 6.8 2.7 0.1 0.4 3.1 2.3 6.7 4.1 3.6 1.9 7.5 4 8.7 4.5 1.3 0.6 2.3 1.4 2.3 1.9 0 0.4 4.4 2.2 6.8 4 2.4 1.8 7.6 5.7 11.5 8.8 4 3.1 9.7 8.2 12.7 11.4 3 3.2 7.2 8.1 9.3 10.9 2 2.8 3.7 5.6 3.7 6.1 0 0.6 0.7 1.7 1.7 2.7 1 0.9 2.3 3.3 3 5.5 0.7 2.1 1.7 7.1 2.3 11.1 0.5 3.9 0.8 7.5 0.6 8-0.3 0.4-0.7 2.6-1 5-0.3 2.3-1.3 5.9-2.3 8-0.9 2-1.5 4-1.5 4.5 0.1 0.4-0.3 0.7-0.8 0.7-0.5 0-0.8 0.5-0.5 1 0.3 0.6-0.1 1-0.7 1-0.7 0-1 0.2-0.5 0.5 0.4 0.3-0.5 2.4-2 4.8-1.6 2.3-4.8 6.9-7.2 10.2-2.5 3.3-5.2 6.4-6 7-0.9 0.5-3.2 2.3-5.1 4-1.9 1.6-4.6 3.6-6 4.4-1.5 0.8-4.9 1.3-8.2 1.3-3.2-0.1-7.7-1-10-2.1-2.4-1-6-3.7-8-6-2.1-2.2-4.5-5.6-5.4-7.3-0.9-1.8-1.7-4.4-1.7-5.8-0.1-1.4 0.7-3.7 1.6-5.2 0.9-1.6 2.9-3.6 4.5-4.5 1.5-0.9 5.1-4.1 8-7 3.8-3.9 5.6-6.7 6.7-10.5 0.9-3 1.3-6.8 0.9-8.8-0.3-1.9-1.4-5.3-2.5-7.5-1.1-2.2-2.9-5.2-4.2-6.6-1.2-1.4-5.1-4.8-8.7-7.5-3.6-2.7-10.5-6.9-15.5-9.3-5-2.4-10-4.7-11.2-5.2-1.3-0.5-3.5-1.4-5-2-1.6-0.6-3.6-1.5-4.5-2-1-0.5-2.5-0.9-3.3-0.9-0.8 0-2.9-0.7-4.5-1.5-1.6-0.8-4.7-1.8-6.7-2.1-2.1-0.4-4.9-1.3-6.3-2-1.4-0.7-2.8-1.1-3.2-0.8-0.5 0.2-1.5-0.2-2.3-0.8-0.9-0.7-1.6-1.1-1.6-0.8 0 0.3-2.5 0-5.7-0.7-3.7-0.7-6.3-0.8-7.4-0.2-1 0.5-2.3 1.8-2.8 2.9-0.8 1.6-0.5 2.5 1.8 4.8 1.5 1.5 4.3 3.1 6.2 3.4 1.9 0.4 5.5 1.1 8 1.7 2.5 0.6 5.2 1.3 6 1.5 0.8 0.3 1.7 0.5 2 0.5 0.3 0.1 1.1 0.5 1.8 0.9 1 0.5 0.4 2.4-2.6 8.2-2.2 4.1-5.1 9.5-6.5 12-1.3 2.5-4.8 7.9-7.6 12-2.8 4.1-5.9 8.6-6.9 10-0.9 1.3-4.2 5.6-7.3 9.5-3.1 3.8-8.2 9.6-11.5 12.8-3.2 3.2-9.2 8.2-13.2 11-3.9 2.9-11.6 8.5-17 12.4-5.3 4-11.1 7.8-12.7 8.5-1.6 0.7-3.6 1.8-4.2 2.5-0.7 0.7-2.7 1.6-4.3 2.1-1.7 0.4-3 0.9-3 1.2 0.1 0.3-1.4 1.2-3.2 2-1.8 0.8-3.6 1.5-3.9 1.5-0.3 0-2.3 0.9-4.5 1.9-2.1 1-4.7 2.3-5.6 2.7-1 0.5-2.6 0.9-3.6 0.9-1 0-2.2 0.4-2.8 0.9-0.5 0.6-2 1.2-3.4 1.5-1.4 0.2-4 0.8-5.8 1.3-1.8 0.4-3.2 1.1-3.2 1.6 0 0.4-1.5 0.9-3.2 1.1-1.8 0.2-7.6 1.5-12.8 2.9-5.2 1.3-11.5 2.7-14 3-2.5 0.3-5.2 0.8-6 1.1-0.8 0.3-3.7 0.8-6.5 1.1-2.7 0.3-15.4 0.9-28 1.2-14.1 0.3-28.2 0.1-36.5-0.6-7.4-0.6-15.5-1.5-18-2.1-2.5-0.5-7.6-1.4-11.5-2.1-3.9-0.6-9.5-1.8-12.5-2.6-3-0.9-7-1.7-8.7-1.9-1.8-0.2-3.5-0.8-3.8-1.4-0.3-0.5-1.4-1-2.5-1-1.1 0-6.3-1.5-11.6-3.2-5.3-1.8-9.8-3.6-10-4-0.2-0.5-1.5-0.8-2.9-0.8-1.4 0-2.7-0.4-3-1-0.3-0.5-1.3-1-2.2-1-1 0-2.9-0.9-4.3-2-1.4-1.1-2.9-2-3.5-2-0.6 0.1-3-0.9-5.5-2-2.5-1.1-5.4-2.6-6.5-3.3-1.1-0.6-2.3-1.6-2.7-2.2-0.4-0.5-0.8-0.7-0.8-0.2 0 0.4-1.7-0.4-3.7-1.8-2.1-1.4-4.2-2.8-4.8-3.3-0.6-0.4-3.9-2.7-7.5-5.1-3.6-2.4-6.7-4.7-7-5.1-0.3-0.3-2.1-1.7-4-3-1.9-1.3-8.4-7.1-14.4-12.9-6-5.8-14.2-14.6-18.3-19.6-4.1-4.9-8.1-9.8-8.9-10.7-0.8-1-1.1-1.8-0.6-1.8 0.4 0 0.2-0.4-0.4-0.8-0.6-0.4-3.4-4.2-6.2-8.4-2.9-4.3-5.2-8-5.2-8.3 0-0.3-1.4-2.5-3-5-1.6-2.5-3-4.8-3-5.2 0-0.5-1.7-4.4-3.9-8.8-2.1-4.4-4.8-10.1-6-12.7-1.1-2.7-2.1-5.4-2.1-6 0-0.7-0.3-1.7-0.8-2.3-0.5-0.5-1.4-3-2.2-5.5-0.7-2.5-2.1-6.7-3-9.5-1-2.7-2-6.3-2.2-8-0.3-1.6-0.7-3.4-1-4-0.3-0.5-1.5-5.7-2.7-11.5-1.2-5.8-2.5-12.7-3.1-15.5-0.5-2.7-1.6-9-2.4-14-0.8-4.9-1.5-9.7-1.6-10.5 0-0.8-0.5-5.1-1-9.5-0.4-4.4-1.3-11.8-1.9-16.5-0.6-4.7-1.5-13.2-2.1-19-0.6-5.8-1.5-17.7-2-26.5-0.6-8.8-1.6-25.9-2.3-38-0.6-12.1-1.2-38.2-1.1-58 0-19.8 0.4-37.3 1.9-41.7l7 6.2c3.9 3.4 9.5 7.8 12.5 9.8 3 2 8.6 5.2 12.5 7.2 5.9 3 7.3 4.2 9.2 8 1.2 2.5 3.2 6.8 4.4 9.5 1.2 2.8 2.2 5.6 2.3 6.3 0.1 0.6 0.4 1.2 0.9 1.2 0.4 0 0.7 0.5 0.7 1 0 0.6 1.9 4.9 4.2 9.8 2.3 4.8 4.6 9.2 5 9.7 0.4 0.6 2 2.6 6.5 8l2.9-3.5c1.6-1.9 6-6.6 9.9-10.3 3.8-3.8 11.5-9.9 17-13.6 5.5-3.7 11-7.1 12.3-7.4 1.2-0.4 2.8-1.3 3.5-1.9 0.6-0.7 3.7-2.6 6.7-4.2 3-1.6 8.6-4.6 12.5-6.6 6.5-3.4 7.3-3.6 12-2.8 2.8 0.5 6.8 1.1 9 1.3 2.2 0.3 5.4 0.7 7 1 1.6 0.4 5 0.8 7.5 1.1 2.5 0.2 7.4 0.8 11 1.4 3.6 0.5 14.6 1.5 24.5 2.2 11.5 0.8 36.1 1.3 68 1.2 32.4-0.1 51.9-0.5 55.5-1.2 3-0.7 9.5-1.4 14.5-1.7 5-0.2 11.9-0.9 15.5-1.3 3.6-0.5 6.8-0.8 7.3-0.6 0.4 0.2 2.4 0 4.5-0.5 2-0.6 6-1.2 8.7-1.6 2.8-0.3 7.3-0.9 10-1.4 2.8-0.5 7.7-1.4 11-2 3.3-0.5 12.3-2.6 20-4.6 7.7-1.9 14.9-3.7 16-4 1.1-0.2 3.6-0.9 5.5-1.4 1.9-0.5 7.1-2.2 11.5-3.9 4.4-1.6 10.9-4.3 14.5-5.9 3.6-1.6 9.1-4.8 12.3-7.1 3.1-2.3 6.8-6.1 8.2-8.4 1.7-3.1 2.5-5.8 2.5-9.5 0-4.5-0.5-6-3.2-9.5-2.1-2.7-6-5.6-10.8-8.2-4.1-2.2-10.4-5.1-14-6.4-3.6-1.3-8.3-2.8-10.5-3.4-2.2-0.5-4.5-1.2-5-1.6-0.5-0.4-1.5-0.7-2-0.7-0.5 0-4.6-0.9-9-1.9-4.4-1-7.8-2.3-8.5-3.2-1-1.2-0.6-2.4 0.2-3.8 1.1-1.8 4.3-6.2 6.8-8.8zm-213.5 8c0.4-0.4 21.7-0.7 47.4-0.6 25.6 0 47.1 0.4 47.6 0.8 0.5 0.5 5.5 1.1 11 1.4 5.5 0.3 15.2 1 21.5 1.5 6.3 0.6 15.1 1.5 19.5 2.1 4.4 0.6 12 1.4 17 1.8 6.4 0.5 20.3 4.9 20.7 5.5 0.5 0.5-2.8 5.3-4.8 10.7-1.9 5.2-4.1 10.2-5 11-1.3 1.3-3 1.3-15.7-0.3-7.8-1-19.2-2.2-25.2-2.8-6-0.5-19.1-1.4-29-1.9-9.9-0.5-22.3-1.2-27.5-1.6-6.8-0.5-26.8-0.3-46.5 0-15.9 0.3-37.3 0.9-47.5 1.5-10.2 0.5-20 1-21.7 1-2.1 0.1-6 2.7-15.8 2.8-7.1 0.1-13.9 0.5-15 0.8-1.1 0.3-6.3 1-11.5 1.6-5.2 0.5-12 1.2-15 1.4-3 0.3-6.6 0.8-8 1.2-1.4 0.3-3.9 0.7-5.5 0.9-1.6 0.2-7.6 2.4-10.9 2.4-4.3-0.1-15.3 3-19.1 5-3.9 2-6.9 3-8.5 2.7-1.4-0.3-4.3 0.1-6.5 0.9-2.2 0.7-5.2 1.4-6.7 1.4-1.6 0-7.2-1.9-7.8-3.5-0.6-1.5-5.5-3.5-5.2-6.5 0.2-1.9 1.1-4.3 2-5.3 1-1.1 3.3-2.5 5.2-3.3 1.9-0.9 4.5-2.4 5.8-3.5 1.2-1 6.3-1.7 9-2.8 2.6-1 18.5-6.4 20.7-7.1 2.2-0.6 5.3-1.5 6.9-1.8 1.5-0.4 3-1 3.2-1.4 0.2-0.5 1.7-0.8 3.2-0.8 1.6 0 3.2-0.3 3.6-0.7 0.4-0.5 2.6-0.9 4.9-1.1 2.3-0.1 4.6-0.7 5.1-1.2 0.6-0.6 2.5-1 4.3-1 1.8 0 6.6-0.7 10.6-1.5 3.9-0.9 10.1-2 13.7-2.6 3.6-0.6 10.1-1.4 14.5-1.9 4.4-0.6 13.4-1.5 20-2.1 6.6-0.6 18.4-1.4 26.2-1.7 7.8-0.4 14.5-1 14.8-1.4zm193.6 19.5c1.4-1.5 2.6-4.8 6.6-4.2 2.6 0.4 6.8 1.2 9.2 1.7 2.4 0.6 5 0.8 5.7 0.6 0.8-0.2 3.3 1.6 4.4 1.6 1.1 0 2.8 0.4 3.8 0.9 0.9 0.5 11 3.1 12.7 2.9 2-0.2 8.1 4.1 9.5 4.1 1.4 0 3.4 1 4.5 2.1 1.1 1.1 2.5 2 3 2 0.5-0.1 1.6 0.6 2.3 1.5 0.6 0.8 1.8 1.4 2.5 1.3 0.8-0.2 1.3 1.7 1.5 6.5 0.2 5.4-0.1 6.9-1.5 7.9-1 0.7-9.1 2.8-11.3 2.8-2.2 0-4.2-0.4-4.5-1-0.3-0.5-2.4-1-4.7-1-2.6 0.1-4.9-0.5-5.8-1.5-0.8-0.8-3.3-1.8-5.5-2.1-2.2-0.3-5.3-0.9-7-1.4-1.6-0.5-5-1.1-7.5-1.4-2.5-0.2-5.2-0.6-6-0.9-0.8-0.3-3.1-0.8-5-1.2-1.9-0.3-5.5-0.9-8-1.3-2.5-0.4-5.1-1.1-5.7-1.5-0.9-0.5 5.9-17.4 6.8-18.4zm-188.6 19.4c7.7-0.2 32.2-0.2 54.5 0 22.3 0.2 41 0.8 41.5 1.2 0.5 0.5 7.3 0.9 15 1 7.7 0 19.6 1.8 24 1.8 5.6 0 9.2 0.5 12 1.8 3.1 1.4 16.3 0.9 17.8 2.3 1 0.9 1.7 2.4 1.7 3.2-0.1 0.8 0.5 2 1.2 2.7 1 0.9 2.1 0.8 4.8-0.4 1.9-0.9 3.8-1.7 4.2-1.7 0.4-0.1 1.3-0.7 2-1.3 0.9-0.8 2.8-1.1 5.8-0.6 2.5 0.3 6.8 2 7.2 1.5 0.4-0.4 8.2 1.3 11.1 1.9 2.8 0.6 5.9 1.3 6.7 1.6 0.8 0.3 2.9 0.7 4.5 1 1.6 0.2 3.8 1.1 4.7 2.1 1 0.9 1.5 2 1.3 2.5-0.3 0.4-2.2 1.2-4.2 1.8-2.1 0.6-4.5 1.8-5.3 2.5-0.8 0.8-2.6 1.6-4 1.8-1.4 0.2-3.2 0.6-4 0.9-0.8 0.3-4 1.3-7 2.1-3 0.9-10 2.5-15.5 3.6-5.5 1.2-15.1 3-21.2 4.1-6.2 1-12 1.7-12.8 1.4-0.8-0.3-2.1-0.1-2.7 0.5-0.7 0.5-4.4 1.1-8.3 1.3-3.9 0.3-7.7 0.8-8.5 1.1-0.8 0.4-5.8 0.8-11 0.9-5.2 0.2-10.1 0.6-10.7 1-0.7 0.4-10.2 1-21 1.3-10.9 0.3-31.7 0.8-46.3 1-14.6 0.3-27.2 0.2-28-0.2-0.8-0.4-9-0.8-18.2-1-9.3-0.2-17.4-0.7-18-1.1-0.7-0.4-2.4-0.6-3.8-0.4-1.4 0.1-9.2-0.5-17.5-1.4-8.2-0.9-15.7-1.9-16.5-2.2-0.8-0.3-3.5-0.7-6-0.9-2.5-0.2-5.2-0.7-6-1-0.8-0.4-3.1-0.9-5-1-1.9-0.2-4.4 0-5.5 0.5-1.1 0.5-5.1 2.4-9 4.2-3.9 1.7-12.6 6.3-19.5 10.2-6.9 3.8-13.5 7.6-14.7 8.3-2 1.2-2.5 1.2-4.1-0.3-0.9-1-3.2-5.6-5.1-10.3-1.8-4.7-4.6-11.5-6.2-15.2-1.8-4.2-4.1-9.2-4.4-9.8-0.3-0.5 0.2-2.3 1-4 1.2-2.4 2.4-3.2 6.3-3.9 2.6-0.5 5-0.7 5.5-0.5 0.4 0.2 1.3 0 2-0.6 0.6-0.5 3-1.1 5.2-1.3 2.2-0.2 4.7-0.7 5.5-1 0.8-0.4 3.3-0.9 5.5-1.1 2.2-0.2 4.7-0.6 5.5-0.9 0.8-0.3 6.5-1.3 12.5-2.1 6.1-0.9 12-1.3 13.3-1.1 1.2 0.3 8.1-1.5 12.2-1.6 4.1-0.2 8-0.6 8.5-1 0.6-0.5 5.5-0.9 11-1 5.5-0.1 10.5-0.6 11-1 0.6-0.5 7.3-1 15-1 7.7-0.1 22.3-2 30-2.2zm357 22c1.6-0.3 8.2-0.4 14.5-0.2 6.3 0.2 13.5 0.6 16 1 2.5 0.4 5 0.9 5.5 1.3 0.5 0.3 1.7 0.7 2.5 0.8 0.8 0 3.4 0.7 5.8 1.5 2.3 0.8 4.2 1.7 4.2 2.2 0 0.4 5 1.9 8 3.4 3 1.5 6.1 3.3 6.8 4 0.6 0.7 5.4 3 5.5 3.8 0.2 0.8 1 1.5 1.8 1.5 0.8-0.1 5.4 4.1 10.3 9.2 4.9 5.1 10.3 11.8 12 14.8 1.7 3 4.1 7.8 5.3 10.5 1.1 2.8 2.9 8.2 3.8 12 0.9 3.9 2.1 9.3 2.7 12 0.6 2.9 0.8 11.5 0.5 20.5-0.3 8.5-1.1 18.2-1.8 21.5-0.6 3.3-2.9 9.1-2.9 10.5 0 1.4-1 5.7-2.1 9.5-1.2 3.9-3 9-4.1 11.5-1 2.5-4.3 9.5-7.3 15.5-3 6.1-8.9 16.2-13.1 22.5-4.2 6.3-12.4 17-13.6 18.3-1.3 1.3-3.7 4-8.3 9.9l-6-6.4c-3.3-3.5-7.5-8-9.2-10.1-1.8-2-3.3-3.9-3.3-4.2 0-0.3-0.9-1.5-2-2.7-1.1-1.3-3.1-3.6-4.5-5.3-1.4-1.6-2.5-3.6-2.5-4.2 0-0.7 1.5-3 3.3-5 1.7-2.1 4.2-4.9 5.5-6.3 1.2-1.4 2.2-2.8 2.2-3.2 0-0.5 0.6-1.4 1.3-2 0.8-0.7 4.2-6 7.7-11.8 3.5-5.8 7.9-14.3 9.8-19 1.9-4.7 3.9-10.1 4.4-12 0.5-1.9 1.2-5.3 1.5-7.5 0.3-2.2 0.9-4.7 1.3-5.5 0.4-0.8 0.6-6.2 0.5-12-0.1-5.8-1-13.6-1.9-17.5-0.9-3.8-2.8-9.4-4.4-12.4-1.5-3-5.2-8-8.2-11.1-3.1-3.2-8.1-7-11.5-8.7-3.3-1.7-8.9-3.6-12.5-4.2-3.6-0.7-8.7-0.9-11.5-0.6-2.7 0.3-6.1 0.7-7.5 0.8-2.3 0.2-2.5-0.2-3.2-6.3-0.4-3.6-1-8.3-1.3-10.5-0.3-2.2-0.9-6.7-1.4-10-0.5-3.3-1.4-7.6-1.9-9.5-0.6-1.9-2-7.7-1-8.7 0.7-0.6 2.7-1.3 4.3-1.6zm-21 4.8c1.6-0.7 3.3-1.3 3.8-1.4 0.4 0 1 0.7 1.4 1.7 0.3 0.9 0.8 2.2 0.9 2.7 0.2 0.6 1 4.4 1.8 8.5 0.9 4.1 2 10.4 2.5 14 0.6 3.6 1.4 9.7 2.4 20.5l-8.9 4.6c-4.9 2.6-10.5 5.7-12.4 7-2 1.3-6.6 4.9-10.3 7.9-3.7 3-7 5.3-7.2 5-0.3-0.3-0.7-1.6-0.9-3-0.3-1.4 0.2-14.4 1-29 0.8-14.6 1.8-26.8 2.2-27.2 0.4-0.3 3.6-2.1 7.2-4 3.6-1.9 8.1-4 10-4.8 1.9-0.7 4.9-1.9 6.5-2.5zm26.1 53.6c1-0.6 5.5-1.1 9.9-1.1 7.1 0 8.7 0.3 14.5 3.2 3.6 1.8 8.3 5.2 10.5 7.6 2.2 2.4 4.9 6.3 6.1 8.6 1.1 2.2 2.5 6.2 3.2 8.9 0.7 2.6 1.2 9 1.2 14.2 0 5.2-0.5 11.9-1.1 14.8-0.6 2.8-2 7.9-3.1 11.2-1.1 3.3-3.7 9.6-5.7 14-2.1 4.4-5.7 10.9-8.1 14.5-2.4 3.6-6.2 8.8-8.4 11.7-2.3 2.8-4.7 5.4-5.3 5.7-0.8 0.4-1.9-0.8-2.9-3.1-0.8-2.1-2.6-7.6-4-12.3-1.4-4.7-3.4-13.7-4.5-20-1.1-6.3-2.4-18.7-2.9-27.5-0.5-8.8-1-23.5-1.1-32.7-0.2-15.6-0.1-16.8 1.7-17.7zm-20.6 9.1c3-1.7 5.8-3.2 6.1-3.2 0.4 0 1 10.7 1.3 23.8 0.4 13 1.1 28.4 1.6 34.2 0.6 5.8 1.5 13.7 2.1 17.5 0.6 3.9 2.2 11.5 3.6 17 1.4 5.5 4 13.7 9.3 26.5l-2.2 2.8c-1.2 1.5-6.1 5.9-10.8 9.9-4.7 3.9-11 9.1-14 11.5-3 2.4-8.4 6.6-12 9.4-3.6 2.8-7.4 5.5-8.5 6.1-1.1 0.6-2.7 1.7-3.5 2.4-0.8 0.8-3.3 2.6-5.5 4-2.2 1.5-6.5 4.3-9.5 6.2-3 2-6.1 3.7-6.7 3.7-0.9 0-1.1-1-0.8-2.7 0.2-1.6 1.6-11.1 2.9-21.3 1.4-10.2 3-22.1 3.6-26.5 0.6-4.4 1.9-15.9 2.9-25.5 1.1-9.6 2.4-23.3 3-30.5 0.6-7.1 1.6-18.4 3.4-37l7.6-8c4.2-4.4 10.5-10 14.1-12.5 3.6-2.5 9-6 12-7.8zm-659 88.6c4.1-0.2 14.6-0.5 39-0.8v23l-3.2 0.6c-1.8 0.4-3.9 1.1-4.6 1.8-0.7 0.6-1.3 0.8-1.2 0.4 0-0.5-1.5 0.2-3.2 1.4-1.8 1.2-4.6 3.6-9.3 8.6l-2.7-3.4c-1.6-1.9-5.6-4.7-9-6.4-3.5-1.6-6.7-3-7.3-3-0.5 0-1.6-2.8-2.4-6.2-0.7-3.5-2.2-8.1-3.3-10.3-1.1-2.2-1.6-4.3-1.1-4.7 0.4-0.4 4.2-0.9 8.3-1zm-17.3 34.5c1.2-0.4 5.5-0.8 9.5-0.8 6.4 0.1 7.8 0.4 11.6 3 2.3 1.7 4.8 4.4 5.4 6 0.8 2.1 0.9 6.6 0.4 15-0.5 6.6-1.1 23.4-2.1 62.7l-14.3 0.1c-8.7 0.1-14.6-0.2-15-0.8-0.3-0.5-0.7-6.8-0.9-14-0.1-7.1-0.7-18.4-1.2-25-0.5-6.6-1.3-13.3-1.8-15-0.5-1.6-0.8-7-0.7-12 0.1-5.7 0.7-10.1 1.7-12 0.8-1.6 2.3-3.8 3.3-4.7 1.1-0.9 2.9-2 4.1-2.5zm52.8 0.3c2.2-0.8 6-1.3 8.5-1.1 2.5 0.1 5.1 0.3 5.8 0.4 0.6 0 2.8 1.6 4.9 3.4 2 1.7 4.2 4.6 4.8 6.2 0.8 2 1.1 6.9 0.9 14.3-0.2 6.1-0.6 11.5-0.8 12-0.2 0.4-0.7 12.2-1 26.2-0.6 22.3-0.8 25.7-2.4 27.3-0.9 1-2.1 1.6-2.6 1.5-0.5-0.2-3.9 2.5-7.5 5.9-3.6 3.4-6.7 5.8-6.8 5.2-0.2-0.5-0.7-0.7-1.3-0.4-0.5 0.3-3.2-1.7-6-4.5-4-4-4.9-5.5-4.4-7.2 0.4-1.3 0.2-3.2-0.4-4.3-0.7-1.2-1.3-13.1-1.7-29.5-0.3-15.1-0.8-30.4-1.1-34-0.3-3.6-0.2-7.2 0.2-8 0.4-0.8 0.8-2.6 1-4 0.2-1.4 1.6-3.7 3.1-5.3 1.6-1.5 4.6-3.3 6.8-4.1zm653.3 3.2c0.2-0.4 1.2-0.3 2.3 0.2 1 0.6 2.4 2 3.1 3.3 0.6 1.2 3.4 4.9 6.2 8.2 2.7 3.3 8 9 18.1 19.4l-2 2.2c-1.1 1.2-6.5 6.1-12 10.8-5.5 4.7-14.3 11.8-19.5 15.7-5.2 4-15.8 11.3-37.5 25.6l-5-3.2c-2.7-1.8-7.5-4.6-10.5-6.3-3-1.6-9.9-5.2-15.2-7.9-5.4-2.6-10-5.1-10.3-5.5-0.2-0.5 0.3-1.5 1.3-2.4 0.9-0.9 4.4-3 7.7-4.9 3.3-1.8 10.7-6.4 16.5-10.3 5.8-3.9 14.1-9.7 18.5-13 4.4-3.3 9.6-7.4 11.6-9.1 2-1.7 5.4-4.4 7.5-6.1 2.1-1.6 7.2-5.9 11.4-9.5 4.1-3.6 7.7-6.8 7.8-7.2zm77.9 60.1c6-1.5 11.9-2.7 13.3-2.8 1.6-0.1 5.1 1.8 9.5 5 3.9 2.8 8 6 9.3 7.2 1.5 1.5 2.8 5 4.2 11.2 1.1 5 2.2 9.9 2.5 11 0.2 1.1 4.3 17.4 9 36.3 4.9 19.8 8.2 34.9 7.8 36-0.4 0.9-1.2 2.2-1.7 2.8-0.6 0.6-2.4 1.5-4.1 2.2-1.6 0.6-9.6 2.7-12.7 3.6-3.2 0.9-6.3 0.6-7 1.2-0.7 0.7-13 4.1-27.3 7.7-14.5 3.7-27.5 6.4-29.5 6.2-1.9-0.1-3.7-0.3-4-0.4-0.3 0-1-1.1-1.6-2.3-0.7-1.3-1.9-5.7-2.7-9.8-0.9-4.1-3.4-14.9-5.6-24-2.2-9.1-6-25-8.5-35.5-2.5-10.4-4.7-20.3-4.9-22-0.3-2.1 0.6-5 3-9.7 1.9-3.8 5.1-7.2 4.8-7.8-0.3-0.5 0.5-2 1.8-3.3 1.4-1.5 5.1-2.9 10.5-4.2 6.3-1.5 8.7-1.7 10-0.9 0.9 0.6 2.8 4.7 4.2 9 1.9 6.1 3.1 8.2 5.2 9.4 2.5 1.4 2.8 1.4 5.3-1 1.4-1.4 2.5-3.4 2.5-4.5 0-1.1-0.9-4.7-2-8-1.1-3.3-2-6.9-2-8 0-1.7 1.5-2.4 10.7-4.6zm-785.2 34.6c4.4-0.7 9.6-1.3 11.5-1.4 1.9 0 6.7 0.4 10.5 0.9 3.9 0.4 9.7 1.8 13 3 3.3 1.1 7.3 3.3 8.8 4.8 1.5 1.5 3.9 5 5.3 7.7 1.3 2.8 2.4 6.6 2.4 8.5 0 1.9-0.9 5.4-2 7.8-1.1 2.3-3.2 5-4.7 5.9-2.7 1.6-3.3 1.6-13.3-0.5-6.9-1.5-14-2.2-20.7-2.2-5.7 0-13.6 0.7-17.5 1.5-4 0.8-10.9 3.3-15.3 5.5-7.6 3.8-8.1 3.9-9.8 2.2-0.9-0.9-2.2-3.9-2.8-6.7-0.7-2.7-0.9-6.9-0.5-9.2 0.3-2.4 1.4-6 2.5-8 1-2.1 4.1-5.8 6.7-8.3 2.7-2.4 7.8-5.7 11.4-7.3 3.6-1.7 10.1-3.5 14.5-4.2zm78 2.6c2.5-1.3 6-2 9.5-2 3-0.1 7.3 0.5 9.4 1.2 2.2 0.6 5.8 2.8 8 4.8 2.3 2 5.5 6.2 7.3 9.5 1.7 3.2 3.9 8.8 4.9 12.4 1.4 5.1 1.8 10.1 1.8 23.5-0.1 14.3-0.4 18.3-2.3 25-1.2 4.4-4 11.3-6.1 15.3-2.2 3.9-3.8 7.9-3.5 8.7 0.3 1 1.8 1.5 4 1.5 2.6 0 4.3-0.9 7-3.5 1.9-1.9 4.6-5.7 6-8.5 1.4-2.7 3.3-7.7 4.3-11 0.9-3.3 1.9-6 2.2-6 0.3 0 1.9 2 3.7 4.3 1.7 2.3 3.8 6.7 4.7 9.7 0.9 3 1.6 7.4 1.6 9.8 0 2.3-0.7 7.7-1.6 12-0.8 4.2-3.5 11.8-5.8 16.7-2.4 5-5.6 10.5-7.2 12.4-1.6 1.8-4.7 4.4-6.9 5.6-2.2 1.3-5.6 2.7-7.5 3.1-2.1 0.4-3.3 0.4-3-0.2 0.3-0.5 1.6-3.1 2.9-5.9 1.2-2.7 2.5-7.2 2.8-10 0.4-3.3 0.2-5.3-0.5-5.7-0.7-0.5-1.9-0.2-2.8 0.5-0.9 0.6-3.4 3.7-5.4 6.7-2.1 3-5.5 7.2-7.6 9.3-2.2 2.1-5 4-6.4 4.3-1.4 0.3-2.7 0.3-3-0.1-0.3-0.4-0.8-12.2-1.8-52l6-5.5c3.7-3.4 6.9-7.4 8.3-10.5 1.2-2.7 3-8.3 3.9-12.2 0.9-4 1.6-10.1 1.6-13.5 0-3.5-0.4-7.9-1-9.8-0.5-1.9-1.7-4.3-2.7-5.3-1.2-1.2-2.6-1.6-4-1.3-1.6 0.4-2.6 1.7-3.2 4.4-0.5 2-1.5 8.2-2.1 13.7-0.7 5.5-2 12.3-3.1 15-1 2.8-3.1 6.2-4.6 7.6-1.5 1.5-3.9 3.2-5.3 3.9-1.4 0.7-4.3 1.3-6.5 1.3-2.2 0-5.5-0.8-7.3-1.9-2-1.2-4.2-3.8-5.8-6.9-1.4-2.9-2.7-7.7-3-11.5-0.5-5.1-0.1-8.9 2-17.5 1.4-6 3-14.4 3.4-18.5 0.5-4.1 1.6-9.1 2.5-11 0.9-1.9 3.1-4.9 4.9-6.7 1.8-1.8 5.1-4.1 7.3-5.2zm521.6 32.7c1.2-2.7 2.8-4.8 3.6-4.8 0.7 0 5.5 1.6 10.6 3.6 5 1.9 11.5 4.7 14.2 6.2 2.8 1.5 5.2 2.9 5.5 3.2 0.3 0.3 2.1 1.7 4 3 1.9 1.4 4.6 3.8 6 5.4 1.4 1.6 3 3.8 3.7 5 0.7 1.2 1.3 3.7 1.3 5.6 0 1.9-0.7 4.6-3.5 8.3l-4-2c-2.2-1.1-5.1-2.6-6.5-3.3-1.6-0.7-5-1-9-0.7-3.6 0.2-8.5 1.3-11 2.4-2.5 1.1-6.5 3.8-9 6-4.2 3.8-5 4.2-12 4.7-4.1 0.4-11.1 1.8-15.5 3.1-4.4 1.4-8.1 2.5-8.2 2.5-0.2 0 1.2-2.1 3.1-4.7 1.9-2.7 5.2-7.5 7.3-10.8 2.2-3.3 6.9-10.9 10.6-17 3.6-6 7.5-13.1 8.8-15.7zm-597.6 11.8c1.1-0.2 5.2-0.4 9-0.5 3.9-0.1 10.8 0.6 15.5 1.5 4.7 0.9 10.2 2.5 12.3 3.5 2 1 4.4 2.9 5.2 4.2 0.8 1.2 1.9 5.7 2.5 10 0.5 4.2 2.1 10.3 3.5 13.5 1.4 3.1 2.5 6.3 2.5 7 0 0.7-0.8 1-2.2 0.7-1.3-0.4-7.5-1.9-13.8-3.6-8-2-13.9-2.9-19.2-2.9-4.3 0-11.3 0.7-15.5 1.6-4.3 0.9-9.6 2.3-11.8 3.2-2.2 0.8-6.9 3.5-10.5 5.8-3.6 2.4-7.2 4.4-8 4.4-0.8 0-2.3-0.7-3.2-1.7-1-1-2.4-3.6-3.2-5.8-0.9-2.2-1.5-6.5-1.6-9.5 0-3 0.5-7.2 1-9.2 0.6-2.2 2.8-5.6 5.3-8.1 2.4-2.5 7.4-5.9 11.7-7.9 4.1-2 10-4.1 13-4.7 3-0.6 6.4-1.3 7.5-1.5zm618.6 29.1c1.3-0.3 4.2-0.3 6.4-0.1 2.2 0.3 4.6 1 5.3 1.7 1.1 1 0.9 2-1.4 5.7-1.7 2.8-2.9 6.4-3.2 9.5-0.3 2.9 0.2 7.4 1.2 10.8 1.2 4.4 2.9 7.1 7.4 12 4.2 4.3 7.8 7.1 12.3 9.2 5.7 2.6 7.5 2.9 16.4 2.9 7.4 0.1 10.8-0.4 13-1.5 1.7-0.9 3.7-2.4 4.5-3.3 1.4-1.5 1.6-1.5 3.3 0.1 1.1 1.1 1.8 3.2 1.7 5.6 0 2.6-0.9 4.9-3.2 7.9-1.8 2.3-5.3 5.2-7.8 6.4-2.5 1.3-7.2 2.6-10.5 3-3.5 0.4-8.9 0.2-13-0.6-3.8-0.6-9.2-2.3-12-3.7-2.7-1.5-7.7-4.6-11-7-3.3-2.4-7-4.3-8.2-4.3-1.3 0-2.7 0.8-3.3 1.8-0.7 1.3-0.2 2.9 2 6.5 1.7 2.6 5.4 6.6 8.3 8.8 2.8 2.3 6.3 4.7 7.7 5.4 1.4 0.7 5.4 2.1 9 3 3.6 1 10.6 1.9 24.5 2.3l-0.4 3.8c-0.2 2.2-1.2 5.8-2.2 8.2-1 2.3-3.8 6.3-6.1 8.8-2.4 2.6-6 5.7-8 7-2.1 1.3-6.6 3.3-10 4.4-3.5 1.2-10.3 2.4-15.2 2.8-6.9 0.5-9.1 1.1-10 2.5-0.8 1.2-0.8 2.2 0 3.5 0.6 0.9 2.5 2.2 4.2 2.7 1.8 0.6 3.2 1.7 3.2 2.5 0 0.8 0.6 2.4 1.4 3.5 1.4 2 1.4 2 5.2-0.7 2.2-1.5 7.8-3.7 21.4-7.3l-0.6 2.5c-0.3 1.4-2.1 4.9-4 7.8-2 3-5.4 6.5-8.1 8.2-2.7 1.7-7.3 3.8-10.3 4.7-4.1 1.1-8.4 1.4-17 1.1-9-0.4-12.8-1-17.5-2.8-3.3-1.3-7.8-4-10-6.1-2.2-2-5.2-5.8-6.7-8.5-1.5-2.7-3.6-8.5-4.8-12.9-1.1-4.4-2-9.7-2-11.7 0-2.1-0.4-4-1-4.3-0.5-0.3-1.7-0.2-2.5 0.3-0.9 0.4-1.8 1.4-2.1 2.2-0.3 0.8-0.9 4.2-1.4 7.5-0.4 3.4-0.4 8.2 0.1 11 0.5 2.8 0.6 5.1 0.4 5.3-0.3 0.1-2-0.5-3.7-1.4-1.8-0.9-4.6-2.8-6.1-4.3-1.6-1.4-3.7-4.2-4.7-6.1-1-1.9-2.3-6-2.9-9-0.7-3-1.1-10.6-0.9-16.9 0.2-8.5 0-11.5-0.9-11.7-0.7-0.2-1.9 0.2-2.6 0.9-0.7 0.6-2.3 4.2-3.5 8-1.2 3.7-2.6 6.7-3.2 6.7-0.5 0-1.4-2.8-2-6.2-0.5-3.5-1-8.7-1-11.5 0-2.9 0.7-8.8 1.5-13 0.8-4.3 3-10.9 4.9-14.8 1.9-3.8 5.6-9.4 8.3-12.4 2.6-3 7.5-7.3 10.8-9.7 3.3-2.3 8.9-5.6 12.5-7.3 3.6-1.7 9.2-3.7 12.5-4.6 3.3-0.8 7.2-1.5 8.8-1.5 2.6 0 2.7 0.2 2.7 5.3 0.1 2.8 0.9 7.5 1.8 10.2 1.4 4 2.2 5.1 4.2 5.3 1.6 0.2 3-0.3 3.8-1.5 0.7-1 1.2-4.9 1.2-9.3 0-4.1 0.6-9.3 1.3-11.4 0.7-2.3 3-5.5 5.3-7.7 2.3-2.1 5.2-4 6.5-4.2zm-449.6 4.6c1.1-0.7 2.5-1.3 3-1.3 0.6 0 6.2 5.1 12.5 11.3 6.3 6.2 13.2 12.6 15.3 14.2 2.1 1.7 3.8 3.3 3.7 3.8 0 0.4-0.6 1.3-1.2 2-0.7 0.7-4.8 3.6-9 6.5-4.3 2.9-8 5.2-8.3 5.2-0.3 0-2.9 1.2-5.7 2.6-2.9 1.4-5.4 2.5-5.5 2.5-0.2-0.1-2.7 0.6-5.5 1.4-2.9 0.7-8.7 1.7-12.8 2-4.1 0.3-8.7 0.3-10.2 0-1.8-0.3-2.8-1.1-2.8-2.2 0-1 0.6-2.7 1.3-3.8 0.8-1.1 1.7-3.3 2.1-5 0.4-1.6 1.1-4.8 1.7-7 0.5-2.2 1.4-8 2.8-21.8l8.3-4.6c4.6-2.5 9.2-5.1 10.3-5.8zm-110.6 13c1.9-2.8 2.6-3.2 4.9-2.6 1.5 0.3 4.5 1.2 10.7 3l0.3 23.9c0.2 13.2 0.3 31 0.2 39.7 0 9.5 0.4 15.9 1 16.2 0.6 0.3 1 2.6 1 5.3 0 2.6-0.3 5.1-0.7 5.5-0.4 0.5-0.8 1.4-0.9 2-0.1 0.7-0.8 2.3-1.7 3.7-0.8 1.4-3.2 3.4-5.4 4.4-2.9 1.4-5.3 1.8-10.3 1.4-5.3-0.3-7.2-0.9-10.5-3.5-2.9-2.2-4.5-4.5-5.9-8.4-1.5-4.4-2-9.1-2.3-24.9-0.3-15.1-0.1-19.8 0.9-20.8 0.7-0.8 3.6-2.6 6.3-4.2 2.8-1.5 6.3-4 7.8-5.6 1.5-1.6 3.4-4.2 4.2-5.9 0.8-1.6 1.7-5 2.1-7.5 0.5-3.4 0.1-6.2-3.9-18.5zm-56.4 0.4c1.1-0.3 7.9-0.4 15-0.2 8.9 0.2 14.8 0.9 18.5 2 3.4 1.1 6.9 3.2 9.1 5.4 2.7 2.7 3.9 4.9 4.4 8.2 0.5 3.1 0.3 5.3-0.7 7.5-0.8 1.6-3.3 4.4-5.4 6.2-2.1 1.8-6.8 4.2-10.4 5.3-5.5 1.8-8.8 2-21.5 1.9-8.6-0.2-16.7 0.2-19 0.8-2.2 0.6-5.1 2.2-6.5 3.5-1.4 1.2-3 3.1-3.5 4.1-0.8 1.4-1.7 1.7-3.7 1.3-2.1-0.5-3.4-1.9-5-5.4-1.7-3.6-2.3-6.6-2.3-12.4 0-6.5 0.4-8.1 2.5-11.1 1.4-2 5.2-5.7 8.5-8.2 3.5-2.7 8.5-5.4 12-6.5 3.3-1.1 6.9-2.1 8-2.4zm-8.8 49.2c1.5-1 5.9-1.3 15.9-1.2 7.7 0.1 14.5 0.2 15.2 0.3 0.9 0 1.2 3.7 1.2 14.8 0 8.1-0.5 17.5-1 20.8-0.6 3.3-1.9 7.9-2.8 10.4-1.4 3.6-2.5 4.8-5.9 6.2-3.1 1.4-5.6 1.7-9 1.2-2.7-0.3-5.7-0.7-6.8-0.9-1.1-0.2-3.5-2.1-8.5-7.9l-0.2-21.2c-0.1-20.2 0-21.3 1.9-22.5zm289.2 17.4c4.7-4.5 8.8-8.2 9.1-8.2 0.3 0 3.9 0.8 8 1.9 4.1 1 12.5 2.8 18.5 3.9 6.1 1.1 15.7 2.6 21.5 3.3 6.6 0.8 20.9 1.2 38 1.2 15.4-0.1 33-0.7 52.4-2.8l4.1 3.3c2.2 1.8 6.5 5.6 9.5 8.5 3 2.9 7.3 7.5 9.5 10.2 2.3 2.7 5.2 6.8 6.6 9 1.4 2.2 3.6 6.1 4.8 8.7 1.1 2.6 2.1 5 2.1 5.3 0 0.2 0.6 2.1 1.4 4.2 0.7 2.1 2.1 8.3 3 13.8 0.9 5.5 1.8 11.1 2.1 12.5 0.4 2.2-0.3 2.8-6.3 5.6-3.7 1.8-8.7 5-11.2 7.1-2.5 2.3-5.7 6.4-7.2 9.6-1.9 3.9-2.8 7.2-2.8 10.7 0 2.7 0.6 7 2.5 13.9l-4.1 4.3c-2.3 2.3-5.4 6.5-6.8 9.3-1.4 2.7-3.1 6.9-5.1 13.6l-17.5-0.3c-9.6-0.2-38.5-0.2-111 0.2v-3c0-1.7-1.2-5.9-2.8-9.3-1.6-3.7-4.6-8.1-12-15.2l2-6c1.5-4.5 1.9-7.4 1.4-11.5-0.3-3.1-1.6-7.3-3-9.5-1.3-2.2-4.1-5.6-6.2-7.5-2.1-1.9-6.7-4.7-10.1-6.2-3.5-1.6-9.2-3.4-19.3-5.3v-8.3c0-4.5 0.5-11.5 1.1-15.5 0.6-4 1.7-9.9 2.6-13.2 0.8-3.3 3.1-9.3 5.2-13.4 2-4 5.4-9.4 7.5-12 2.2-2.5 7.8-8.4 12.5-12.9zm244.6 87.4c0.5-0.3 2-0.6 3.4-0.6 1.4 0 4.9 1 7.6 2.3 2.8 1.3 6.9 4.4 9.3 7 3.5 3.9 4.2 5.3 4.2 8.7 0 2.2-0.6 5.2-1.4 6.7-0.7 1.5-3.3 4.5-5.7 6.7-2.4 2.2-7.1 5.1-10.4 6.6-3.3 1.5-9.1 3.5-12.9 4.6-3.7 1-7.2 2.4-7.7 3.1-0.5 0.7-0.8 2-0.6 2.9 0.1 0.9 1.6 2.1 3.2 2.7 2.2 0.7 5.3 0.5 11.3-0.7 4.5-0.9 10.8-2.7 14-4.1 3.1-1.3 9.1-3.8 13.2-5.5 4.1-1.7 10.9-4 15-5.1 4.1-1 13.1-2.6 20-3.5 8.1-1.1 15.5-1.5 21-1.1 4.7 0.4 11.9 1.6 16 2.7 4.1 1.2 10.2 3.5 13.4 5.3 3.2 1.7 7.8 5.3 10.2 7.9 2.4 2.6 5.5 7.1 6.9 10 1.4 2.9 2.8 7.5 3.1 10.3 0.4 2.9 0.2 7-0.5 10-0.7 2.7-2.1 6.1-3 7.5-1 1.3-4.2 4.1-7.2 6.1-3 2-7.9 4.6-10.9 5.7-3 1.1-9.1 3-13.5 4.1-4.4 1.1-13.6 2.7-20.5 3.6-9.7 1.3-17.7 1.6-35.5 1.2-14.1-0.3-27.8-1.2-35.5-2.3-6.9-1-13.3-1.5-14.2-1.1-1 0.4-1.8 1.6-1.8 2.7 0 1.5 1.3 2.4 5.5 4 3 1.1 9.9 2.8 15.3 3.9 5.3 1.1 15.3 2.5 22.2 3.1 7.9 0.8 17.9 0.9 27 0.5 8-0.4 18.8-1.4 24-2.1 5.2-0.8 14-2.6 19.5-4 5.5-1.4 12-3.5 14.5-4.6 2.5-1 7.5-3.7 11.3-5.9 3.7-2.2 7.4-3.7 8.2-3.4 0.8 0.2 2.2 1.9 3 3.7 1 2.3 1.2 4.2 0.5 6.8-0.5 2-2.5 5-4.9 7.2-2.3 2.1-6.2 4.8-8.8 6.1-2.7 1.4-8.4 3.6-12.8 5.1-4.4 1.4-13.2 3.6-19.5 4.8-10.2 2-14.5 2.2-38.5 2.2-24.9-0.1-28-0.3-40.5-2.7-7.4-1.5-17.5-4.1-22.5-5.8-4.9-1.7-10.1-3.8-11.5-4.5-2.2-1.2-2.9-1.1-6.5 1.3-3.8 2.5-4.4 2.5-13 1.9-4.9-0.3-13-1.7-18-3-4.9-1.4-11.7-3.5-15-4.7-3.3-1.3-7.4-3.7-9.2-5.4-1.9-1.8-3.4-4.4-3.8-6.5-0.3-2-0.1-4.2 0.4-5 0.8-1.3 2.2-1 9.3 2.1 4.6 2.1 11 4.4 14.3 5.3 3.3 0.9 7.1 1.6 8.5 1.6 1.4 0 3.2-0.7 4-1.5 0.8-0.9 1.3-1.8 1-2-0.3-0.2-3.9-1.8-8-3.5-4.1-1.7-9.5-4.3-12-5.8-2.5-1.4-6.5-4.5-8.9-6.7-2.4-2.2-5.2-5.8-6.3-8-1.1-2.2-2.2-6.1-2.5-8.5-0.3-2.5 0-7 0.7-10 0.7-3.1 1.9-6.9 2.8-8.5 0.8-1.7 2.5-4.2 6.2-8l6.3 3.1c3.4 1.7 8.2 3.4 10.7 3.8 2.8 0.5 5.3 0.4 6.8-0.3 1.4-0.8 2.1-1.9 2-3.3-0.2-1.5-2.5-3.5-7.3-6.5-3.8-2.3-8.5-5.8-10.2-7.8-1.8-1.9-3.8-5.2-4.4-7.3-0.6-2.1-0.9-5.4-0.5-7.5 0.4-2.4 2-5.3 4.5-8 2.1-2.3 5.7-5.1 8-6.2 2.2-1.1 4.4-1.7 4.9-1.2 0.4 0.5 0.9 3.9 1.2 7.6 0.4 5 1.1 7.4 2.5 9 1.1 1.2 4.3 2.9 7 3.8 3.4 1.2 8.2 1.7 15 1.7 6.7 0 11.7-0.5 15-1.7 3-1 6.3-3 8.3-5.2 3-3.3 3.2-4 3-10.4 0-3.7 0.3-7.1 0.7-7.5zm-272 0.9c0.4-0.3 2.1-0.2 3.8 0.1 1.8 0.4 5.7 1.6 8.7 2.7 3 1.1 7 3.4 8.8 5.1 1.8 1.7 3.8 4.4 4.3 6.1 0.7 2 0.7 4.3 0 7.2-0.7 2.7-2.4 5.6-4.8 7.9-2.1 1.9-5.8 4.7-8.3 6.1-2.5 1.4-5.3 3.3-6.3 4.2-1 0.8-1.7 2.3-1.7 3.3 0 1 0.8 2.5 1.8 3.4 1.2 1.1 2.7 1.4 5.5 1 2-0.4 6-1.8 13.7-5.6l2.8 2.2c1.5 1.2 3.3 2.9 4 3.7 0.7 0.9 2.2 3.4 3.2 5.6 1.4 2.8 2 6.1 2 11.7 0 5.2-0.6 9.5-1.9 13-1.2 3.3-3.7 7.1-6.8 10.1-2.6 2.7-6.6 5.8-8.8 6.9-2.2 1.2-8 3.5-13 5.2-7.3 2.5-9 3.4-9 5.1 0 1.5 0.8 2 3.5 2.2 1.9 0.2 7.1-0.6 11.5-1.7 4.4-1.1 11.3-3.6 15.3-5.6 3.9-1.9 7.9-3.4 8.7-3.4 0.8 0 2 0.9 2.5 2 0.6 1.1 1 3.5 1 5.5 0 2.7-0.7 4-3.2 6.1-1.8 1.5-6.4 4.2-10.3 6-3.8 1.8-10.6 4-15 4.9-5.3 1.1-16 2-31.5 2.5-18.3 0.5-25.4 1.2-32 2.8-4.7 1.1-13.4 2.8-19.5 3.7-7.5 1.2-17.1 1.7-30.5 1.7-13.4 0-22.8-0.5-30-1.6-5.8-1-15-2.8-20.5-4.2-5.5-1.4-13.4-4-17.5-5.7-4.1-1.8-9.7-5-12.5-7.3-3.4-2.7-5.3-5.2-6-7.7-0.7-2.6-0.7-4.3 0.3-6.2 0.6-1.4 2.2-3 3.5-3.7 1.9-0.9 3.1-0.5 8.2 3 3.3 2.2 9.7 5.4 14.3 7.1 4.5 1.7 13.7 4.2 20.5 5.5 6.7 1.4 17.6 3 24.2 3.7 6.8 0.6 17.2 0.9 24 0.5 6.6-0.3 16.3-1.3 21.5-2.2 5.2-0.9 12.4-2.6 16-3.8 4.8-1.6 6.6-2.7 6.8-4.1 0.2-1.1 0-2.4-0.5-2.8-0.4-0.5-6.9-0.1-14.3 0.7-7.5 0.9-21.9 1.5-32.5 1.5-11.4 0-23.2-0.6-29.5-1.5-5.8-0.8-14.8-2.6-20-4.1-5.2-1.4-12.4-4-16-5.9-3.6-1.8-7.9-4.8-9.7-6.6-1.9-2.1-3.6-5.3-4.4-8.3-0.6-2.8-1-7.7-0.7-11 0.3-4.1 1.4-7.8 3.4-11.4 1.6-3 5.4-7.7 8.4-10.4 3-2.7 8.7-6.4 12.5-8.3 3.9-1.8 10.2-4.1 14-5.1 5.1-1.3 10.6-1.8 20-1.8 8.5 0 16 0.6 21.5 1.8 4.7 0.9 10.8 2.4 13.5 3.3 2.8 0.9 10.2 3.9 16.5 6.6 6.3 2.8 13.8 5.7 16.5 6.4 2.8 0.7 8.2 1.3 12 1.4 4.6 0 7.7-0.5 9-1.5 1.6-1.1 1.8-1.8 0.9-3.2-0.7-1.2-4.2-2.6-10-4-4.9-1.1-11.4-3.3-14.4-4.9-3-1.5-6.8-3.8-8.5-5.2-1.6-1.4-3.8-3.7-4.7-5.1-1-1.5-1.8-4.3-1.8-6.4 0-2.1 0.6-5 1.4-6.5 0.8-1.5 2.7-3.9 4.3-5.4 1.5-1.4 4.3-3.3 6.1-4.2 1.7-0.9 3.5-1.7 4-1.7 0.4 0 1 2.8 1.5 6.3 0.4 3.4 1.5 7.4 2.6 8.8 1 1.3 3.8 3.5 6.2 4.9 2.9 1.5 6.8 2.6 11.4 3 3.9 0.3 9.7 0.3 13 0 3.3-0.3 8.6-1.8 11.8-3.3 4.4-2 5.9-3.3 6.4-5.4 0.3-1.5 0.1-5.6-0.6-9-0.7-3.5-0.9-6.5-0.6-6.7zm195-459.1c-3.3 0.7-9.1 2.5-13 4-3.8 1.4-7.4 2.8-8 2.9-0.5 0.2-2.8 1.1-5 2.2-2.2 1-8 3.8-13 6.2-4.9 2.5-14.6 8-21.5 12.2-6.9 4.3-15.6 9.6-19.5 11.9-3.8 2.3-7.9 4.8-9 5.7-1.1 0.8-5 2.4-8.7 3.5-5.6 1.6-7.2 1.7-9.1 0.7-1.2-0.7-3.2-2.1-4.4-3.2-1.1-1.1-2.8-3.7-3.7-5.8-1.3-3.1-2-3.7-4.3-3.5-2.2 0.2-2.9 1.1-4.5 5.8-1.5 4.2-1.8 7-1.4 12.2 0.4 3.7 1.4 8.4 2.4 10.5 0.9 2 3.3 4.7 5.2 6 1.9 1.3 5.1 2.8 7 3.3 2 0.5 6 0.5 9.5 0 3.3-0.4 9.2-2.1 13-3.6 3.9-1.5 9.5-4 12.5-5.4 3-1.5 7.3-3.7 9.5-5 2.2-1.2 6-3.4 8.5-4.8 2.5-1.4 8.8-5.1 14-8.3 5.2-3.1 12-7 15-8.5 3-1.6 6-3.5 6.7-4.2 0.7-0.7 3-1.7 5.1-2.2 2-0.5 4.4-1.6 5.2-2.5 0.8-0.9 2.1-1.6 2.8-1.6 0.6 0 3.6-1 6.5-2.3 2.8-1.3 6.1-2.7 7.2-3 1.1-0.3 3.8-0.9 6-1.2 2.2-0.4 6.9-0.9 10.5-1.1 3.6-0.3 9.2 0 12.5 0.6 3.3 0.6 8.9 2.5 12.5 4.2 3.6 1.8 8.3 4.7 10.5 6.5 2.2 1.8 4.6 3.3 5.3 3.3 0.7 0 1.2-1.2 1.2-2.9 0-1.7-1-4.9-2.2-7.2-1.3-2.3-2.7-4.9-3.3-5.7-0.5-0.8-3.7-4.3-7-7.7-3.3-3.3-8-7.2-10.5-8.4-2.5-1.3-7-2.9-10-3.7-3-0.7-9.8-1.2-15-1.2-5.2 0.1-12.2 0.7-15.5 1.3zm-243.5 10.6c-5 3.1-7.5 5.5-10.7 10.5-2.4 3.5-4.3 7.1-4.3 8 0 0.8-0.3 1.6-0.7 1.9-0.5 0.2-0.9 2.9-1 6-0.2 3-0.1 5.6 0.2 5.6 0.3 0 3-2.3 6-5 3-2.8 6.4-5 7.5-5 1.1 0 2.3-0.6 2.8-1.2 0.5-0.7 2.9-0.9 7.2-0.6 3.6 0.3 8.1 0.9 10 1.3 1.9 0.4 6.4 2.3 10 4.2 3.6 1.9 10.1 6.2 14.5 9.7 4.4 3.4 8.9 6.9 10 7.8 1.1 0.9 4.9 3.9 8.5 6.8 3.6 2.8 7.9 5.8 9.5 6.7 1.7 0.8 5.3 1.5 8 1.5 4.6 0 5.3-0.4 8.3-3.9 1.8-2.1 3.2-4.5 3.2-5.3 0-0.9 0.7-2.4 1.5-3.5 0.8-1.1 1.2-2.4 1-2.8-0.3-0.4-0.2-1.3 0.2-2 0.4-0.7 0.7-4.2 0.8-7.7 0.1-3.6-0.4-7.1-0.9-7.8-0.6-0.7-0.8-1.5-0.3-1.8 0.4-0.2-0.3-1.5-1.5-2.9-1.3-1.3-2.7-2.2-3.3-2-0.5 0.2-1.9 2.1-2.9 4.2-1.1 2-2 4.7-2.1 5.8-0.2 1.1-1 3.4-1.9 5.2-0.9 1.8-2 3.3-2.6 3.3-0.5 0-7-6-14.2-13.4-7.3-7.3-15.5-14.8-18.3-16.6-2.7-1.9-5.2-3.7-5.5-4-0.3-0.3-2.7-1.6-5.5-2.9-2.7-1.3-5.7-2.7-6.5-3.1-0.8-0.4-5.8-0.8-11-0.9-9.4-0.1-9.6 0-16 3.9zm-13.6 58.9c-1.2 0.5-2.9 2-3.8 3.2-1.3 1.9-1.6 5.4-1.6 19.4 0 9.3 0.4 18.3 1 20 0.5 1.6 1.1 4.1 1.3 5.5 0.2 1.3 0.7 3.1 1.1 4 0.3 0.8 1.2 3.3 1.9 5.5 0.7 2.2 2.9 7.1 4.9 11 2.1 3.8 6.3 9.7 9.5 13.1 3.2 3.3 8.5 7.7 11.8 9.6 3.3 1.9 8.9 4.3 12.5 5.5 4.1 1.3 9.5 2.1 14.5 2.2 5.7 0.1 10-0.5 15-2.1 3.9-1.2 8.1-2.9 9.5-3.8 1.4-0.8 3.2-2 4.1-2.5 0.9-0.6 3.1-2.1 5-3.4 1.9-1.3 5.6-5.1 8.2-8.5 2.7-3.4 5.4-7.3 6.1-8.6 0.7-1.4 2.1-4.1 3.1-6 1-2 2-4.7 2.2-6 0.3-1.4 0.8-3 1.3-3.5 0.4-0.6 1.1-3.3 1.5-6 0.4-2.8 1-9.2 1.4-14.2 0.6-9.2 0.6-9.2 4.1-11.6 1.9-1.3 3.6-3.2 3.8-4.3 0.2-1.1-0.6-2.8-1.8-3.9-2-1.9-4.2-2.1-26.8-2.8-13.6-0.4-29.2-1.5-34.7-2.3-5.5-0.8-12.9-1.9-16.5-2.5-3.6-0.5-8.5-1.2-11-1.5-2.5-0.3-5.3-1-6.2-1.5-1-0.5-3-1-4.5-1-1.6 0-5.5-0.9-8.8-2-3.3-1.1-6-1.9-6-1.9 0 0-1 0.5-2.1 0.9zm5.8 22.7c0.1-9.5 0.2-9.9 2.2-9.3 1.2 0.4 8.6 1.7 16.6 3.1 8 1.3 18.1 3 30.5 4.7l-1.9 5.7c-1.3 4.2-1.7 7.4-1.3 12.7 0.3 3.8 1.5 9.4 2.6 12.5 1.2 3 3.2 6.8 4.5 8.5 1.2 1.6 4.5 4.1 7.2 5.4 3.6 1.9 7.1 2.6 21.8 3.6l-5.4 5.5c-3 3.1-8 6.8-11 8.3-3 1.5-8.4 3.1-12 3.7-4.7 0.8-8.3 0.8-13-0.1-3.7-0.6-9.4-2.7-13.4-4.8-3.8-2-8.5-5.5-10.5-7.8-2-2.3-5.1-6.5-6.8-9.5-1.8-2.9-4.4-8.5-5.7-12.3-1.4-3.9-2.9-10-3.5-13.5-0.6-3.6-1-11-0.9-16.4zm75.8 4.1c1.6-2 3-2.7 5.6-2.7 2.3 0 4.2 0.8 5.9 2.5 1.4 1.3 2.5 3.6 2.5 5 0 1.6-1.1 3.4-3.2 5.1-2.6 2-4 2.4-6.3 1.9-1.6-0.3-3.5-1.2-4.2-1.8-0.7-0.7-1.5-2.6-1.8-4.2-0.5-2.3-0.1-3.8 1.5-5.8zm208.6-18.9c-0.2 0.2-5.5 0.8-11.7 1.3-6.3 0.5-17.7 1.3-25.4 1.8-7.7 0.4-25.2 1.6-39 2.5-17.7 1.3-30.7 1.6-44.5 1.2-15.7-0.5-19.9-0.3-21.5 0.8-1.8 1.3-2 2.4-1.7 13.2 0.1 6.5 0.7 14.1 1.2 16.9 0.5 2.7 1.2 6.1 1.4 7.5 0.2 1.3 0.9 3.6 1.5 5 0.5 1.3 0.8 2.8 0.6 3.2-0.3 0.4 1.2 4.2 3.3 8.5 2.7 5.7 5.7 9.7 11.2 15.3 4.5 4.5 9.9 8.8 13.5 10.7 3.3 1.7 9.4 4 13.5 5.2 4.1 1.1 12 2.4 17.5 2.7 5.8 0.3 13.1 0.1 17.3-0.5 3.9-0.6 10.9-2.4 15.5-3.8 4.5-1.5 10.3-4 13-5.5 2.6-1.6 4.9-2.8 5.2-2.8 0.3 0 1.7-1.1 3.2-2.3 1.5-1.2 5.1-4.5 8.1-7.2 2.9-2.8 7.3-8.2 9.7-12 2.5-3.9 4.4-7.7 4.5-8.5 0-0.9 0.4-2 0.9-2.5 0.5-0.6 1.9-5.1 3.1-10 1.6-6.8 2.1-11.3 1.9-17.7-0.3-6.3 0-9.1 0.9-10 0.7-0.8 2.7-1.8 4.5-2.3 1.9-0.7 3.4-2 4-3.7 0.8-2.2 0.6-3.1-1.2-4.8-1.1-1.1-2.7-2.1-3.3-2.1-0.7-0.1-2.6-0.2-4.1-0.3-1.6-0.1-3 0-3.1 0.2zm-30.6 17.5c1.4-1.4 3.6-2.4 5.4-2.4 1.7 0 4.3 0.9 5.9 2 2 1.6 2.7 2.9 2.7 5.6 0 2.3-0.8 4.3-2.4 6-1.7 1.6-3.6 2.4-5.8 2.4-2 0-4.2-0.8-5.6-2.2-1.4-1.4-2.3-3.6-2.4-5.7-0.1-2.4 0.5-4.1 2.2-5.7zm-43-0.3c5.8-0.4 11.5-0.8 12.8-0.9 1.7-0.1 2.1 0.3 1.6 1.6-0.3 1-1 4-1.6 6.8-0.6 2.7-0.8 7.5-0.4 10.7 0.3 3.2 1.5 8.1 2.6 11 1.1 2.9 3.4 7.1 5.3 9.3 1.8 2.2 5.3 4.9 7.8 6.2 2.8 1.3 7.4 2.4 20.4 3.5l-3.5 3c-1.9 1.6-6 4.4-9 6.2-3 1.9-9.8 4.9-15 6.7-8.8 2.9-10.5 3.2-22.5 3.2-11.2 0-14-0.3-20.5-2.4-4.1-1.4-9.9-4.1-12.9-6-3-1.9-7.2-5.5-9.4-7.9-2.2-2.5-5.5-7.7-7.3-11.5-1.9-3.9-4.1-10.2-4.9-14-0.9-3.9-1.9-11-3-24.5l24.5-0.2c13.5 0 29.2-0.4 35-0.8zm-404.8 30.6c-1.6 0.7-3.8 2.6-4.8 4.1-1 1.5-1.7 4.2-1.6 6 0.1 1.8 0.9 4.3 1.6 5.5 0.9 1.4 2.9 2.5 5.3 2.9 2.6 0.4 4.9 0.1 7.2-1 1.9-0.9 3.8-2.7 4.3-3.9 0.4-1.2 0.8-3.6 0.8-5.2 0-1.8-0.9-4-2.2-5.4-1.3-1.3-3.5-2.8-4.9-3.3-1.9-0.8-3.5-0.7-5.7 0.3zm49 1.8c-1.8 1.5-3.3 3.6-3.3 4.6 0.1 1.1-0.3 2.2-0.9 2.5-0.6 0.3-0.2 2.2 1.1 4.7 1.1 2.3 2.6 4.3 3.2 4.5 0.7 0.1 3 0.2 5.2 0.3 2.2 0.1 4.7 0 5.5-0.2 0.8-0.2 2.1-1 2.7-1.8 0.7-0.9 1.3-3.7 1.3-6.3 0-3.5-0.6-5.4-2.2-7.3-1.3-1.4-3.8-2.8-5.8-3.1-2.9-0.4-4.2 0-6.8 2.1zm-50.6 47.6c-2.3 1.7-2.8 2.9-2.7 6 0.1 2.8 0.8 4.7 2.6 6.5 1.4 1.3 3.6 2.5 5 2.5 1.4 0 3.7-1.1 5.3-2.5 2.1-1.9 2.7-3.2 2.7-6.5 0-3.3-0.5-4.6-2.5-6.2-1.4-1.1-3.7-1.9-5.1-1.9-1.4 0-3.8 1-5.3 2.1zm49.2-0.3c-0.9 1-1.8 2.8-2.2 4-0.3 1.2-0.2 3.7 0.4 5.5 0.5 1.9 2 3.8 3.5 4.5 1.4 0.7 3.7 1.3 5.1 1.3 1.4 0 3.6-1.2 5-2.5 1.3-1.5 2.4-3.7 2.4-5.3 0-1.5-0.5-4-1.2-5.4-0.7-1.5-2.2-3-3.3-3.3-1.1-0.3-3.4-0.5-5.1-0.5-1.7 0-3.8 0.7-4.6 1.7zm411.2 5.2c-3.6 1-7.8 2.4-9.5 3.3-1.6 0.8-4.5 2.9-6.2 4.6-2.7 2.6-3.1 3.5-2.3 5.2 0.6 1.1 1.8 2 2.8 2 1 0 2.2-0.5 2.8-1 0.5-0.5 2-1.1 3.4-1.3 1.4-0.1 3-0.6 3.5-0.9 0.6-0.3 1.9-0.5 3-0.4 1.1 0.1 2.1 0.5 2.3 0.8 0.1 0.4 0.2 1.1 0.2 1.5 0.1 0.4-1.1 2.1-2.6 3.8-1.4 1.6-4.5 5-6.9 7.5-2.3 2.4-5.8 5.8-7.6 7.4-1.9 1.6-6.8 5-10.9 7.5-4.1 2.6-10.4 6.1-14 7.9-3.6 1.7-7.4 3.2-8.6 3.2-1.1 0-2.4 0.3-2.8 0.7-0.5 0.4-2.4 1.3-4.4 2-2.1 0.7-4.7 1.2-5.9 1.2-1.3 0-2.5 0.5-2.8 1.1-0.3 0.5-2.2 1.1-4.2 1.4-2.1 0.2-9.2 1.1-15.8 2-9.1 1.3-15.6 1.6-27 1.1-8.2-0.3-17.9-1-21.5-1.5-3.6-0.6-9-1.4-12-1.9-3-0.5-6.8-1.2-8.5-1.6-1.6-0.3-4.3-1-6-1.5-1.6-0.5-5-1.5-7.5-2.2-2.5-0.6-4.9-1.6-5.5-2-0.5-0.5-1.9-0.9-3-0.8-1.1 0-2.6-0.6-3.3-1.3-0.7-0.7-1.2-0.9-1.2-0.5 0 0.4-1.2 0.1-2.7-0.7-1.6-0.8-6.2-3-10.3-5-4.1-1.9-10.6-5.3-14.5-7.4-5.6-3.1-7.3-3.6-8.7-2.8-0.9 0.7-1.7 2.3-1.7 3.7 0 1.3 0.5 3.1 1.2 4 0.7 0.8 3 2.7 5.2 4.2 2.2 1.5 5.6 3.6 7.5 4.7 1.9 1.1 5.8 3.1 8.5 4.4 2.8 1.4 6.6 3.2 8.5 4 1.9 0.8 4.6 1.8 6 2.2 1.4 0.4 3.1 1.1 3.8 1.6 0.6 0.5 1.5 0.7 2 0.4 0.4-0.2 2.1 0.2 3.7 1 1.7 0.9 3.8 1.5 4.8 1.5 0.9 0 1.9 0.3 2.1 0.7 0.2 0.4 2.1 0.9 4.3 1 2.1 0.2 4.3 0.7 4.8 1.1 0.6 0.5 3.3 1.2 6 1.6 2.8 0.4 7.7 1.1 11 1.7 3.3 0.5 16.6 1.2 29.5 1.5 19.4 0.4 25 0.2 32-1.2 4.7-0.9 11-2.2 14-3 3-0.7 6.6-1.5 8-1.8 1.4-0.2 4.5-1.2 7-2.1 2.5-1 5.4-2.1 6.5-2.5 1.1-0.4 6.7-3.1 12.5-6 5.8-2.9 10.7-5.6 11-6 0.3-0.4 2.8-2.2 5.5-4.1 2.8-1.9 5.7-4.1 6.6-4.9 0.8-0.9 3.3-3.1 5.5-5.1 2.1-1.9 5-5 6.4-7 1.3-1.9 2.8-3.9 3.3-4.4 0.4-0.6 2.1-3 3.7-5.3 2.5-3.5 3.6-4.2 6.3-4.2 2.3 0 4.4 1 7.7 4 2.5 2.2 5.3 4 6.3 4 0.9 0 2.4-1.2 3.2-2.5 1.4-2.3 1.3-2.9-0.7-6.8-1.3-2.3-4.1-5.4-6.3-6.9-2.2-1.5-6.5-3.4-9.5-4.2-3-0.8-6.8-1.6-8.5-1.9-1.6-0.3-5.9 0.3-9.5 1.2zm-71.5 92.7c-2.7 0.8-7.7 2.1-11 3-3.6 0.8-11.6 1.5-20 1.6-8.5 0.1-16.2-0.4-19.5-1.1-3-0.8-6.8-1.2-8.5-1-1.9 0.2-3.1 1-3.2 2.1-0.2 1 0.7 2.6 2 3.7 1.2 1.1 4.2 2.6 6.6 3.3 2.4 0.7 4.5 1.6 4.7 2 0.2 0.4 1.6 0.8 3.2 0.8 1.5 0 5.2 0.5 8.2 1.1 4.7 1 7.4 0.8 18-1.1 6.9-1.2 14.4-2.8 16.8-3.6 2.3-0.8 6-2.7 8.2-4.2 2.9-2 3.9-3.4 4-5.5 0-2.2-0.4-2.7-2.2-2.6-1.3 0-4.5 0.8-7.3 1.5zm-391.3 97.3c-1.9 2.1-2.7 4-2.7 6.7 0 2.8 0.8 4.6 3 6.9 2.2 2.3 3.8 3.1 6 3 1.7-0.1 4.1-0.5 5.5-0.9 1.5-0.4 3.2-2.1 4.3-4.4 1.3-2.5 1.7-4.8 1.3-7-0.4-2.2-1.6-3.9-3.8-5.2-1.8-1.1-5-2-7.1-2-2.8 0-4.4 0.6-6.5 2.9zm51.3-0.4c-1.4 1.3-2.8 3.7-3.1 5.2-0.3 1.5 0 4.1 0.8 5.6 0.7 1.6 2.5 3.5 4.1 4.3 1.5 0.7 3.5 1.3 4.5 1.3 0.9 0 3.2-0.5 4.9-1.2 1.8-0.7 3.7-2.3 4.3-3.5 0.5-1.2 1-3.1 1-4.2 0-1.1-0.7-3.4-1.5-5-0.8-1.7-2.4-3.5-3.5-4-1.1-0.6-3.6-1-5.5-1-2.5 0-4.3 0.7-6 2.5z"/>
</svg>