<svg version="1.2" xmlns="http://www.w3.org/2000/svg" viewBox="0 0 2048 2048" width="2048" height="2048">
	<title>Chicky</title>
	<defs>
		<radialGradient id="g1" cx="0" cy="0" r="1" gradientUnits="userSpaceOnUse" gradientTransform="matrix(370.018,321.652,-321.652,370.018,939.87,1289.477)">
			<stop offset="0" stop-color="#f7dba7"/>
			<stop offset=".333" stop-color="#f0d4a0"/>
			<stop offset="1" stop-color="#8f7848"/>
		</radialGradient>
		<radialGradient id="g2" cx="0" cy="0" r="1" gradientUnits="userSpaceOnUse" gradientTransform="matrix(379.602,-341.796,341.796,379.602,981.745,429.993)">
			<stop offset="0" stop-color="#f7dba7"/>
			<stop offset=".333" stop-color="#f0d4a0"/>
			<stop offset="1" stop-color="#8f7848"/>
		</radialGradient>
	</defs>
	<style>
		.s0 { fill: url(#g1) } 
		.s1 { fill: #9f8554 } 
		.s2 { fill: url(#g2) } 
		.s3 { opacity: 1;fill: #a44d0c } 
		.s4 { opacity: 1;fill: #c15a10 } 
		.s5 { fill: #eaaf2a } 
		.s6 { opacity: .98;fill: #ac7715 } 
		.s7 { opacity: .97;fill: #845d13 } 
		.s8 { opacity: 1;fill: #f5ce63 } 
		.s9 { fill: #e4932b } 
		.s10 { fill: #c65c04 } 
		.s11 { opacity: 1;fill: #d8731f } 
		.s12 { opacity: 1;fill: #faf0d6 } 
		.s13 { opacity: .94;fill: #b1955d } 
		.s14 { opacity: .99;fill: #131d08 } 
	</style>
	<g id="Char">
		<g id="Shells">
			<path id="Path 0" fill-rule="evenodd" class="s0" d="m655.1 1172.5l5.8 14.2c3.1 7.8 9.6 21.8 14.2 31.1 4.7 9.3 12.6 22.8 17.6 30 5 7.2 12.5 16.2 16.7 20 5.4 4.9 7.2 9.5 6.4 11.7-0.9 2.6-0.7 2.7 1.2 0.9 1.4-1.2 4.5-4 7-4 2.4 0 7.7-1.5 11.6-3.3 3.9-1.7 11.9-7.1 17.8-11.8 5.8-4.8 10.8-7.9 11-7 0.2 0.9 6.2 10.5 13.2 21.2 8.5 13 18.9 25.6 30.7 37.4 10 9.9 25 22.5 33.9 28.5 8.8 5.8 20.5 12.6 36.1 19.4l-0.9 14.2c-0.5 6.8-1.7 18.4-2.7 25.8-1 7.3-2.2 16.9-2.6 21.3-0.7 6.8 0 9.4 5.5 18.2 4.1 6.6 6.3 12.4 6.3 16.4 0 3.4 1 9.9 2.2 14.4 1.2 4.6 2.8 8.6 3.6 8.9 0.7 0.4 0.5-1.3-0.5-3.8-0.9-2.4-1.7-8.4-1.7-13.3 0-6.8-1.5-11.4-6.2-20-3.5-6.1-6.2-13.6-6.2-16.8-0.1-3.2 1.1-10.4 2.6-16 1.5-5.6 2.7-15.6 2.7-22.2 0-6.6 1-16 2.4-18.7 1.3-2.7 6.7-7.6 11.9-10.9 5.3-3.3 24-16 41.6-28.3 17.6-12.3 44-31.1 58.6-41.8 14.7-10.7 29.9-22.1 33.8-25.3 3.9-3.3 7.7-5.9 8.4-6 0.7 0 14.3 8.6 30.1 19.1 23.6 15.7 29.6 22.2 33.3 28.7 2.5 4.3 9 14.7 14.5 23.1 5.5 8.4 15.9 21.5 23.1 29.2 7.2 7.7 19.6 18.9 27.6 24.9 7.9 6 19.8 12.8 28.4 17.4 8.7 4.5 20.5 9.6 26.4 11.3 7.1 2 13.3 2.6 18.6 1.9 4.6-0.7 9.7-2.9 12.1-5.1 2.2-2.2 4.4-6.6 5.7-15.5l7.5 5c4.2 2.8 14.4 7.9 22.7 11.5 8.3 3.5 19.9 7.6 25.7 9.1 5.9 1.6 13.5 2.8 16.9 2.8 3.4 0 10.4-1.2 15.6-2.7 6-1.7 11.6-5 16-9.3 3.9-3.8 8.1-10.4 9.8-15.5 1.7-4.9 3.1-13.1 3-18.2 0-5.2-1.1-14.8-2.5-21.4-1.5-6.6-3.9-15.5-5.4-19.9-1.5-4.4-2.8-9.2-2.7-10.7 0.1-2.2 0.6-2.1 2.7 0.4 2.5 3 3 3 10.1-0.1 4.2-1.8 9.8-5.8 12.5-8.9 3-3.4 4.9-7.8 5.1-11.4 0.1-3.2 0-8.2-0.1-11.1-0.2-2.9 0.6-8.1-2.3-17.7l69-65.8 2.3 14.2c1.3 7.9 2.7 34 3.2 56 0.6 30.8 0.2 45.1-2.1 62.2-1.6 12.2-4.9 31.4-7.4 42.6-2.5 11.2-7.7 31.6-11.5 43.1-3.8 11.4-10.6 27.2-15 37.3-4.5 10-12.9 26.6-18.7 36.8-5.8 10.3-16.8 27.1-24.5 37.3-7.6 10.3-18.9 24.3-25.2 31.1-6.2 6.8-18.9 19.5-28.2 28.2-9.4 8.7-24.6 21.2-33.9 27.8-9.3 6.6-28.2 19-61.3 37l-5.3-3.1c-2.9-1.7-9.9-4.9-15.5-7-5.6-2.1-12.6-3.9-15.6-3.9-2.9 0-5.3-2.5-5.3-3.5 0-1 0.6-1.8 1.3-1.8 0.8 0 7.2-4.8 14.2-10.6 7.1-5.9 12.5-10.7 12-10.7-0.4 0-4.6 2.3-9.3 5.2-4.6 2.9-15.6 8.6-24.4 12.8-8.8 4.1-24.4 12.4-34.6 18.3-10.3 5.9-24.7 12.5-32 14.6-7.3 2.2-11.7 4-9.8 4 2 0.1 8.6-0.9 25.9-4.3l9.7 6.2c5.3 3.5 11.4 8.6 11.5 9.4 0 0.7-6.2 2.9-13.8 4.8-7.6 2-22.1 5.2-32.4 7.3-10.9 2.2-31.1 4.1-46.2 4.7-14.1 0.5-38.1 0-53.3-1.2-15.1-1.2-35.9-3.7-46.1-5.6-10.3-1.9-26.3-5.5-35.6-8-9.2-2.5-25.6-7.8-36.4-11.7-10.7-4-29.1-12-40.8-17.8-11.8-5.8-31.3-17.2-43.5-25.3-12.3-8.1-27.8-19.3-34.7-25-6.8-5.6-20.3-17.9-29.9-27.3-9.5-9.4-24.6-23.8-31.3-32.2-6.6-8.3-17.3-23-23.7-32.8-6.4-9.8-16-26.6-21.4-37.3-5.4-10.8-12.2-25.7-15.2-33.3-3-7.6-8.2-22.8-11.5-33.8-3.4-11-7.9-32.1-10.2-44.8-3.4-19.5-4.1-29.2-4.1-62.2 0-33-1.1-44.1 2.2-62.1 2.2-11.8 8.1-30.1 10.9-40.9 2.8-10.7 6.1-21.9 7.2-24.9zm55.8 159c0.4 15.2 1.1 29.5 1.7 32 0.5 2.4 3.2 9.8 5.8 16.4 2.6 6.6 5 11.8 5.3 11.5 0.3-0.2-1.8-8-4.6-17.3-4.8-15.3-5.3-19.9-6.2-50.6-0.6-18.5-1.9-36.1-2.9-39.1-1.5-4.2-1.7-2.8-0.8 7.1 0.6 6.9 1.4 24.9 1.7 40z"/>
			<path id="Path 0" class="s1" d="m1062.8 1274.5c-0.6 1 7.4 17.8 13.7 30.8 6.3 12.9 16.1 30.5 21.8 38.9 5.7 8.5 15.1 21.7 20.9 29.3 5.9 7.6 19.1 22 29.4 31.9 10.2 10 22.6 21.5 27.5 25.5 4.9 4.1 11.9 8.9 15.5 10.8 3.7 1.9 12.5 4.3 19.6 5.4 7 1.1 16.8 1.7 21.7 1.3 6.4-0.6 12.2-2.8 20.4-7.8 6.4-3.8 16.6-12 22.7-18.1 6.1-6.1 11.1-12.3 11.1-13.8 0-1.4-3.8-4.5-8.4-6.8-4.7-2.3-10.9-5.5-13.8-7-4.2-2.3-5.8-2.4-7.6-0.7-1.3 1.1-2.3 3.7-2.2 5.7 0.1 1.9-1.6 5.1-3.7 7.1-2.6 2.4-7.1 3.8-14.4 4.4-5.8 0.5-10.7 0.7-10.9 0.5-0.1-0.2-7.9-3.8-17.2-8-9.2-4.2-24.4-12.7-33.7-18.9-9.3-6.1-17.5-12.3-18.2-13.7-0.7-1.4-1.9-2.5-2.7-2.5-0.7 0-5.5-4-10.6-8.9-5.2-4.9-9.4-9.3-9.4-9.8 0-0.5-3.8-5.9-8.5-12-4.6-6.1-11.5-16.3-15.3-22.6-3.7-6.4-7.3-12-8.1-12.4-0.7-0.5-1.8-2.5-2.4-4.5-0.5-1.9-4.2-5.7-8.2-8.4-4-2.7-7.8-4.9-8.5-4.8-0.8 0-3-1.6-4.9-3.7-2-2-8.6-9.1-10.7-9-2.2 0-4.4 0.8-4.9 1.8z"/>
			<path id="Path 0" class="s2" d="m1052.6 53.4c-10.2 1.3-25.8 3.7-34.6 5.3-8.8 1.7-25.6 5.8-37.3 9.3-11.7 3.4-31.3 10.3-43.5 15.2-12.2 4.9-36.2 16-53.3 24.7-17.1 8.6-39.1 20.7-48.8 26.9-9.8 6.1-25.4 16.8-34.7 23.7-9.3 6.9-26 20-37.3 29.1-11.2 9.1-34.8 31.1-52.4 48.8-17.6 17.7-40 42.1-49.8 54.3-9.9 12.2-26.8 33.9-37.8 48.3-11 14.6-19.6 27.6-19.4 29.3 0.3 1.8 2.1 3.4 4 3.7 2 0.3 7.6-1.6 12.4-4.3 4.9-2.6 12.9-7.7 17.8-11.2 4.9-3.6 14.9-9.1 22.2-12.2 7.3-3.2 14.7-5.8 16.4-5.7 1.7 0 5.3-1.6 8-3.6 2.7-2 6.1-3.6 7.6-3.6 1.4 0 5.8-1.7 9.7-3.7 4-2 9.3-4.8 12-6.2 2.7-1.3 6.5-2.4 8.5-2.4 1.9 0 3.9-1.2 4.4-2.7 0.5-1.6 3.1-2.7 6.2-2.7 3 0 7.8-1.6 10.7-3.5 3.3-2.3 6.8-3.2 9.3-2.5 2.6 0.7 6.3-0.4 10.6-3.1 4.5-2.8 6.7-5.5 6.7-8.2 0-2.2-0.8-4-1.8-4-0.9 0-1.7-2.2-1.6-4.9 0.1-2.7 0.8-6.5 1.6-8.4 1.3-2.9 1.6-2.2 1.7 3.1 0.1 5.6 1.5 8 8.6 14.6 4.6 4.4 9 8 9.7 8 0.8 0 1.4 1.2 1.4 2.7 0 1.5 2.8 4.3 6.2 6.2 3.4 2 6.2 4.6 6.2 5.8-0.1 1.2 2.8 5 6.2 8.4 3.5 3.5 6.3 8 6.3 10.3-0.1 2.3 1 4 2.6 4 1.5 0 2.7 1.1 2.7 2.6 0 1.5 1.9 5.3 4.3 8.5 2.5 3.1 4.5 6.7 4.5 7.9 0 1.3 1.4 4.9 3 8 1.6 3.2 3.6 7.2 4.4 8.9 0.9 1.7 1.5 4.3 1.5 5.8 0 1.5 2.4 3.9 5.3 5.3 3 1.5 7.2 2.7 9.4 2.6 2.2 0 9.6-1.5 16.4-3.4 6.8-1.8 18.4-5.4 25.8-8 7.3-2.5 19.3-5.9 26.6-7.4 7.3-1.5 14.9-3.3 16.9-4.1 1.9-0.8 9.1-2.7 16-4.3 6.8-1.6 15.2-2.9 18.6-2.9 3.4 0 8.6-1.3 11.6-2.8 4.1-2.2 10.9-2.8 31-2.8 18.4 0.1 26.2-0.5 27.1-2 0.8-1.4 1.3-0.7 1.3 1.8 0 2.2 1.3 4.4 2.7 4.9 1.5 0.5 4.1 0.9 5.8 0.8 1.7 0 7.1 3 12 6.7 4.9 3.8 12.5 8.5 16.9 10.6 4.4 2.1 9.1 5.1 10.6 6.7 1.5 1.6 3.5 2.8 4.5 2.8 0.9-0.1 3.3 1.5 5.3 3.5 1.9 2 4.5 3.6 5.8 3.6 1.2 0 2.6 1.1 3.1 2.6 0.5 1.5 2.1 2.7 3.5 2.7 1.5 0 2.7 0.6 2.7 1.3 0 0.7 4.6 4.7 10.2 8.8 5.6 4.1 12 9.9 14.2 12.9 2.2 2.9 5.2 5.4 6.7 5.4 1.4 0 2.6 1.2 2.6 2.6 0 1.5 2.3 4.1 5.2 5.8 2.8 1.7 5.8 4.7 6.6 6.7 0.9 1.9 3.9 5.1 6.9 7 2.9 1.9 6.9 5.8 8.9 8.8 1.9 3 6 7 9.1 9 3.1 2 6.1 5 6.7 6.7 0.6 1.7 3.2 3.6 5.9 4.2 2.7 0.6 6.5 0.3 8.5-0.7 1.9-1 6.1-2.9 9.3-4.2 3.3-1.3 5.9-3 5.8-3.7 0-0.8 1.7-1.9 3.9-2.5 2.2-0.6 7-4.2 10.7-8 3.7-3.7 7.7-6.8 8.9-6.8 1.2 0 4.9-2.2 8.3-4.9 3.3-2.7 8.9-7.7 12.4-11.2 3.5-3.4 7.8-6.8 9.5-7.5 1.7-0.7 5-5.1 7.3-9.8 2.3-4.6 5.5-10.8 7-13.7 1.6-2.9 3.3-8.3 3.8-12 0.5-3.7 1.8-6.7 2.7-6.7 1 0 2.2 0.8 2.7 1.8 0.5 1 0.1 3-0.9 4.4-1 1.5-1.4 4.3-0.9 6.3 0.5 1.9 0.1 3.9-0.9 4.4-0.9 0.5-1.6 3.1-1.4 5.8 0.1 2.7-0.9 7.3-2.2 10.2-1.4 2.9-3.7 6.2-5.2 7.3-2.4 1.8-2.2 3 1.3 10.2 2.2 4.5 5.6 9.8 7.5 11.8 2 2 4.4 5.3 5.4 7.5 1 2.2 3.5 6.8 5.5 10.3 2.1 3.4 8 14.6 13.2 24.8 5.2 10.3 11.1 22.5 13.1 27.1 2 4.7 4.5 8.8 5.5 9.3 1 0.5 1.7 3.5 1.7 6.7 0 3.2 1.6 8 3.5 10.7 2 2.6 4.7 4.9 5.9 4.9 1.2 0 5.8-2.7 10.2-6.1 5.5-4.2 8.8-5.7 10.6-4.7 1.5 0.8 8.3 6.4 15.1 12.5 6.9 6.1 23.3 21.6 36.5 34.6 13.1 13 29.6 29.9 36.4 37.6 6.9 7.7 16.5 19 21.3 25.1 4.9 6.2 9.9 11.2 11.1 11.1 1.2 0 3.4-1.8 4.8-4 1.8-2.7 3.3-12.7 4.4-29.8 1-14.2 1.8-43.5 1.9-65.3 0-21.7-0.9-49.7-1.9-62.1-1-12.5-2.6-24.3-3.4-26.2-0.9-2-2-8.4-2.5-14.2-0.5-5.9-3-20.7-5.5-32.9-2.5-12.2-7.4-32.6-10.9-45.3-3.5-12.7-7.8-26.7-9.5-31.1-1.8-4.4-5-13.6-7.2-20.4-2.2-6.8-8-20.8-12.8-31.1-4.8-10.2-9.5-19.8-10.4-21.3-0.9-1.5-2.5-4.7-3.5-7.1-1-2.4-2.2-5.2-2.7-6.2-0.4-1-3.2-5.4-6.1-9.8-2.9-4.4-6.1-10-7.2-12.4-1.1-2.5-6.8-11.6-12.8-20.4-5.9-8.8-15.2-22-20.7-29.2-5.4-7.3-18-21.7-28-32-9.9-10.3-23.3-23-29.7-28.1-6.5-5.1-12.1-9.3-12.6-9.3-0.5 0-2.5-2-4.4-4.5-2-2.4-4.8-4.4-6.3-4.4-1.4 0-4.8-2-7.5-4.4-2.7-2.4-6.9-4.8-9.3-5.3-2.5-0.5-6.1-2.5-8-4.5-2-2-5.2-3.6-7.1-3.6-2 0-4.4-1.7-5.4-3.9-0.9-2.2-4.1-4.7-7.1-5.6-2.9-0.8-6.7-2.2-8.4-3.1-1.7-0.9-4.5-1.5-6.2-1.5-1.7 0.1-4-0.9-5.1-2.2-1.1-1.3-5.9-3.4-10.7-4.7-4.7-1.3-10-3.1-11.7-4-1.8-0.9-5.8-1.6-8.9-1.6-3.2 0-10-2-15.1-4.4-5.2-2.5-13.1-5-17.8-5.6-4.6-0.6-9.2-1.8-10.2-2.5-1-0.8-7.8-2.3-15.1-3.4-7.3-1.1-28.5-2.3-47.1-2.7-22.4-0.6-40 0-52.4 1.6z"/>
		</g>
		<g id="Legs">
			<path id="Path 0" class="s3" d="m1182.9 1667.1c-2.1 0.7-5.1 2.9-6.6 4.7-1.6 1.9-3.3 6.2-4 9.6-0.8 4.5 0 8.7 2.9 15.1 2.2 4.9 10.4 27.2 18.1 49.7 7.7 22.5 16 47.3 18.4 55.1 2.4 7.8 4.4 15.6 4.4 17.3 0 2.1-2.8 4-8.5 6-4.6 1.6-12.4 3.6-17.3 4.4-4.9 0.8-12.9 2.2-17.8 3.2-4.9 0.9-18.8 4.1-31.1 6.9-12.2 2.9-28.5 7.5-36.4 10.1-7.8 2.6-20.6 7.9-28.4 11.6-7.8 3.7-18.6 9.8-24 13.5-5.3 3.7-10.6 7.5-11.6 8.6-1.1 1-4.3 3.9-7.1 6.3-2.9 2.4-8.6 8.4-12.8 13.3-4.1 4.9-9.1 13.1-11.1 18.2-2.5 6.6-3.5 13.6-3.5 23.6 0 8.4 0.9 16.1 2.4 19.1 1.6 3.2 6.2 6.6 13.8 10.1 6.6 3 15.4 5.5 21.1 5.9 5.8 0.4 14.4-0.5 21.3-2.3 6.3-1.6 14.5-4.5 18.2-6.4 3.6-1.8 7-3.3 7.5-3.3 0.5 0 1.1 4.7 1.4 10.4 0.3 8.4 1.3 11.5 4.8 15.3 2.5 2.6 7.7 6.4 11.6 8.4 5.2 2.7 11.6 3.9 24 4.5 12.2 0.6 20 0 28.4-2.1 6.3-1.6 15.1-5 19.5-7.6 4.4-2.5 11.8-7.1 16.5-10.1 4.7-3 8.5-6.1 8.4-6.9 0-0.7 1-1.3 2.2-1.3 1.2 0 3.5 2.2 5 4.9 1.5 2.7 5.8 7.3 9.7 10.2 3.8 2.9 9.8 6.3 13.2 7.5 3.5 1.2 12.3 2.2 19.6 2.2 9.1 0.1 16.8-1 24-3.5 5.9-2 13.9-5.6 17.8-7.9 3.9-2.3 12.6-9.2 19.3-15.4 6.8-6.2 17.4-17.7 23.6-25.5 6.2-7.8 14.9-21.4 19.2-30.2 4.4-8.8 9.1-20.8 10.6-26.7 1.5-5.8 2.7-16.2 2.7-23.1 0-8.1-1.1-14.8-3.3-19.5-1.8-3.9-6.9-10.5-11.5-14.6-4.5-4.2-12.4-9.6-17.6-12-5.6-2.7-12.5-4.4-17.3-4.4-4.4 0-9.8-1.2-12-2.7-2.2-1.5-6.7-8.1-10-14.7-3.3-6.6-10.8-23.2-16.7-36.8-5.8-13.7-12.5-30.1-14.7-36.5-2.3-6.3-5.5-13.9-7.2-16.8-1.7-3-6-11.2-9.4-18.2-4.5-9.2-7.9-13.7-11.7-15.6-2.9-1.4-7.3-2.6-9.8-2.6-2.4 0-7.8-10.9-11-9.3-5.7 2.8-5.8 2.7-12.8-3.8-3.9-3.5-8.1 4.9-10.3 4-2.2-0.9-5.4-1.5-7.2-1.5-1.7 0.1-4.8 0.8-6.9 1.6zm-286.2 54.9c-3.2 1.8-7.4 5.7-9.3 8.5-2 2.8-6.5 14.3-10 25.5-3.5 11.2-8.3 24.2-10.6 28.8-2.5 5.1-5.8 8.9-8.2 9.6-2.2 0.7-11.2 1.7-20 2.3-8.8 0.7-19.6 0.5-24-0.3-4.4-0.8-18.4-3.1-31.1-5.1-12.7-2-25.8-4.8-29.3-6.4-5.1-2.3-7.5-2.5-13.7-0.8-4.2 1.2-15.4 2.1-24.9 2.1-9.5 0-24.5 0.8-33.3 1.8-8.8 1-21.6 3.5-28.4 5.6-6.9 2-18 6.4-24.9 9.9-8.8 4.4-16 10-24.8 19.1-6.9 7.1-15.3 17.6-18.6 23.4-5.2 8.6-6.4 12.6-7.1 23.9l-1 13.5c10.3 10 14.9 12.9 16.9 12.9 3.3 0 3.4 0.3 0.9 5.3-1.5 3-2.7 7.8-2.7 10.7 0 2.9 1.1 7.9 2.4 11.1 1.3 3.2 5.5 8.4 9.3 11.6 3.8 3.2 11 7 15.8 8.4 4.9 1.5 14.5 2.7 21.4 2.7 8.1 0 17.4-1.6 27-4.5l14.7-4.4c0 8.6 2.2 13.5 5.9 18.2 3.2 4.1 8.2 8.7 11.1 10.2 2.8 1.4 5.6 3.1 6.1 3.8 0.5 0.6 3.7 2.3 7.1 3.8 4.6 1.9 12.2 2.5 30.2 2.3 20.9-0.3 24.9-0.9 31.1-4.2 3.9-2.2 12.5-6.3 19.1-9.3 6.6-2.9 12.3-6.1 12.8-7.1 0.5-1 3.9-2.7 7.6-3.8 3.6-1.1 11-5.4 16.4-9.5 5.4-4 14.6-10.1 20.4-13.4 5.9-3.3 15.9-9.5 22.2-13.9 8.9-6.2 14.5-8.5 24-10.3 6.9-1.3 24.4-4.1 39.1-6.2 14.7-2.1 36.6-4.3 48.8-4.9 12.4-0.6 24-2 26.2-3.3 2.2-1.2 5.6-4.8 7.6-7.9 2.1-3.4 3.5-8.9 3.5-13.4 0-4.9-1.8-11.1-5.2-17.7-2.9-5.7-7.1-12-9.3-14.1-2.3-2.2-11.7-9-21-15.1-9.3-6.2-21.2-13.2-26.3-15.7-5.2-2.5-9.3-5.6-9.3-7.1 0.1-1.5 1.7-11.4 3.6-22.2 2-10.7 3.6-22.7 3.6-26.6 0.1-4.5 2.7-27.7 0.4-30.8-1.9-2.6-6.2-6.2-9.3-7.8-3.2-1.7-12.2-4.5-20-6.3-7.8-1.9-16.2-3.8-18.7-4.2-2.6-0.5-10.8 19.3-14.2 21.3z"/>
			<path id="Path 0" class="s4" d="m662.8 1808.1c-4.9 2-14.9 6-22.2 9-10.2 4.1-15.7 7.8-23.6 15.6-8.5 8.6-10.2 11.3-10.2 16.5 0 4 1 6.6 2.7 7.1 1.4 0.5 7.2-0.7 12.9-2.7 5.6-2.1 13.4-4.6 17.3-5.6 3.9-1.1 11.9-3.5 17.7-5.3 5.9-1.9 14.7-4.9 19.6-6.7 4.9-1.8 14.9-5.2 22.2-7.5 11.7-3.6 16.3-4.1 38.2-3.7 13.6 0.2 30 0.8 36.4 1.4 6.3 0.5 14.7 1.2 18.6 1.5 4.8 0.3 8.4-0.6 11.1-2.8 2.2-1.8 4-4.8 4-6.7 0-2-1.4-4.3-3.1-5.2-1.7-0.9-6.3-2.1-10.2-2.8-3.9-0.6-12.3-2.4-18.6-3.9-9.1-2.1-21.7-2.5-57.8-2.2-41.6 0.4-47 0.8-55 4zm636.1 37.1c-0.4 1.3-0.1 3.5 0.8 4.9 1.2 2 1.6 1.5 1.6-2.2 0-2.7-0.3-4.9-0.7-4.9-0.4 0-1.2 1-1.7 2.2zm-98.8 30.5c-3.5 1.3-9.7 4-13.8 6.1-4.2 2.1-11.4 6.7-16 10.3-4.6 3.5-11.9 9.3-16.2 12.8-4.2 3.6-11.1 9.7-15.2 13.6-4.1 3.9-11.1 11.5-15.6 16.9-4.5 5.4-10.3 14.3-12.8 20-3.5 7.8-4.2 11-2.8 13.7 1.6 3.2 3.6 3.6 18.6 3.6 13.4 0 18.5-0.8 24.5-3.7 4.1-2 11.3-6.6 16-10.2 4.7-3.6 13.9-13.3 20.6-21.6 6.6-8.3 14-17.9 16.5-21.4 2.4-3.4 4.1-7.8 3.8-9.7-0.5-2.2-0.2-2.8 0.7-1.5 0.9 1.3 3.1-0.6 6.2-5.8 2.7-4.5 6.9-8.5 9.8-9.6 2.7-1 6-3.4 7.2-5.3 1.9-3.1 1.6-4-2.7-6.6-2.7-1.7-8.9-3.3-13.7-3.6-4.9-0.2-11.7 0.6-15.1 2zm85.7 9.9c-2.2 0.8-6.4 4.6-9.4 8.3-2.9 3.8-4.9 7.8-4.4 9.1 0.5 1.3 0 1.8-1.3 1.2-1.3-0.5-4.8 1.7-7.8 4.9-3.1 3.2-9.5 11.1-14.3 17.4-4.7 6.4-11.7 17.6-15.5 24.9-4.3 8.2-6.5 14.5-5.8 16.4 1 2.6 3.4 3.1 14.5 3.1 8.3 0 13-0.7 12.4-1.8-0.5-1 0.1-1.3 1.4-0.7 1.2 0.5 5.4-0.6 9.3-2.5 3.9-1.9 10.4-6.6 14.5-10.3 5.1-4.8 9.5-11.6 14.1-22 6.1-13.9 6.7-16.5 6.8-32l0.1-16.8c-8.2-0.6-12.4-0.1-14.6 0.8zm-678.7 14.3l0.1 11.5c2.3-13.9 2.2-18.9 1.3-20.4-1-1.8-1.5 1.3-1.4 8.9zm191.5-63.1c-7.3 1.2-15.3 3.1-17.7 4.2-2.4 1-8.8 2.4-14.2 2.9-5.4 0.6-13 1.5-16.9 2-3.9 0.6-8.7 1-10.7 1-1.9 0-9.5 1.2-16.8 2.6-7.4 1.4-19.7 3.8-27.6 5.4-7.8 1.6-15 3.5-15.9 4.1-1 0.7-6 2.6-11.1 4.2-5.2 1.6-14.8 6.3-21.4 10.4-6.6 4.2-16.2 11.6-21.3 16.5-5.1 4.9-10.1 11.1-11.1 13.8-1.3 3.5-1.1 5.6 0.5 7.6 1.3 1.8 3.5 2.4 5.7 1.8 2-0.6 6.8-1.4 10.7-1.8 3.9-0.4 10.7-2.1 15.1-3.7 4.4-1.6 16.2-5.2 26.2-8.1 10-2.8 24-8.3 31.1-12 7.1-3.8 19-10.2 26.6-14.2 12.6-6.8 15.1-7.5 30.2-8.2 9-0.5 18.6-1.3 21.3-1.8 2.7-0.5 4.6-1.5 4.2-2.3-0.3-0.7 1.1-1 3.1-0.6 2.1 0.3 8.9-1.6 15.1-4.5 8.2-3.7 12.1-6.7 14.7-11.3 2-3.4 3.1-7.2 2.6-8.4-0.6-1.3-2.8-2.2-5-2-2.2 0.1-10 1.2-17.4 2.4zm70.3 13.3c-0.5 1-3 1.8-5.5 1.8-2.4 0-7 1.9-10.2 4.1-3.1 2.3-11.7 6.7-19 9.8-7.4 3.2-14.4 5.7-15.6 5.7-1.2 0-1.9 0.5-1.5 1.3 0.4 0.7-0.6 1.4-2.2 1.5-1.6 0.1-7.7 1.6-13.6 3.3-5.9 1.6-13.4 3.8-16.9 4.7-3.4 1-9.4 2.6-13.3 3.6-3.9 1-15.9 6.3-26.6 11.9-12.7 6.5-23.2 13.5-30 19.8-5.7 5.4-11.1 11.2-12 12.9-1.1 2.3-0.2 4.7 3.8 9.3 5.2 6.2 5.5 6.2 19.5 6.2 9 0 19.3-1.4 28-3.7 7.6-2.1 16.6-5.2 20-6.9 3.4-1.7 9-4 12.4-5 3.4-1.1 11.6-5.6 18.2-10.1 6.6-4.4 12.8-8 13.8-8 1 0 5.6-2.6 10.2-5.7 4.6-3.1 10.8-7.7 13.8-10.3 2.9-2.5 9.5-6 14.6-7.6 5.7-1.9 10.5-4.8 12.4-7.6 2-2.8 5.3-4.8 8.9-5.3 3.5-0.5 6.5-2.2 7.6-4.4 1.2-2.4 1.1-5.3-0.3-9.3-1.1-3.2-3.7-7.6-5.7-9.8-2.1-2.2-5.2-4-6.8-4-1.7 0-3.5 0.8-4 1.8zm301.9 0.7c-3 1.2-11.2 2.8-18.3 3.5-7 0.6-19.4 3.2-27.5 5.7-8 2.5-18.9 5.9-24.2 7.5-5.2 1.7-9.8 3.6-10.2 4.4-0.4 0.7-4.9 3.2-10 5.4-5.1 2.3-14.1 7.3-20 11.1-5.8 3.8-15.1 11.4-20.5 16.8-5.4 5.4-12 14.1-14.6 19.5-2.7 5.4-4.9 11.8-4.9 14.2-0.1 2.5 1.2 5.7 2.8 7.1 2.3 2.1 4.9 2.4 11.2 1.4 4.6-0.8 13.5-3.1 19.8-5.2 8.8-2.9 15.2-6.9 26.7-16.5 8.3-7 23.4-18.4 33.7-25.3 10.3-6.9 21.9-14.2 25.8-16.1 3.9-2 13.9-5.4 22.2-7.5 8.3-2.2 20.3-4.5 26.6-5.1 11.5-1.1 11.6-1.2 12-6.9 0.3-4.2-0.8-7-4-10.2-2.6-2.6-6.5-4.5-9.3-4.5-2.7 0-6.5-0.4-8.5-0.9-1.9-0.4-5.9 0.3-8.8 1.6z"/>
		</g>
		<g id="Body">
			<path id="Path 0" class="s5" d="m747.1 332.5c-9.2 4.5-19 10.1-21.7 12.5-3.2 2.8-7.1 4.3-11.1 4.3-4.3 0-8 1.5-11.8 4.8-3.1 2.7-9.7 11.7-14.8 20-5.1 8.3-12 20.3-15.2 26.7-3.2 6.3-8.5 15.5-11.9 20.4-3.3 4.9-6.4 10.5-7 12.4-0.5 2-3 8-5.5 13.3-2.4 5.4-5.7 15.8-7.2 23.1-1.5 7.4-2.2 15.4-1.6 17.8 0.6 2.4 3.2 6.6 5.7 9.3l4.4 4.9c-8.1 51.6-11.4 75-12.5 85.3-1.1 10.2-2 42.2-2 71l0.1 52.4c-8.5 13.8-15.8 24.2-21.7 32-6 7.8-16.4 20.2-23.2 27.5-6.8 7.3-15 17.5-18.2 22.7-3.3 5.1-8 15.5-10.5 23-2.5 7.6-5 18.6-5.5 24.5-0.5 5.8 0.3 17 1.7 24.8 1.4 7.8 4.3 17.8 6.5 22.2 2.2 4.4 5.1 11.6 6.5 16 1.3 4.4 4.7 11.1 7.4 14.9 2.6 3.8 12.4 13.7 21.7 22 9.3 8.3 24.1 20.1 32.9 26.2 8.8 6.2 23.2 15.3 31.9 20.3 8.8 5.1 24.4 13.2 34.7 18.2 10.2 4.9 27.4 12.2 38.2 16 10.7 3.9 31.5 10.2 46.1 14.1 14.7 3.9 29.5 7.8 32.9 8.6 3.4 0.8 9 2.4 12.4 3.4 3.5 1.1 9.1 2 12.5 2 4.3 0 8.6-1.8 14-5.8 4.2-3.2 9.2-8.2 11-11.1 1.8-2.9 3.3-7.5 3.3-10.2 0.1-2.7-1.4-8.3-3.3-12.5-1.9-4.1-4.4-11.1-5.6-15.5-1.3-4.4-3.2-10-4.4-12.4-1.2-2.5-4.6-5.7-7.8-7.1-3.2-1.6-5.6-4-5.5-5.8 0-1.7-1.9-5.5-4.4-8.4-2.4-3-6.2-5.9-8.4-6.4-2.2-0.6-9.6-4.8-16.3-9.4-8.2-5.4-16.9-13.7-25.7-24.2-7.3-8.8-15.7-17.8-18.7-20-5.2-3.8-6.9-4-33-3.6-19.5 0.4-28.7-0.1-31.5-1.7-3.1-1.7-4-3.8-4-8.9 0-3.7 1.8-9.4 3.9-12.9 2.2-3.4 5.4-7.8 7.1-9.7 1.8-2 3.2-4 3.2-4.5-0.1-0.5 7.7-5.7 17.2-11.5 9.5-5.9 22.5-14.1 28.9-18.3 6.4-4.2 12.4-7.6 13.4-7.6 0.9 0 6.1-2.4 11.5-5.4 5.4-3 15.4-7.8 22.2-10.6 8.3-3.5 15.5-5.2 21.8-5.2 5.1 0 11.1 0.9 13.3 2 2.2 1.1 6.8 4.9 10.1 8.4 3.4 3.6 8.6 10.1 11.6 14.5 3 4.4 8.1 12.4 11.3 17.7 3.2 5.4 7.6 12.2 9.7 15.1 2.2 3 8.4 11 13.8 17.8 5.5 6.8 15.3 17.2 21.8 23.1 8.9 8 12.5 12.6 14.4 18.6 2.1 6.8 2.2 8.4 0.1 10.7-1.4 1.5-4.5 5.4-7 8.9-2.5 3.4-6.5 10.4-9 15.5-3 6.3-5.7 9.6-8.4 10.2-2.2 0.5-6 3-8.5 5.5-3.8 4-4.5 6.5-4.9 18.2-0.4 8.5 0.3 15.6 1.7 18.7 1.3 2.9 4.7 6.3 7.7 7.8 3 1.4 8.5 2.3 12.6 2 4-0.4 8.4 0.2 9.8 1.3 1.3 1.1 5 3.3 8.2 4.9 3.2 1.6 7.6 2.9 9.8 2.9 2.2 0 4.8 0.8 5.8 1.8 1.1 1.1 15 1.6 39 1.2 26.3-0.5 41.5-1.5 51.5-3.7 7.9-1.6 15.1-3.5 16-4.1 1-0.7 7-1.8 13.4-2.4 6.3-0.7 15.9-2.6 21.3-4.3 5.3-1.6 12.5-3.7 16-4.7 3.4-1 9.8-2.5 14.2-3.4 5.3-1.1 9.7-3.6 13.3-7.4 4.5-4.9 6.4-5.7 12.9-5.3 5.7 0.2 8.7-0.7 12.4-3.9 3.1-2.6 8.2-4.5 13.8-5.2 5.4-0.7 10.2-2.5 12.4-4.7 1.9-1.9 4.5-3.6 5.8-3.6 1.2 0 6-3.6 10.6-8 4.7-4.4 10.2-7.9 12.5-8 2.2 0 7.3-3 11.5-6.7 4.2-3.7 11.3-9.7 16-13.4 4.6-3.6 8.4-7.4 8.4-8.3 0-1 2.4-5.2 5.4-9.4 3-4.1 5.4-8.5 5.3-9.7 0-1.3 2.4-3.4 5.3-4.9 2.9-1.5 5.3-3.5 5.3-4.5 0-0.9 2.8-3.3 6.3-5.3 3.4-1.9 7.3-5.7 8.6-8.4 1.4-2.7 5.4-7.9 8.9-11.6 3.5-3.6 6.4-8.4 6.4-10.6 0-2.2 1.4-6.4 3-9.3 1.6-3 3.6-10.6 4.5-16.9 0.8-6.4 2.3-17.2 3.1-24 0.9-6.8 2.7-21 4-31.4 1.3-10.4 3.3-20 4.6-21.3 1.2-1.3 2.2-6 2.2-10.4 0.1-5.6-1.1-9.5-4-13.2-3.2-4.2-4.1-7.9-4.5-17.8-0.2-6.9 0.5-20.1 1.6-29.3 1.6-13.7 1.5-17.8-0.5-21.4-1.3-2.4-3-10.8-3.9-18.6-0.8-7.8-1.5-22-1.4-31.5 0.1-10.1-0.9-21.6-2.4-27.6-1.5-5.6-2.7-12.2-2.7-14.6-0.1-2.5-1.7-6.5-3.6-8.9-1.9-2.4-3.5-6.8-3.5-9.8-0.1-2.9-1.9-8.2-4.1-11.7-2.1-3.6-8.1-11-13.2-16.5-5.2-5.5-9.4-11.2-9.4-12.6 0-1.5-2.8-5.5-6.2-8.9-4.3-4.3-7.8-6.2-11.5-6.2-3 0-8 1.3-11.1 2.9-4.1 2-8.2 2.5-13.8 1.8-4.4-0.6-11.4-2.7-15.5-4.7-4.2-2-9.2-3.6-11.1-3.6-2 0-6-2-8.9-4.4-2.9-2.5-6.7-4.4-8.5-4.4-1.7 0-11.1-8.1-20.8-17.9-9.8-9.9-24.6-23.6-32.8-30.7-8.3-7-18.3-15.8-22.2-19.5-4-3.7-9.2-8.6-11.6-10.8-2.5-2.2-8.5-6.3-13.4-9.1-4.8-2.7-11.2-6.7-14.2-8.7-2.9-2-6.9-4.7-8.8-5.9-2-1.1-8.4-4.9-14.3-8.3-8.7-5-13.6-6.5-27.5-8.1-9.3-1.1-20.9-2.8-25.7-3.9-6.6-1.4-12.3-1.3-22.2 0.3-7.4 1.2-21 4.1-30.2 6.4-9.3 2.3-33.7 9-54.2 14.9-20.5 5.8-40.3 10.7-44 10.7h-6.6c-25.9-42-35.9-57.6-39-61.8-3-4.1-7.2-8.6-9.4-10-2.2-1.4-9.6-3.1-16.5-3.7-12.1-1-12.8-0.8-29.3 7.2zm102.2 733.6c-6.9 2.4-13.7 5.5-15.1 6.9-1.5 1.5-3.3 2.6-4 2.7-0.8 0-3.6-1.6-6.2-3.6-2.7-2-7.3-3.6-10.3-3.6-2.9 0.1-7.9 1.5-11 3.2-3.2 1.7-12.7 9.5-21.1 17.3-8.4 7.8-16.6 16.6-18.1 19.6-1.5 2.9-4.3 6.9-6.1 8.9-1.9 1.9-4.6 6.3-6 9.7-1.4 3.4-2.6 8.8-2.5 12 0 4.2 1.7 7.5 6.2 12 3.4 3.4 6.2 6.8 6.2 7.5 0 0.8 1.8 3.2 4 5.3 2.2 2.2 5 4 6.3 4 1.3 0.1 1.7 1.3 1.1 3.2-0.6 1.7-3.1 8.7-5.6 15.5-3.2 9-4.7 17.4-5.3 30.2-0.9 17.4-0.8 18 5.3 31.1 3.7 7.7 8.8 15.4 12.3 18.4 4.9 4.2 7.2 4.9 13.8 4.4l7.8-0.6c7.8 18.6 12.8 28.2 16.1 33.3 3.4 5.1 8.4 12.3 11.1 16 2.8 3.6 9.9 9.5 15.7 13 5.9 3.6 16.3 9.6 23.1 13.3 8.5 4.7 14.7 6.9 19.6 6.9 5.3 0.1 9.9-1.8 18.2-7 6.1-3.9 11.9-7.1 12.8-7.1 1 0 5.6-3.1 10.3-6.8 4.6-3.8 12.8-9.8 18.2-13.4 5.3-3.6 14.1-9.5 19.5-13.1 5.4-3.5 17-11.8 25.8-18.3 8.8-6.5 19.3-13.6 23.5-15.7 4.1-2 9.1-5.8 11.1-8.2 1.9-2.4 3.9-4.4 4.4-4.4 0.5 0 2.9-1.6 5.4-3.6 4.1-3.3 4.8-3.3 9.7-0.9 3 1.5 8.4 2.7 12 2.7 3.7 0 9.1-1.1 12-2.5 2.9-1.4 6.5-3.8 8-5.4 1.5-1.6 3.1-2.9 3.6-2.9 0.4 0 2.4 3.8 4.2 8.5 1.9 4.7 5.8 13.7 8.8 20 2.9 6.4 8.1 16.4 11.5 22.2 3.5 5.9 12.4 18.3 19.9 27.6 7.5 9.3 18.7 21.8 25 27.8 6.3 6 17.5 16 25 22.2 7.6 6.2 21.9 15.5 32 20.6 13.4 6.8 20.3 9.3 25.7 9.3 5.9 0 8.6-1.1 12.9-5.3 3.7-3.6 5.5-7.1 5.5-10.7 0-2.9 0.6-5.3 1.3-5.2 0.7 0.1 3.7 1.6 6.7 3.5 2.9 1.8 10.9 6.4 17.7 10.3 6.9 3.8 18.5 9.6 25.8 12.8 11.3 5 15.5 5.9 27.7 6 13.1 0.1 14.9-0.3 22-5.2 4.2-2.9 8.9-7.3 10.5-9.7 2.2-3.4 2.8-8.8 2.6-25.7-0.2-17.1-1.2-24.5-4.7-36.5-2.4-8.3-5.1-16.7-6-18.6-1.3-3.1-1-3.3 2.1-1.9 1.9 0.9 7.3 1.8 11.9 2.1 7.7 0.6 9.1 0 14.7-5.6 4.6-4.6 6.2-7.7 6.2-12 0-3.2-1.1-11-2.5-17.3-1.3-6.4-4.2-15.1-6.4-19.5-2.2-4.4-8.3-14.6-13.5-22.7-5.3-8-15.8-21.1-23.3-29.1-12.8-13.3-13.8-14.9-13.3-21.3 0.4-6.2-0.6-7.9-10.2-18-10.5-11-10.6-11.1-22.1-12-10.2-0.7-11.7-1.3-12.5-4.8-0.6-2.2-3.9-7.8-7.5-12.5-3.6-4.6-10.7-14.8-15.8-22.6-5-7.8-10.7-15.5-12.5-17.1-1.9-1.6-6.2-4.4-9.6-6.2-3.4-1.8-9.4-4.2-13.3-5.4-3.9-1.1-13.1-3.8-20.4-5.9-9.8-2.8-20.8-4-41.8-4.9-24.7-1-29.8-0.7-39.1 2.2-8.5 2.6-12.7 5.3-21.4 14-6 6-12.3 13.6-14.1 17.1-1.8 3.4-5.8 15-8.9 25.7-5.1 17.4-5.9 19.1-7.7 15.6-1.1-2.2-2-6.4-2-9.4 0-3.4-2-7.6-5.8-12-3.2-3.6-6.2-7-6.8-7.5-0.5-0.5-1.5-2.3-2.2-4-0.7-1.7-7.4-7.1-15-12-8.1-5.3-15.7-8.9-18.6-8.9-2.7 0-10.7-2-17.8-4.4-7.1-2.4-16.7-4.4-21.3-4.4-5.7 0-10-1.2-13.3-3.7-2.7-2-7.3-3.5-10.2-3.5-3.2 0.1-8.7-2.1-13.4-5.2-4.4-2.9-8.5-5.4-9.3-5.4-0.7 0-5.3-2.8-10.2-6.2-4.9-3.4-11.4-6.7-14.6-7.3-3.7-0.7-7.6-0.1-11.1 1.8-2.9 1.6-7.4 2.9-9.8 2.9-2.5 0-9.3-1.7-15.1-3.6-5.9-2-11.9-3.6-13.3-3.5-1.5 0.1-8.3 2.1-15.1 4.5zm483.5-118.3"/>
			<path id="Path 0" class="s6" d="m1209.4 1083.1c-8.6-5.7-20.8-13.3-27.1-16.8-6.4-3.5-16.3-8.3-22.2-10.6-10.2-4 2.5-5.8-20.4-4.3-13.2 0.9-35.6 1.1-49.8 0.4-14.1-0.6-25.3-1.5-24.8-1.9 0.5-0.5 3.7-1.3 7.1-1.8 3.4-0.5 10.2-1.8 15.1-2.8 4.9-1 10.1-2.3 11.5-2.8 1.5-0.6 5.1-1.3 8-1.7 2.9-0.4 5.7-1.4 6.2-2.2 0.5-0.8 2.5-1.6 4.5-1.7 1.9-0.2 4.9-0.3 6.6-0.3 1.7 0 3.1-0.8 3.1-1.7 0-1 1-1.6 2.3-1.2 1.2 0.3 4.2-0.5 6.6-1.7 2.5-1.2 5.3-1.8 6.2-1.3 1 0.5 3.8-0.1 6.3-1.4 2.4-1.2 8.2-0.8 10.6-1.2 2.5-0.3-1.8-2 8-5.9 9.8-3.8 23.4-10.3 30.2-14.5 6.8-4.1 14.1-8.9 18.3-12.8 4.2-3.9 7.6-8.1 7.5-9.3 0-1.3 3.2-4.2 7.9-4.9l4.3 2.7c0 17.9 2.6 19.5 3.3 19.5 0.7 0.1 5.2-2.9 9.9-6.6 4.8-3.7 11.7-10.7 15.5-15.6 3.7-4.9 9.2-14.1 12.2-20.4 3-6.4 7-17.6 8.9-24.9l3.4-13.3c3.7 8.9 15.7 33.8 16.4 33.8 0.7 0 1.4 1.4 1.4 3.1 0 1.7 3.8 10.2 8.4 18.9 4.6 8.7 9.2 15.6 10.2 15.4 1-0.3 3.9-5.9 6.5-12.3 2.6-6.5 6.1-16.6 7.8-22.5 1.7-5.8 3.3-11.2 3.7-12 0.3-0.7 1.8-0.5 3.3 0.5 1.9 1.2 3 1.1 3.9-0.5 0.7-1.2 1.6-5.8 1.9-10.2 0.3-4.4-10.3-35-11-36.4-0.7-1.5 2.2-0.3 2-1.8-0.2-1.5-1.3-7.1-2.6-12.4-1.2-5.4-2.6-11-3.2-12.5-0.6-1.4-1.3-3.6-1.6-4.9-0.4-1.2-0.3-2.2 0.2-2.2 0.5 0 6.5 3.6 13.4 8 6.8 4.4 13 9.8 13.7 9.7 0.8 0 3.8 4.2 6.7 7.1 2.9 3 2.2 1.5 2.6 1 0.5-0.5 4.1 1.5 8 4.4 3.9 2.9 7.8 3.9 8 4.5 1.2 2.7 19.2 14.6 17.7 6.7-0.8-3.7-12.3-37.9-14.6-44.3-2.2-6.3-6-14.9-8.2-19.1-2.3-4.1-3.8-8.7-3.3-10.2 0.5-1.4-0.6-3.6-2.4-4.9-1.9-1.2-3.3-2.7-3.2-3.3 0.2-0.6-5.5-9.3-5.5-9.3l-15.3-10.2-52.9-14.2c-7.1 78.5-60.3 126.4-68 137.1 0 0-18.7 19.1-31.6 24.5-70.6 29.6-70 26.2-116.3 32.5-44.7 6.2-53.6 4.4-102.8 4l-54.1-1c17.8-18.6 23.5-26.9 27-34.6 3-6.6 5.5-13.2 5.5-14.7 0-1.4-4.4-5.7-7.6-7.3-3.1-1.7-7.7-4.6-10.2-6.5l-4.4-3.5c-26.2 22.7-39 32.4-45.3 36.1-6.4 3.8-16.8 8.2-23.1 9.8-8.2 2.1-15.5 2.7-24.9 2-7.3-0.6-18.1-2.6-24-4.6-5.8-1.9-10.8-3.4-11.1-3.2-0.2 0.2 3.8 5.3 6.9 9.2 3 3.9 10.8 10.2 17.3 13.9l11.8 6.7c-45.9-1.6-46.9-1.9-104.8-18.5-48.2-13.9-66.2-17.7-93.2-29.5-26.2-11.3-31.8-13.3-27.4-9.4 3 2.7 7.4 6.4 9.8 8.4 2.4 1.9 9.5 7.1 15.8 11.5 6.4 4.3 14.3 8.9 15.5 10.2 1.3 1.2 3.5 2.3 4.9 2.3 1.5 0 2.7 0.8 2.7 1.7 0 1 1 1.8 2.2 1.8 1.2 0 7.5 3.4 13.9 7.6 6.4 4.1 14.8 8.8 18.6 10.5 3.9 1.6 8.4 3.4 10.1 4 1.7 0.5 3.7 1.1 4.5 1.3 0.7 0.2 2.3 1.4 3.5 2.7 1.2 1.3 3.4 2.3 4.9 2.3 1.5 0 3.3 0.3 4 0.5 0.7 0.3 2.9 1.5 4.9 2.6 1.9 1.1 13.5 5.3 25.7 9.3 12.3 4.1 32.2 9.8 44.4 12.8 12.3 3 23.9 5.6 25.8 5.9 2 0.2 4.8 0.9 6.2 1.5 1.5 0.6 7.2 3.2 17.4 5.6 10.3 2.3 15.6 3.2 18.5 3.7 3 0.5 7.5 1.4 11.4 2.2l7.8 0.9c-8.3 1.9-8.6 0.2-18.4 0.3l-19.8 1.1c-13 14.3-16.8 19.1-16.8 19.8-0.1 0.7-0.7 1-1.4 0.5-0.7-0.4-4.5 2.8-8.4 7.2-4 4.4-8.2 7.9-9.4 7.9-1.2 0-3 1.5-4 3.5-0.9 1.9 6.9 2.8 10.6 4.7l2.8 9.2c16.5-9.2 24.9-12.3 29.3-12.8l8-0.9c-7.5 5.7-8 11-8.6 12.7-0.7 1.7-1.2 3.5-1.2 4 0 0.5-8.1 15.5-7.1 16 1 0.4 4.2-1.6 7.1-4.5 2.9-2.9 6.1-5.3 7.1-5.3 1 0-0.6 4.4-3.6 9.8-2.9 5.3-4.7 10.1-4 10.6 0.8 0.4 6-1.6 11.6-4.5 8.6-4.4 10.1-4.8 9.8-2.2-0.4 2.2 0.8 3.2 3.9 3.3 2.5 0.2 6.5-0.6 8.9-1.7 2.5-1 4.9-2.5 5.4-3.2 0.4-0.7 3.6-3.3 7.1-5.7 3.4-2.5 6.8-4.2 7.5-3.7 0.7 0.5 1.3 2.8 1.3 5.3 0 2.4 1 4.5 2.3 4.5 1.2 0 3.4-1.7 4.8-3.8 1.8-2.4 4.7-3.9 8.3-4.1 3.1-0.1 5.2 2.7 6.4 4.1 1.2 1.3 12.8 18.5 13.8 21.5 1.4 4.4 13.5 4.4 16.6 4.4 3 0 52.6-12.6 54.8-12.7 2.2-0.2 6.5 0.7 9.4 2 2.9 1.3 7.5 5.6 10.2 9.7 2.7 4 6.2 11.8 7.7 17.4 1.6 5.7 3.3 12.3 3.8 14.7 0.5 2.4 0.9 6.8 0.9 9.8 0 2.9-0.5 9.3-1.2 14.2-0.6 4.9-1.3 9.8-1.5 11.1-0.2 1.2-3.4 8.7-6.6 11.5-2 1.7-4.1 13.8-0.4 13.8 4.7 0.1 9.5 2 16.4 6.7 5.4 3.6 10.2 7.1 10.6 7.6 0.5 0.5 3.9 2.7 7.6 4.9 6.2 3.6 6.7 3.6 7.6 0.8 0.4-1.7 0.2-3.9-0.6-4.9-0.8-1-1.8-6.2-2.2-11.6-0.4-5.3-2.6-22.9-2.5-34.6 0-13.4 1-24.4 2.7-29.8 1.4-4.7 3.1-8.5 3.9-8.4 0.7 0 20.8-32.9 22.7-37.3 1.9-4.4 7-11.4 11.4-15.5 4.4-4.2 9.1-7.8 10.3-8.1 1.2-0.3 25.1-3.9 27.1-3.8 1.9 0.2 9.9 0.9 17.7 1.6 7.8 0.8 16.2 1.6 18.7 1.9 2.4 0.2 11.4 2.9 20 6 8.5 3 15.6 3.8 16.3 4.2 7.3 3.2 3.7-11.1 0.8-15.5-2.8-4.4-10.4-9.2-18.9-14.9zm190.1 56.2c-6 4.6-21.2 14.7-33.7 22.4-12.5 7.8-24.2 15.4-25.9 16.9-1.8 1.5-3.2 3.2-3.1 3.7 0 0.5 2.2 3.4 4.9 6.6 2.7 3.1 6.3 8.1 8 11.1 2.8 4.8 2.8 5.7 0.4 8-2.3 2.4-1.5 3.9 7.6 13.5 5.6 6 12.9 14.6 16.1 19.1 3.2 4.6 6.2 8.7 6.6 9.2 0.4 0.5 7.1-4.9 15-12 7.8-7.1 14.2-13.9 14.2-15.1 0-1.2-1.6 0-3.6 2.7-3.2 4.5-3.6 4.6-5.9 1.7-1.6-1.9-2.3-6.2-2-11.1 0.2-4.4 1.5-12 2.7-16.8 1.2-4.9 2.9-9.9 3.8-11.1 0.8-1.3 1.1-3.5 0.6-4.9-0.5-1.5-0.1-2.7 0.9-2.7 1 0 1.5-0.6 1.1-1.3-0.4-0.8 0.3-6.6 1.5-12.9 1.7-9.4 1.7-12.9-0.2-18.7-2-5.9-2-7.9 0-11.9 1.3-2.7 2.3-4.9 2.2-4.9-0.1 0.1-5.1 3.9-11.2 8.5zm-114.2 91.8c0 0.5 11.1 18.7 14.6 26.7 3.5 8.1 7.4 15.1 11.1 24.4 3.8 9.3 9.4 23.5 15 35.7 5.5 12.2 9.1 24.7 11.7 32.5 3.5 10.3 1.4 19.8 1.2 28.2-0.1 6.3-0.4 13.4-1.3 20.6-0.6 4.3 0.7 0.5 3.8-1.9 1.9-1.5 4.8-4.1 6.5-5.8 1.7-1.8 3.1-4.6 3.1-6.3 0-1.7 0-4.5 0-6.2 0-1.7 0-6.7 0-11.1 0-4.4-0.8-8.4-1.7-8.9-1-0.5-1.8-2.5-1.8-4.4 0-2-2.7-11.4-6-20.9-3.2-9.5-9.2-23.7-13.2-31.5-4-7.8-5.6-15-7.9-18.4l0.4-2.7c6.2 3.3 10.5 11.5 14.9 9.9 2.3-0.9 31.2 17.2 40.6 15.7 9.8-1.5-48.3-28-55.1-33.9-5.4-4.7-6.7-3.5-17.8-19.1-4.7-6.5-16-23.3-16.8-23.4-0.7 0-1.3 0.3-1.3 0.8zm66.8-423c0 0 24.9-54 25.9-53.9 0.9 0.1 10.2-35.8 10.8-34.5 0.7 1.4 3-18.9 4.3-16.1 1.6 3.3 1-13.2 3.3-13.6 2.1-0.3 0.7-5.5 1.5-8.7 0.8-2.9-2-14.9-1.3-25.7 0.6-10.7 0.6-25.5 0-32.8-1.2-13.1-1.4-13.6-12.7-28-6.4-8-12.3-14.6-13.3-14.6-1 0-7.8 6.4-15.1 14.2-7.4 7.8-14.5 14.2-16 14.2-1.5 0-3.1-1.4-3.7-3.1-0.6-1.7-4.1-11.9-7.9-22.7-3.7-10.7-11.3-30.3-16.9-43.5-5.5-13.2-15.5-34.2-22.3-46.6-6.7-12.5-12.9-22.7-13.6-22.7-0.7 0-3.3 2-5.8 4.6-2.4 2.6-9.2 8.1-15.1 12.3-5.8 4.2-15.8 10.2-22.2 13.4-6.3 3.2-16.5 7.6-22.6 9.9-6.1 2.4-12.3 4.2-13.8 4.2-1.4 0-14-14.3-28-29.6-13.9-15.4-33.7-35.4-43.9-44.5-10.3-9.1-25.7-21.5-34.2-27.6-8.6-6.1-25.8-16.5-38.2-23.1-15.8-8.3-24.5-12-28.9-11.9-3.4 0-16.2 3.3-28.4 5.2-12.2 1.9-34.6 6.6-49.7 10.5-15.2 3.9-36.7 10-48 13.6-11.2 3.5-28.4 8.4-38.2 10.9-9.7 2.4-19.1 4.7-20.8 5.2-2.4 0.6-5.5-3.4-13.3-17.5-5.5-10-18.7-31.1-29.3-47-10.5-15.9-19.8-29.2-20.7-29.6-0.8-0.4-8.6 2.2-17.3 5.9-8.7 3.7-19.6 8.5-24.2 10.6-7.4 3.3-10.1 6.2-21.7 23.7-7.2 11-18.3 30.4-24.6 43.1-6.4 12.7-13.7 28.3-16.4 34.6-2.6 6.4-6.6 18-8.9 25.8-2.2 7.8-3.1 12.6-2 10.7 1.2-2 5.1-10.2 8.9-13.7 3.8-3.4 13.4-18.1 26.1-35 12.6-17 27-29.5 33-35.8 5.9-6.2 21.9-11.2 22.9-11.4 1-0.3 4.6-1.6 8-3.1 3.4-1.5 9-3.3 12.4-4 6.2-1.3 9.5 2.5 37.2 35.1 17.7 20.9 21.7 39.5 22.9 39.4 1.2 0 28-6.4 38.1-8.7 10-2.4 21.4-4.8 25.3-5.4 3.9-0.5 9.1-1.8 11.5-2.7 2.5-1 22.8-5.8 45.3-10.8 22.8-5.1 44.8-9 49.7-8.9 4.9 0.1 12.5 0.6 16.9 1.1 4.4 0.5 12.8 2.7 18.7 4.7 5.8 2.1 11.8 4.7 13.3 5.9 1.5 1.1 3.8 2.5 5.3 3 1.5 0.5 15.5 10.8 31.1 22.8 15.6 11.9 39.8 30.9 53.3 44.4 13.1 13.1 35.8 29.8 46.6 42 10.7 12.3 18.4 24.6 19.1 25.3 0.3 0.3 19.6-11 31.7-23.9 12.1-13 25.1-30.8 25.7-31.1 0.6-0.3 4.7 16.5 11.2 30.3 6.7 14.1 16.9 34.5 17.2 35.7 3 12.4 6.8 32.7 7.7 37.3 13.6 69.1 0.3 165.4 2.9 174.7 2.6 9.3 52.6 14 51.2 17.5z"/>
			<path id="Path 0" class="s7" d="m1379 605.7c-0.8 1.3-2.2 17.9-3.5 23.8-1.3 5.8-9.1 78.6-11.9 92.8-2.8 14.1-4.8 30.7-7.3 39.4-2.5 8.8-4.7 17.1-6.1 21.5-1.6 5.1-5.1 22.5-4.1 24.5q1.6 3.2 4.6 1.8c1.6-0.7 9.1-19.6 14.7-31.3 5.7-11.7 12.7-28.9 15.7-38.2 3-9.3 7.9-25.1 9.9-34.4 0 0 14.1-94.5 5.8-100.7-8.4-6.2-10.4-9-9.8-10.2 0.5-1.2-4.1-4.2-5.9-6-2.6-2.6-0.8 15.2-2.1 17zm-150.5 497.5c0 1.5 0.8 3.1 1.8 3.6 1.1 0.6 1.1 1.6 0 3.1-1.3 1.6 0.4 4.5 5.8 10.3 4.1 4.4 9.6 10.8 12.3 14.2 2.6 3.4 19.1 23 18.6 23.5-0.4 0.5 13 16.1 13.8 17.3 3 4.3 6.8 8.2 8.7 10.2 2.5 2.6 25 11.9 26.8 11.9 1.7 0 3.1-0.4 3.1-0.9 0-0.5-23.3-25.1-29.5-32.1-6.2-7.1-15.5-17.3-20.2-23.1-4.7-5.9-15.2-18.7-22.9-27.2-7.7-8.6-15.6-13.4-16.5-13.4-1 0-1.8 1.2-1.8 2.6zm181.9 29.5c-2.4 2.6-3.2 5.7-2.8 10.2 0.3 3.6 0.6 10.5 0.7 15.4 0.1 4.9-0.4 11.3-1 14.2-0.6 2.9-3.2 13.7-5.8 24-2.5 10.2-4.2 21-3.8 24 0.4 2.9 1.3 6.5 2.1 8 1.1 2.1 2.6 1.2 7.4-4.5 4.4-5.2 6.8-10.7 9.1-20.4 2.1-9.3 3.1-21 3.1-39.1 0-14.1-0.6-27.9-1.3-30.6-0.7-2.7-2-4.9-2.9-4.9-0.8 0-3 1.7-4.8 3.7zm-49.7-309.4c-0.6 1.1 11.4 24.5 13.3 28.2 1.9 3.6 4.2 8.6 5.2 11.1 0.9 2.4 1.7 5 1.8 5.7 0.1 0.8 1.8 4.8 3.7 8.9 2 4.2 3.6 10.4 3.6 13.8 0.1 3.4 2.5 10.6 3.2 11.6 0.7 1 3.5 3.2 6.2 4.9 2.6 1.6 5.4 3 6.2 3 0.7 0.1 0.8-3.7 0.2-8.4-0.7-4.6-4-19.8-7.5-27.1-3.4-7.3-9.5-13.9-11.3-16.9-1.7-2.9-2-7.3-2.7-7.5-0.8-0.3-1.3-1.5-1.3-2.7 0-1.2-1.4-3.7-3.3-5.4-2.1-2.1-16.5-20.4-17.3-19.2zm-24.4 49.6c-1.1 2.3-0.8 21.6-0.9 35.5-0.1 3.4-4.1 13.7-5.1 17.7-0.6 2.7-1.3 5.3-1.4 5.7-0.2 0.5-1.3 4.5-2.6 8.9-1.3 4.4-4.2 12.4-6.6 17.8-2.4 5.4-4.3 10.6-4.3 11.5 0 1 0.3 8.3 2.9 9.8 4.3 2.5 4.8 2.4 8-1.8 1.9-2.4 8.8-13.3 11.2-17.7 2.3-4.4 5.2-14 6.4-21.4 1.2-7.3 1.8-15.3 1.4-17.7-0.7-4-7.5-51.2-9-48.3z"/>
			<path id="Path 0" class="s8" d="m667.6 469.1c-5.6 8.1-9.6 12.9-11.8 20.5-1.5 5.3-3 19.3-5.3 31.1-2.4 11.7-7.1 29.3-8.3 39-1.3 10.5-2.3 37.6-2.2 65.8 0 35.4 2.5 52.8 4.7 66.6 2.9 18.5 1.1 18.6-2.7 24.8-2.2 3.4-16.8 19.4-32.6 35.5-15.7 16.2-32 34.5-36.1 40.9-4.2 6.3-8.8 15.9-10.3 21.3-1.6 5.4-2.8 15.4-2.9 22.2 0 6.9 1.4 17.2 3.1 23.1 1.7 5.9 4.8 13.9 6.7 17.8 2 3.9 8.3 11 11.8 15.8 3.9 5.3 8.5 11.3 8.9 9.8 0.3-1.4-2.8-10.1-4.8-15-1.9-4.9-4.4-12.5-5.4-16.8-1-4.4-2.3-13.2-3-19.6-0.8-8.3-0.3-14.8 1.9-23.1 1.6-6.3 5.4-15.9 8.4-21.3 3.1-5.4 8.8-13.8 12.7-18.6 4-4.9 11.8-13.7 17.3-19.6 5.6-5.8 12.9-14.2 16.2-18.6 3.4-4.4 9-12.2 12.6-17.3 3.6-5.2 5.9-9.3 5.2-9.3-0.8 0.1-0.4-0.9 0.9-2.2 1.7-1.7 2.4-16.4 2.8-59.2 0.5-44.8 1.5-63.1 4.5-87 2.1-16.6 5.1-37 6.6-45.3 1.6-8.3 3.1-16.3 3.4-17.7 0.3-1.5 1.4-6.3 2.4-10.7 1-4.4 2.2-10 2.6-12.4 0.4-2.5 1.8-7.7 2.9-11.6 1.2-3.9-0.1-11-0.4-13.4-0.6-4.1-0.6-8.9-9.8 4.5zm147.2 689c-3.4 1.2-7.1 3.8-8.3 5.7-1.1 1.8-5 8.8-8.5 15.4-3.6 6.6-6.9 14.8-7.3 18.2-0.9 5.6-0.6 6.2 3.2 5.8 2.2-0.3 5.3-1.7 6.7-3.2 1.5-1.4 3.2-3.8 3.8-5.3 0.6-1.5 6.3-10.2 12.7-19.5 6.3-9.3 11.1-17.3 10.6-17.8-0.6-0.5-2.3-1-3.9-1.2-1.6-0.2-5.7 0.7-9 1.9zm-5.8-49.3c-5.2 3.5-12.3 9.2-15.7 12.6-3.4 3.4-10.2 8-15.1 10.3-4.9 2.2-10.2 5.5-11.8 7.3-1.5 1.8-4 5.7-5.5 8.6-1.5 3-3.2 7.2-3.8 9.4-0.7 2.6-0.3 4 1.1 4 1.3 0 5.7-1.4 9.8-3.1 4.1-1.8 7.5-3.9 7.5-4.9 0-1 8.6-10.2 19.1-20.6 10.5-10.3 20.9-20.9 23.1-23.5 2.2-2.6 3.3-5.2 2.4-5.7-0.9-0.4-5.9 2-11.1 5.6z"/>
			<path id="Path 0" class="s9" d="m628 800c-17.3-3.5-29.7-14.5-27.7-24.6 2.1-10.1 17.7-15.4 35.1-11.9 17.3 3.5 29.7 14.5 27.6 24.6-2 10.1-17.7 15.4-35 11.9zm484.5 83.4c-41.5 7.9-77.2 2.9-79.8-11.1-2.7-14 28.7-31.6 70.2-39.5 41.5-7.8 77.2-2.9 79.8 11.1 2.7 14-28.7 31.7-70.2 39.5z"/>
		</g>
		<g id="Beak">
			<path id="Path 0" fill-rule="evenodd" class="s10" d="m832.8 789.8c6.6 0 13.8 0.9 16 2 2.2 1.1 7.1 4.5 11 7.5 3.8 3.1 10.6 11.1 15.2 18 4.6 6.8 11.8 19.2 16.1 27.4 5.4 10.1 11.7 18.7 19.6 26.6 6.4 6.5 15.4 15.1 20 19.2 5.6 5.2 8.3 9 8.3 12 0 2.7-2.5 6.9-6.3 10.7-5.1 5.2-7.9 6.4-16.4 7.3-5.6 0.7-18.2 0.6-28-0.1-9.7-0.7-20.1-1.6-23-2-4.8-0.7-4.7-0.5 0.8 1.2 3.5 1 13.4 3 22.2 4.3 9 1.4 16.6 3.4 17.3 4.7 0.7 1.3 1.3 4.6 1.4 7.2 0 2.9-1.7 6.4-4 8.5-2.2 2-7.2 5.2-11.1 7.2-3.9 2-9.5 5-12.4 6.6-4.1 2.3-9.8 3-24.1 3-14.3 0-20.6-0.7-26.6-3.3-4.4-1.8-11.5-5.2-15.9-7.5-4.4-2.2-14.6-10.1-22.7-17.5-9.9-9-14.7-14.7-14.7-17.4 0-2.2 1.6-5.6 3.7-7.5 3.4-3.2 5.3-3.5 34.5-1.3l-10.6-2.7c-5.9-1.4-16.7-2.7-24-2.8-7.3 0-27.3 0.6-75.5 2.8l-5.8-4.7c-4.3-3.5-5.7-6.1-5.7-10.4-0.1-3.2 1.9-9.8 4.3-14.7 2.4-4.9 10.2-14.7 17.3-21.9 9.9-10 18.1-15.9 34.3-25 11.7-6.6 29.3-16.3 39.1-21.5 9.8-5.3 21.4-11 25.8-12.7 4.6-1.8 12.9-3.1 19.9-3.2zm-13 118.2c0.4-0.6-0.8-1-2.7-0.9-2.4 0.1-2.6 0.4-0.7 1 1.5 0.5 3 0.5 3.4-0.1zm8.9 1.8c0.4-0.6-0.8-1-2.7-0.9-2.4 0.1-2.6 0.4-0.7 1 1.5 0.5 3 0.4 3.4-0.1zm6.7 2.1c0.6-0.8 0-1.4-1.4-1.4-1.4-0.1-1.9 0.5-1.2 1.3 0.8 0.8 1.9 0.8 2.6 0.1zm7.1 1.7c0.6-0.7 0-1.3-1.4-1.3-1.4-0.1-1.9 0.5-1.2 1.3 0.8 0.7 1.9 0.8 2.6 0zm7.5 1.5c0.4-0.6-0.8-1-2.7-0.9-2.4 0.1-2.6 0.4-0.7 1 1.5 0.5 3 0.5 3.4-0.1zm7.7 1.8c1.2-0.4 0.2-0.8-2.2-0.8-2.5 0-3.5 0.4-2.2 0.8 1.2 0.4 3.2 0.4 4.4 0z"/>
			<path id="Path 0" class="s11" d="m819.1 798.7c-3 0.9-15.3 6.6-27.6 12.8-12.2 6.1-30.8 16.3-41.5 22.7-12.9 7.7-23.3 15.6-31.5 23.9-6.7 6.9-14.4 16.7-17.1 21.8-3.9 7.3-4.5 9.9-2.9 12.4 1.1 1.8 4.5 3.3 8 3.6 4.7 0.4 8-1 15.3-6.6 5.2-4 14.7-10.2 21.3-14 6.6-3.7 19.6-10.4 28.9-14.8 9.3-4.4 23.5-12.5 31.5-18.1 8.1-5.5 17.9-10.8 21.8-11.8 3.9-1 8.1-1.3 9.3-0.8 1.2 0.5 10.3 11.9 20.1 25.3 9.9 13.4 22.3 28 27.6 32.5 5.3 4.6 15 11.6 21.6 15.6 6.6 4 13.4 7.3 15.1 7.3 1.7 0 4.9-1.2 7.1-2.6 2.3-1.6 4-4.5 4-7.1 0-3.5-2.7-6.4-12-13.1-6.6-4.8-14.9-12.5-18.3-17.3-3.5-4.8-12.3-18.7-19.5-30.9-7.2-12.2-16.3-25.7-20.3-30-3.9-4.3-9.8-8.9-13-10.2-3.1-1.4-9.5-2.4-14.2-2.3-4.6 0.1-10.8 0.9-13.7 1.7z"/>
		</g>
		<g id="Eyes">
			<path id="Path 0" fill-rule="evenodd" class="s12" d="m751.6 569.6c4.9-0.1 11.7 0.4 15.1 1.1 4.2 0.8 9.3 4.3 16.1 11.1 5.6 5.6 12.3 14.9 15.6 21.4 3.5 7 6.2 15.9 7 22.5 1 8.5 0.7 11.5-1.4 13.8-2 2.2-5.7 3-14.7 2.9-6.6 0-14.2 0.8-16.9 1.8-2.6 1-8.6 4.4-13.2 7.6-4.6 3.1-11.4 10.3-15.3 16.3-3.9 5.8-9.8 17-13 24.8-5.8 13.9-6 14.8-6 65.9l7.6 12.3c4.1 6.9 7.5 14 7.5 16-0.1 1.9-1.4 5-3.1 6.7-1.7 1.7-5.5 3.2-8.4 3.1-2.9 0-10.1-2.3-16-5.2-6.1-3-14.1-8.9-18.6-13.8-4.3-4.7-9.7-12.6-11.9-17.5-2.2-4.8-5.3-13.6-6.9-19.5-1.9-6.7-3.3-20.7-3.9-37.3-0.6-16.6-0.1-32.3 1.3-41.7 1.1-8.3 4.4-22.3 7.2-31.1 2.9-8.8 7.9-20.4 11.3-25.8 4.3-7 9.5-12.1 18.2-17.9 6.7-4.5 14.8-9.6 18.1-11.4 3.2-1.7 8-3.8 10.6-4.5 2.6-0.8 8.8-1.5 13.7-1.6zm324.3 198.8c3.6 0 6.3 1.5 8.8 4.9 2 2.7 3.6 6.7 3.5 8.9 0 2.2-0.7 5.8-1.6 8-0.8 2.2-2.9 5.4-4.5 7.1-1.7 1.7-5.6 3.1-8.7 3.1-3.1-0.1-7.1-1.5-8.8-3.1-2-2-3.3-5.9-3.3-10.5-0.2-5.7 0.9-8.7 4.6-12.9 3.3-3.8 6.4-5.5 10-5.5zm-81.9-165c2.5-0.1 7.3 1.6 10.7 3.7 3.4 2 19 12.9 34.6 24.1 15.6 11.2 29.4 21.7 30.7 23.3 1.2 1.6 2.2 4.9 2.2 7.4 0 2.5-2.1 6.5-4.9 9.2-3.1 3.1-8.1 5.5-13.8 6.5-4.9 1-12.4 3.2-16.7 5-4.3 1.8-10.7 6.5-14.2 10.5-3.5 4-8.9 12.4-12.1 18.6-3.1 6.3-6.5 15.4-7.4 20.3-0.9 4.9-2.2 15.7-2.9 24-0.9 11.2-0.5 18.3 1.7 27.5 1.6 6.9 4.8 16.5 7 21.3 2.3 4.9 7 12.3 10.6 16.5 3.7 4.3 6.5 9.4 6.5 12 0 2.4-1.4 5.7-3.1 7.3-2.4 2.2-5.7 2.7-13.9 2.2-8.1-0.5-14.4-2.5-25.7-8-10.7-5.3-17.6-10.1-23.9-16.9-4.9-5.3-11.8-14.4-15.4-20.2-3.6-5.8-9.1-18.2-12.2-27.5-4.3-12.8-5.9-21.2-6.6-34.6-0.5-9.8 0-25.8 1.2-35.6 1.2-9.8 4.2-22.8 6.7-29.3 2.5-6.3 7-15.9 10-21.3 3.1-5.3 12-16.1 19.8-23.8 7.8-7.7 17-15.9 20.5-18.1 3.4-2.2 8.2-4.1 10.6-4.1zm-216 129.6c3.1 0 7 1.4 8.7 3.1 1.8 1.6 3.2 5.2 3.1 7.9 0 2.7-0.8 6.9-1.8 9.3-1 2.5-3.4 6.1-5.3 8-2 2-5.8 3.6-8.5 3.5-2.7 0-6.3-1.4-8-3.1-2.2-2.1-3.2-5.9-3.3-12.2-0.1-8.1 0.5-9.7 4.8-12.9 2.6-2 7.3-3.7 10.3-3.6z"/>
			<path id="Path 0" class="s13" d="m982.2 616.8c-5.7 4.6-14 12.6-18.4 17.9-4.4 5.3-9.1 11.7-10.4 14.4l-2.5 4.8c9.2-8.3 13.1-11.8 14.6-13.1 1.5-1.4 5-3.6 7.7-4.9 3.1-1.6 8.5-2.2 15.1-1.7 5.6 0.5 15.2 2.8 21.3 5.4 6.1 2.5 11.1 4.1 11.1 3.6 0-0.5 2.2 0.6 4.9 2.4 2.6 1.7 7.6 4.6 11.1 6.3 3.4 1.7 7.8 4.1 9.9 5.2 2 1.2 5 3.1 6.6 4.3 1.7 1.2 2.6 3 2.1 4-0.5 1 1.6 1.8 4.9 1.8 3.2 0 9 0.5 12.9 1.2l7.1 1.1c-16.5-12.4-32.9-24.4-47.1-34.6-14.2-10.3-28.6-20.4-32-22.5-3.4-2.1-6.7-3.8-7.4-3.8-0.6 0-5.8 3.7-11.5 8.2zm-251.4-35.3c-6.6 3.7-15.4 9.8-19.6 13.6-4.3 3.9-6.6 7.2-5.4 7.5 1.3 0.4 5.3-1.2 8.9-3.5 3.7-2.4 10.3-4.9 14.7-5.7 4.4-0.8 12.4-1.3 17.7-1 5.4 0.2 12.8 1.8 16.4 3.4 3.6 1.7 10.2 7.4 14.7 12.8 4.4 5.3 9.4 13.6 11.1 18.3 1.7 4.7 4.9 9.7 7.1 11.1 3.9 2.5 4 2.4 4-4.6 0-3.9-1.7-12.1-3.7-18.2-2.1-6.1-5.4-13.5-7.4-16.4-2-2.9-6.5-8.4-10-12.1-3.5-3.8-8.6-8-11.3-9.4-2.7-1.3-9.5-2.5-15.1-2.4-8.4 0-12.3 1.1-22.1 6.6z"/>
		</g>
		<path id="Path 0" fill-rule="evenodd" class="s14" d="m1113 25.2c16.1 0.3 38.5 2 49.8 3.6 11.2 1.6 29.2 5.1 39.9 7.9 10.8 2.7 27.6 7.9 37.3 11.5 9.8 3.6 26.6 11 37.3 16.3 10.8 5.4 26.4 14.2 34.7 19.6 8.3 5.5 21.5 14.7 29.3 20.6 7.8 5.9 23.8 20.4 35.5 32.2 11.8 11.8 26.9 28.6 33.7 37.4 6.7 8.8 18.6 25.6 26.3 37.3 7.7 11.7 19.9 33.3 27.1 48 7.2 14.6 16.2 34.6 20.1 44.4 3.8 9.7 9.9 27.7 13.5 39.9 3.5 12.2 10.3 38.6 15.1 58.6 4.7 20.1 9.9 44.4 11.5 54.2 1.7 9.8 4.1 28.6 5.5 41.8 1.5 13.5 2.6 42.1 2.6 65.7 0 22.9-0.8 52.1-1.8 64.8-1 12.7-3.1 32.3-4.6 43.5-1.6 11.3-3.9 22.4-5.1 24.9-1.3 2.4-5.2 7-8.7 10.2-3.7 3.3-9.3 6.2-13.1 6.9-3.7 0.6-11.9 0.6-18.2 0-6.4-0.7-17.9-3.3-25.8-5.8-7.8-2.5-17.4-6.2-21.3-8.1-3.9-1.9-7.9-3.1-8.9-2.7-0.9 0.4-6.7 15.8-12.9 34.3-6.1 18.5-15.7 43-31.5 75.4l12.2 16.4c6.8 9 15.3 22.8 19 30.6 3.7 7.8 8 19.4 9.5 25.7 1.6 6.4 2.8 18 2.8 25.8 0 11.1-0.7 15.5-3.5 20-2.1 3.4-5.6 6.2-8.4 6.8-2.7 0.7-7.3 0.6-10.2 0-3-0.7-11.4-4.7-18.7-9.1-7.3-4.3-13.7-7.9-14.2-7.9-0.5 0-1.5 6.9-2.2 15.5-0.7 8.5-2.4 19.5-3.7 24.4-1.4 4.9-4.3 12.5-6.5 16.9-2.3 4.4-6.2 10.7-8.7 14.1-2.6 3.3-8.3 8.3-12.7 11.1-4.7 3-10.4 5-14.2 5.1-3.5 0-8.8-1.8-12.3-4.1-3.4-2.2-8.6-7.4-11.6-11.4-2.9-4.1-5.8-7.5-6.3-7.6-0.4-0.1-2.4 2.5-4.3 5.6-1.9 3.2-7.9 10.5-13.3 16.2-5.4 5.7-13.5 12.7-17.9 15.5-4.4 2.8-10.4 5.9-13.3 6.8-4 1.2-6.8 0.9-11.3-1.3-5.8-2.9-6.2-2.8-14.2 1.7-4.5 2.6-11 5.6-14.5 6.6-3.4 1.1-7.6 3.6-9.3 5.6-3 3.5-2.9 3.7 1.8 6.5 2.7 1.6 12.9 8.2 22.6 14.6 11.5 7.6 25.1 19 38.4 32.2 11.3 11.2 26.8 28.8 34.4 39.1 7.7 10.3 16 20.9 18.5 23.6 3.3 3.4 6.4 4.9 10.4 4.9 3.2-0.1 8.4-1.5 11.6-3.2 3.1-1.7 6.1-3.5 6.6-4 0.5-0.6 13.7-9.8 29.3-20.7 15.7-10.8 31.2-21.1 34.7-22.8 3.4-1.8 9.8-3.3 14.3-3.4 4.8-0.1 9.9 1.1 12.8 2.9 2.7 1.8 7.2 8.1 10.1 14.3 3 6.3 6.1 16.8 7.2 24.4 1.1 7.3 1.7 19.4 1.4 26.9-0.3 7.5-0.1 14.1 0.3 14.7 0.5 0.5 3.3-1.4 6.3-4.4 3.7-3.8 7-5.3 11.1-5.3 4.1 0 6.9 1.5 9.8 4.9 2.5 3 5.7 11.3 8 20.9 2.1 8.8 5.1 24 6.6 33.8 1.5 9.7 3.2 29.7 3.8 44.4 0.7 15.9 0.3 35.6-1 48.8-1.1 12.2-3.2 29-4.7 37.3-1.4 8.3-3.9 20.7-5.4 27.5-1.5 6.9-6.4 23.7-10.8 37.3-4.5 13.7-11.6 32.9-15.9 42.7-4.3 9.7-11.9 24.9-16.9 33.7-5 8.8-13.6 22.8-19 31.1-5.5 8.3-17.6 24.3-27 35.5-9.4 11.3-23.4 26.7-31.2 34.4-7.7 7.7-20.4 19-28.2 25.1-7.8 6.1-23 16.7-33.8 23.5-10.7 6.9-24.5 15-30.6 18-6.1 3.1-11.1 6.2-11.1 6.9 0 0.8 1.5 4.5 3.4 8.5 1.8 3.9 8.7 22.6 15.2 41.7 6.4 19 15.5 41.8 20.2 50.6 4.6 8.8 10.1 16.8 12.1 17.8 2 1 5.2 3.1 7 4.8 1.9 1.7 8.6 5.1 14.9 7.6 6.4 2.5 14.8 6.5 18.7 8.9 3.9 2.4 9.1 6.2 11.5 8.4 2.5 2.3 7.5 7.9 11.1 12.5 6.1 7.7 7.3 8.4 14.2 8.4 4.2 0 16.8 1.2 28 2.7 11.2 1.4 32.8 4.7 48 7.1 15.1 2.5 36.3 6.5 47 8.9 10.8 2.4 28.8 7.3 40 10.8 11.2 3.5 25.2 8.7 31.1 11.5 5.8 2.7 14 7.8 18.2 11.3 4.2 3.5 8.3 8.9 9.3 12.1 0.9 3.2 1.1 8 0.4 10.6-0.7 2.7-4.2 7.9-7.7 11.6-3.5 3.7-11.9 9.6-18.6 13.1-6.8 3.6-19.9 9.3-29.2 12.7-9.2 3.5-26 8.7-37.3 11.7-11.2 3-32 7.9-46.1 10.9-14.2 3-37.4 7.4-51.5 9.8-14.2 2.4-42.6 6.4-63.1 8.8-20.5 2.4-56.1 6-79 7.9-23 2-59 4.4-80 5.4-21 1-45.3 2.3-54.1 2.9-8.8 0.6-53.2 1-98.6 1-45.4-0.1-91.8-0.5-103-1.1-11.3-0.5-37.2-1.8-57.8-2.8-20.5-1-52-3-70.1-4.5-18.1-1.5-51.3-4.7-73.7-7.1-22.5-2.5-58.1-7.2-79.1-10.5-21-3.4-48.6-8.2-61.3-10.7-12.7-2.5-35.8-7.8-51.5-11.7-15.6-3.9-35.6-9.6-44.4-12.5-8.8-3-23.1-8.9-31.9-13.1-8.8-4.2-18.7-10.4-21.9-13.6-4.2-4.3-6.1-8.1-6.9-13.9-1-7.3-0.5-8.6 5.2-15.1 3.4-3.9 11.7-10.1 18.4-13.6 6.8-3.6 19.5-9 28.3-11.9 8.7-3 25.5-7.8 37.3-10.7 11.7-2.9 26.4-6.4 32.6-7.7 7.2-1.4 11.7-3.3 12.1-5 0.4-1.4 3.2-7.8 6.4-14.2 3.6-7.4 9.8-15.7 17.2-23.1 7.6-7.5 16.6-14.1 25.8-18.9 7.8-4.1 19.8-9 26.6-11.1 6.9-2 19.3-4.8 27.6-6.2 8.3-1.4 23.9-3.1 34.6-3.8 13.8-0.8 25.3-0.3 39.1 1.7 10.7 1.5 28.3 4.4 39.1 6.3 10.7 2 28.7 4.1 39.9 4.8 11.3 0.6 22.6 0.6 25.3 0 2.7-0.7 5.4-2.6 6.1-4.3 0.6-1.7 7.3-21.5 28.6-84.8l-4.7-2.1c-2.6-1.2-14.3-6.3-26-11.2-11.7-5-29.3-13.6-39.1-19.1-9.7-5.5-25.3-15.2-34.6-21.5-9.3-6.2-25.3-18.4-35.5-27-10.3-8.5-24.3-21.4-31.2-28.6-6.8-7.2-17.3-19.1-23.1-26.4-5.8-7.3-12.7-16.1-15.2-19.5-2.5-3.4-9.4-14.2-15.3-24-5.8-9.8-14-24.4-18-32.4-4-8.1-10.5-22.7-14.4-32.4-3.9-9.8-9.5-25.6-12.3-35.1-2.8-9.5-6.8-25.7-8.9-36-2.2-10.2-4.9-29.4-6.1-42.6-1.3-13.2-2-34.8-1.7-48 0.3-13.2 1.8-32.7 3.4-43.5 1.5-10.7 5.5-30.3 8.9-43.5 4-15.9 9.2-30.5 15.4-43.5 5.1-10.7 12.1-22.6 15.5-26.3 3.4-3.7 7.4-6.7 8.9-6.7 1.4 0 7 3.2 12.4 7 5.4 3.8 14.9 9.7 21.3 13.2 6.3 3.5 17.1 7.9 24 9.8 6.8 2 14.4 4 16.9 4.5 4.3 0.9 4.4 0.8 3.8-8.3-0.5-7.9 0.5-11.4 7.3-25.2 4.3-8.8 12.6-22 18.5-29.3 5.8-7.3 19.8-22.1 31.1-32.9 18.3-17.3 20.4-19.9 19-23.5-1.1-2.7-4-4.6-9.1-5.8-4.2-1-19.2-5.1-33.4-9.1-14.1-4-36.1-10.9-48.8-15.3-12.7-4.4-31.9-12.2-42.6-17.2-10.8-5.1-27.2-13.9-36.4-19.5-9.3-5.7-23.3-15.3-31.1-21.5-7.8-6.1-21.1-18.2-29.5-26.8-8.3-8.7-17.9-19.8-21.2-24.7-3.3-4.8-8.9-15.2-12.5-23.1-3.7-7.8-8-20.2-9.7-27.5-2.3-9.8-2.9-17.5-2.2-29.3 0.7-11.9 2.2-19.1 6-28.4 2.8-6.8 8.1-17.2 11.9-23.1 4-6.3 20.6-24.2 40.4-43.5 25.9-25.4 33.3-33.7 32.7-36.4-0.4-2-2.9-13.6-5.4-25.8-3.8-18.1-4.8-29-5.6-59.5-0.6-24.1-0.2-43.9 1.2-55.9 1.2-10.3 4.1-30.3 6.5-44.4 2.5-14.2 5.5-29.8 6.9-34.7 1.3-4.9 1.9-9.4 1.2-10.1-0.6-0.7-4.4 1-8.3 3.8-3.9 2.8-13.3 8.3-20.9 12.3-7.5 4.1-14.9 7.3-16.4 7.3-1.4 0-2.6-1-2.6-2.2 0-1.2 2.6-6.6 5.7-12 3.1-5.3 10.4-14.7 16.4-20.8 5.9-6.1 10.3-11.5 9.8-12-0.5-0.5-4.9 0.8-9.7 2.9-8.1 3.4-9.5 3.5-15 1.3-3.4-1.3-9.6-6.4-13.8-11.3-4.3-4.9-9.9-13.3-12.4-18.7-3.6-7.3-4.4-11.3-3.6-16 0.6-3.4 5.4-15 10.7-25.7 5.2-10.8 13.5-25.9 18.3-33.8 4.9-7.8 16-23.8 24.7-35.5 8.7-11.7 23.8-30.9 33.6-42.6 9.7-11.7 28.9-32.5 42.7-46.2 13.7-13.7 34.2-32.5 45.4-41.9 11.2-9.4 29.5-24 40.8-32.4 11.2-8.4 31.6-22.2 45.2-30.8 13.7-8.5 36.1-21.3 49.8-28.4 13.7-7.1 33.2-16.4 43.5-20.7 10.3-4.3 27.4-10.8 38.2-14.4 10.7-3.6 28.7-8.9 39.9-11.6 11.3-2.8 29.3-6.4 40-8.1 10.8-1.7 26.7-3.7 35.5-4.5 8.8-0.8 29.2-1.1 45.3-0.7zm-91.4 36.4c-10.8 2.1-28.8 6.4-40 9.6-11.2 3.3-30.8 10.1-43.5 15.1-12.7 5.1-33.5 14.5-46.2 20.8-12.7 6.4-31.1 16.5-40.9 22.4-9.7 5.9-22.5 13.9-28.4 17.8-5.8 4-19.4 13.7-30.2 21.6-10.7 8-29.1 22.9-40.8 33.2-11.7 10.3-33.3 31.1-48 46.1-14.6 15.1-34.7 37.4-44.5 49.6-9.9 12.2-26.4 33.7-36.8 47.9-10.4 14.2-18.5 26-18 26.2 0.4 0.2 10.9-5.1 23.4-11.9 12.4-6.7 34.6-17.8 49.3-24.6 14.6-6.8 34.2-15.2 43.5-18.6 9.3-3.5 22.1-7.9 28.4-9.9 6.4-1.9 13.8-4 16.4-4.6 4.8-1 4.8-1.1 2.3-5.9-1.5-2.7-2.7-7.1-2.7-9.8 0-2.6 1.4-8.6 3.2-13.3 1.7-4.6 7.1-13.6 12-19.8 4.8-6.3 14.6-15.7 21.7-20.9 7-5.2 15.3-12.9 18.3-17 3-4.2 7-10.5 8.9-14.2 1.9-3.7 7.1-9.3 11.7-12.4 4.6-3.2 14.8-10.7 22.6-16.6 7.9-5.9 15.6-11.4 17-12.2 1.5-0.8-0.9 2.2-5.3 6.8-4.4 4.6-14.8 13-23.1 18.7-9 6.2-16 12.4-17.4 15.5-1.3 2.8-4.9 9-8 13.7-3.6 5.5-11.5 13.1-21.4 20.5-10.9 8.1-18.3 15.3-23.9 23.3-4.5 6.3-8.8 14.7-9.6 18.6-0.9 3.9-0.9 8.9-0.1 11.2 0.8 2.2 4.5 5.8 8.4 8 3.9 2.1 11.7 9.5 17.5 16.3 5.8 6.9 15.2 19.7 20.9 28.5 5.8 8.8 14.3 24.1 19 34.2 4.6 10 9.2 18.2 10.2 18.2 1-0.1 7.8-2.5 15.1-5.5 7.3-3 24.5-8.6 38.2-12.5 13.7-3.8 36.4-9.4 50.6-12.3 14.2-2.9 34.1-6 44.4-6.8 10.3-0.8 24.4-1.4 31.5-1.3 9.3 0.1 12.9-0.5 12.9-2 0-1.3 3.5-8.1 7.9-15.1 4.3-7.1 11.1-16.1 15.1-20 4-3.9 7.2-6.5 7.2-5.8 0 0.7-2.8 4.7-6.2 8.9-3.5 4.1-9.1 13.5-12.6 20.9-6 12.6-6.2 13.4-3.1 15.5 1.8 1.3 9.6 5.6 17.5 9.6 7.8 4.1 21.8 12.4 31 18.5 9.3 6.2 24.9 17.9 34.7 26.1 9.7 8.2 29.9 27.4 44.8 42.7l27.1 27.9c35.1-23.9 50.1-34.7 56-39.3 5.8-4.7 13.6-12.4 17.2-17.1 3.6-4.6 8.7-13.3 11.5-19.1 4.2-9 5-13 5-25.3v-14.6c6.1 15.8 7.9 23.9 7.9 28.3 0 4.4-1 12-2.3 16.9-1.4 4.9-3.8 11.7-5.5 15.1l-3.1 6.2c16.9 26.2 26.9 43.8 33.1 56 6.2 12.2 14.6 30.4 18.6 40.4 4 10 7.3 20 7.3 22.2 0 3.5 0.4 3.3 3.5-1.8 2-3.2 6.2-7.7 9.3-10.2 3.2-2.4 6.8-4.4 8-4.4 1.3 0 10.4 7.1 20.5 15.8 10 8.7 29.8 27.7 43.9 42.2 14.2 14.5 29 29.9 33 34.3 3.9 4.4 11.4 13.2 16.6 19.6 5.3 6.3 10.2 11.7 11.1 11.9 0.8 0.3 1.9-4.1 2.3-9.7 0.5-5.6 1.4-36.2 2-68 0.8-39.1 0.5-64.6-0.9-79-1.1-11.7-4-33.3-6.5-48-2.4-14.6-7.3-37.8-10.7-51.5-3.5-13.6-9.9-36-14.4-49.7-4.5-13.7-11.6-33.3-15.9-43.5-4.3-10.3-13.1-28.7-19.5-40.9-6.4-12.2-18.2-32.2-26.4-44.4-8.1-12.2-21.2-29.8-28.9-39.1-7.8-9.2-22-24.4-31.7-33.7-9.7-9.3-24.8-22.3-33.5-28.8-8.8-6.6-24-16.8-33.8-22.6-9.7-5.8-24.9-13.7-33.7-17.6-8.8-3.8-23.6-9.4-32.9-12.5-9.3-3.1-26.8-7.6-39.1-10.1-18.9-3.9-28-4.6-62.1-5.2-22-0.4-46.4 0.1-54.2 1-7.8 0.8-23 3.3-33.7 5.3zm-279.8 280.9l-18.6 8.7c-19.2 29.5-29 46-34.1 55.8-5.1 9.7-12.8 26.1-17.2 36.4-4.4 10.2-10.8 29.4-14.3 42.6-3.4 13.2-7.9 33.6-9.8 45.3-2 11.7-4.4 30.1-5.4 40.9-1 10.7-1.8 34.3-1.9 52.4 0 19.2 1.3 43.9 3 59.5l3 26.6c-6.5 11-21.3 27.4-37 43.5-15.8 16.1-31.1 32.9-34.1 37.3-3.1 4.4-7.3 12.4-9.4 17.8-2.1 5.4-4.3 14.9-4.8 21.3-0.6 7.6 0.1 15.8 2 24 1.6 6.8 6.3 18.8 10.4 26.6 5.5 10.5 12.1 19 25.2 32.7 9.8 10.1 25.4 24.1 34.6 31 9.3 7 25.3 17.7 35.6 23.9 10.2 6.2 26.6 15.1 36.4 19.9 9.8 4.8 32.1 13.5 49.7 19.3 17.6 5.8 45.2 13.8 61.3 17.8 16.1 3.9 38.5 9.1 49.7 11.5 11.3 2.4 24.1 5 28.5 5.8l8 1.3c-11.1 2.1-21.3 2.7-29.8 2.8l-15.5 0.1c-17.2 16.9-32.6 30.8-45.3 41.7-12.7 10.9-26.6 23.8-30.8 28.6-4.3 4.8-10.9 13.5-14.7 19.4-3.9 5.9-8 13.6-9.2 17.3-1.2 3.6-1.6 7-0.8 7.5 0.7 0.5 9.5-2.4 19.5-6.4 10-4 24.6-10.5 32.4-14.4 7.8-3.9 16.4-8.6 19.1-10.4 2.7-1.9 4.9-3 4.9-2.5 0 0.5-6.9 7.5-15.3 15.5-12.6 12.2-16.5 17.2-22 28.9-3.7 7.8-8.4 19.8-10.5 26.7-2.1 6.8-3.8 17.2-3.8 23 0 5.9 1.2 14.3 2.7 18.7 1.4 4.4 4.2 9.4 6.2 11.1 3.5 3 3.8 2.8 11.6-6.2 4.3-5.1 8.2-8.9 8.5-8.5 0.4 0.5 2.5 7.3 4.7 15.1 2.2 7.9 8.1 22.2 13 32 6.4 12.6 11.7 20.4 18.2 26.7 5.1 4.8 16.2 12.4 24.6 16.8 13.7 7.2 15.7 7.8 19.7 5.8 2.5-1.2 17.1-10.5 32.5-20.6 15.4-10.1 44-30.1 63.5-44.4 19.6-14.3 39-28.8 43.1-32.2 6.1-5.1 8.3-6 11.5-4.7 2.2 0.8 12.6 6.8 23.1 13.3 10.5 6.5 19.1 11.4 19.1 10.9 0-0.5-1.3-6.3-2.9-12.9-2-8.1-3-19.8-3-36-0.1-13.1 0.8-28.1 2-33.3 1.2-5.1 2.8-9.3 3.5-9.3 0.7 0 1.9 2.6 2.7 5.8 0.7 3.1 1.3 9.4 1.3 13.8-0.1 4.4 2 15.1 4.5 23.9 2.5 8.8 7.4 23.2 10.9 32 3.4 8.8 10.8 25.2 16.4 36.4 5.6 11.3 13.4 25.2 17.4 31.1 4 5.9 12.3 16.4 18.5 23.4 6.2 7.1 18.9 18.9 28.2 26.2 9.3 7.4 24.5 17.4 33.7 22.2 9.3 4.9 17.5 8.9 18.3 9 0.7 0 0.5-3-0.4-6.6-0.9-3.7-4.1-13.5-7-21.8-2.9-8.3-9.8-24.5-15.2-36-5.4-11.4-9.3-20.8-8.5-20.8 0.7 0.1 5.7 6.6 11.1 14.6 5.3 8 16.5 21.4 24.9 29.7 8.3 8.3 20.7 18.9 27.5 23.4 6.8 4.5 18 11 24.8 14.5 6.9 3.4 17.5 7.9 23.6 9.9 6.1 2.1 13.5 3.8 16.4 3.8 2.9 0 7.3-1 9.8-2.2 2.5-1.3 5.4-4.7 6.5-7.6 1.3-3.4 1.7-10.8 1-20.4-0.6-10-2.9-20.9-6.6-32-3.1-9.3-8.4-22.9-11.8-30.2-3.5-7.3-8.6-16.9-11.5-21.3-2.9-4.4-4.9-8.2-4.4-8.4 0.6-0.3 10.4 4.5 21.9 10.6 11.5 6.2 23.8 12.6 27.5 14.3 3.7 1.6 7.1 3 7.6 3 0.4 0 0.8-2.6 0.8-5.7 0-3.2-1.8-11-4.1-17.4-2.2-6.3-8.7-18.7-14.4-27.5-7-10.8-17.3-22.8-31.9-37.1-11.8-11.6-24.1-23.2-27.3-25.8-3.3-2.5-5.9-5.4-5.9-6.4 0-1 1-0.9 2.3 0.3 1.3 1.2 7.1 3.9 13 6.1 5.8 2.1 11.8 4.7 13.3 5.8 1.5 1-3.4-4.5-10.8-12.3-7.3-7.7-18.1-19.7-24-26.5-5.8-6.8-15.9-18.8-22.3-26.6-6.5-7.9-17.8-20-25.3-27.1-7.4-7.1-20.1-17.2-28.2-22.5-8-5.2-23.8-14.3-35.1-20.3l-20.4-10.7c-37.2 2.8-59.5 3.1-73.7 2.5-14.2-0.6-25.4-1.5-24.9-1.8 0.5-0.4 9.3-2.4 19.6-4.6 10.2-2.1 30.2-6.9 44.4-10.7 14.1-3.8 32.3-9.3 40.4-12.3 8-2.9 19.6-7.8 25.7-10.9 6.1-3.1 15.5-8.6 20.9-12.3 5.4-3.6 13.8-10.7 18.7-15.7 4.8-5 9.4-9.1 10.2-9.1 0.7 0 1.3 1.4 1.3 3.2 0.1 2.6 0.3 2.7 1.8 0.4 1.2-1.9 1.7 0.9 1.7 9.3l0.1 12c11.7-7.8 18.5-14 22.8-18.8 4.3-4.8 10.9-15.1 14.9-22.9 3.9-7.8 8.5-19.8 10.2-26.7l3.1-12.4c19 38.1 26.6 51.7 29.1 54.8l4.7 5.6c6.2-5.5 10.3-11.9 13.1-17.8 2.7-5.8 5.9-16.2 7-23.1 1.2-6.8 1.6-18 1.1-24.8-0.5-6.9-3.1-20.9-5.6-31.1-2.6-10.3-4.2-19.1-3.7-19.6 0.6-0.4 9 4.8 18.7 11.6 9.8 6.8 25 17.2 33.8 23.1 8.8 5.8 16.4 10.2 16.8 9.8 0.4-0.5-0.3-6.1-1.6-12.5-1.3-6.3-5.8-18.3-9.9-26.6-4.2-8.3-10.6-19.5-14.2-24.9-3.6-5.4-10.5-14.2-15.3-19.5-4.8-5.4-9.7-11.2-11-12.9-1.8-2.6-0.5-6.5 8.4-24.9 5.7-11.9 12.6-27.3 15.2-34.2 2.5-6.8 7-21.2 9.8-31.9 2.9-10.8 6.4-27.2 7.9-36.4 1.6-10.1 2.7-28.5 2.7-45.8v-28.8c-7.6-9-12-14.6-14.7-18.3-2.6-3.6-6.6-7.5-8.8-8.5-3.6-1.8-5.3-0.6-17.8 12.4-11.6 12.2-14.1 14-16.5 12.1-1.5-1.2-5.2-9.8-8.2-19.1-3.1-9.2-10.7-29.2-17-44.4-6.2-15.1-15-34.3-19.4-42.6-4.5-8.3-10-18.5-12.3-22.6-2.4-4.2-4.9-7.6-5.6-7.5-0.7 0-5.7 3.7-11.1 8.1-5.4 4.5-15 11.3-21.3 15-6.4 3.8-18.4 9.7-26.7 13.1-8.3 3.5-16.8 6.3-19 6.3-2.7 0-7.5-3.7-14.3-11-5.6-6.1-20.6-21.8-33.3-34.9-12.7-13.1-30.2-29.8-39-37.2-8.8-7.4-22.8-17.8-31.1-23.2-8.3-5.4-23.5-14.1-33.8-19.3l-18.6-9.5c-34.4 4.4-56.8 8.5-72 12-15.1 3.5-38.7 9.9-52.3 14.2-13.7 4.4-34.3 10.3-45.8 13.1-11.5 2.9-21.5 5-22.2 4.6-0.7-0.3-6.1-8.9-11.8-19.1-5.8-10.1-19-31-29.3-46.5-11-16.4-19.9-27.9-21.5-27.8-1.5 0.1-4.7 1-7.1 2.1-2.4 1.1-12.8 5.8-23.1 10.6zm643 807.6c-11.3 7.6-26.3 17.3-33.6 21.7-7.2 4.3-13.3 8.2-13.6 8.7-0.2 0.5 3.4 6.1 8.2 12.4 8.2 11 8.5 11.8 5.6 14.7-2.9 2.9-2.5 3.6 6.8 13.3 5.4 5.6 12.6 14 16 18.7 3.4 4.7 6.5 8.5 7 8.4 0.5 0 7.3-5.7 15.1-12.6 7.8-6.9 14.9-14.3 15.7-16.4 0.9-2.1 3.1-11.1 4.9-19.8 2.2-10.3 3.4-23.3 3.4-36.5 0-11.2-0.8-23.4-1.8-27-1-3.7-2.3-6.7-3.1-6.7-0.7 0.1-3.3 1.7-5.8 3.7-2.4 2-13.6 9.8-24.8 17.4zm-745.1 79.2c-2.4 11.8-5.2 28.6-6.2 37.3-1 8.8-1.8 27-1.8 40.5 0 13.4 1.3 34.2 2.8 46.1 1.6 12 5.5 32.2 8.8 44.9 3.2 12.7 9.2 31.9 13.4 42.6 4.2 10.8 12.1 28.3 17.5 39.1 5.5 10.7 15.3 27.5 21.8 37.3 6.6 9.8 16.4 23.3 21.8 30.2 5.5 6.8 17.7 20.3 27.2 29.9 9.5 9.6 25.2 24 35 31.9 9.8 7.9 25 19.1 33.7 24.8 8.8 5.8 28.8 16.8 44.4 24.4 15.7 7.7 39.3 17.6 52.4 21.9 13.2 4.4 33.6 10 45.3 12.4 11.8 2.5 28.9 5.5 38.2 6.7 9.3 1.3 35.2 2.3 57.7 2.4 37.9 0.1 42.6-0.2 64-4.7 12.7-2.7 27.9-6.3 33.7-8.1l10.7-3.2c-13.8-10.2-19.4-13.1-21.3-13.1-2-0.1-9.4 1.1-16.4 2.6-8 1.6-12.9 2-12.9 0.9 0-1 3.4-2.3 7.5-2.9 4.2-0.7 12.4-3.2 18.2-5.7 5.9-2.5 15.5-7.5 21.3-11 5.9-3.5 20.3-11.1 32-16.8 11.7-5.7 24.3-12.3 28-14.6 3.7-2.2 7-3.9 7.4-3.7 0.5 0.3-5.7 5.7-13.7 12l-14.5 11.6c12.3 1.8 19.5 3.7 23.9 5.3 4.4 1.6 9.6 4.1 11.5 5.5 2 1.4 4.8 2.5 6.3 2.5 1.4-0.1 9.8-3.8 18.6-8.3 8.8-4.6 20.4-11.1 25.8-14.5 5.3-3.5 15.3-10.4 22.2-15.5 6.8-5 19.2-15.5 27.5-23.2 8.3-7.7 19.9-19.2 25.8-25.6 5.9-6.3 16-18.3 22.4-26.6 6.5-8.3 16-21.9 21.2-30.2 5.2-8.3 14.4-25.1 20.4-37.3 6.1-12.2 13.9-30.2 17.3-39.9 3.5-9.8 8.4-25 10.8-33.8 2.5-8.8 6.1-24 8-33.7 1.9-9.8 4.4-26.6 5.6-37.3 1.3-12.2 1.8-33.4 1.2-56-0.5-20-1.9-43.2-3.1-51.5l-2.1-15.1-67.4 65.7c2.8 9.7 3.8 14.9 4 17.8 0.2 2.9 0.3 7.9 0.1 11.1-0.2 3.5-2.2 8-5.1 11.3-2.7 3.1-8.1 7.2-12 9.1-6.1 3-7.7 3.2-10.7 1.2-3.2-2.1-3.4-2-2.3 1.1 0.7 1.9 3 9.5 5.1 16.8 2.8 9.5 4 18.4 4.1 31.1 0.2 15.2-0.4 18.8-3.8 25.3-2.2 4.2-6.6 9.5-9.8 11.9-3.1 2.4-9.3 5.6-13.7 7.1-4.4 1.6-11.6 2.8-16 2.8-4.4-0.1-12-1.2-16.9-2.5-4.9-1.3-15.7-5.1-24-8.5-8.3-3.3-18.8-8.6-23.5-11.8l-8.4-5.7c-1.4 9.7-3.6 14.1-5.8 16-2.2 2-7.6 4.1-12 4.7-5.1 0.7-11.6 0.1-18.2-1.8-5.6-1.6-16-5.8-23.1-9.3-7.1-3.6-18.5-10.3-25.3-14.9-6.8-4.6-19.1-14.7-27.3-22.4-8.2-7.7-18.7-19.2-23.4-25.5-4.7-6.4-12.9-18.8-18.2-27.6l-9.7-16-58.2-39.3c-39.9 30.2-64.7 48.3-80.8 59.7-16.1 11.5-38.9 27.3-50.6 35.1-12.3 8.3-22.2 16.3-23.5 19-1.3 2.5-2.2 10-2.2 16.6-0.2 13.6 0.9 11.8-0.6 17.4-1.5 5.6-4.8 17.4-4.8 20.3 0 2.9 1.1 9.2 4 12.7 6.1 7.2 6.8 12 8 14 1.2 2.1 0.3 4.5 0.3 9.7 0 5.1 7 27.4 8 29.8 1 2.5-3.1-0.3-8.5-14.6-0.3-0.8-2.6-8.3-3.1-11.7-0.7-4.6-0.4-10.2-0.7-12.4-0.5-4-3.4-8.2-7.5-14.8-5.4-8.8-4.3-15.8-3.6-22.6 0.5-4.4 2.1-7.6 2.8-14.9 1-10.3 1.7-26.1 2.2-32.9l1.4-5.3c-16.9-4.6-34.7-16.9-40.6-21.2-5.9-4.3-17.4-13.4-24.1-19.4-6.8-5.9-17-17.3-23.3-25.2-6.3-7.8-15-20.2-19.5-27.5-4.4-7.3-6.6-13.5-7-13.8-0.4-0.2-6.1 3.7-12.7 8.8-6.6 5-14.6 10.2-17.7 11.5-3.2 1.3-7.8 2.4-10.2 2.4-2.5 0-4.9 0.8-5.4 1.8-0.5 0.9-1.9 1.8-3.1 1.8-1.7 0.1-1.7-0.4 0-2.2 1.7-1.8 0.2-4.3-7.6-12.5-5.3-5.6-13.5-16-18-23.1-4.6-7.1-12.9-22.5-18.5-34.2-5.5-11.7-10.8-24.3-11.8-28-0.9-3.6-2.5-6.6-3.4-6.6-0.9 0-3.8 7.4-6.5 16.4-2.6 9-6.8 26-9.2 37.7zm543.8 445c0.6 2.4 2.9 7.2 5 10.6 2.1 3.5 8.2 16.2 13.6 28.5 5.4 12.2 15.5 38.9 22.4 59.5 7 20.5 13.2 40.9 13.8 45.3 0.7 4.3 0.8 10.1 0.2 12.8-1 4.2-3.2 5.7-14.9 10.1-7.6 2.8-16 5.6-18.7 6.2-2.6 0.6-4.8 1.4-4.8 1.9 0 0.5 0.8 2.9 1.7 5.4 1 2.4 1.2 4.7 0.5 5.2-0.8 0.4-3-1.6-4.9-4.5-3.5-5.2-3.8-5.3-15.1-4.2-6.4 0.6-21.1 3-32.9 5.2-11.7 2.3-28.7 6.6-37.7 9.6-9 3.1-22.2 8.4-29.3 12-7.1 3.5-17.7 9.8-23.5 13.9-5.9 4.2-14.4 11.5-18.8 16.3-4.5 4.7-9.8 11.8-11.8 15.7-2 3.9-4.1 9.5-4.8 12.5-0.6 2.9-0.4 7.7 0.4 10.6 0.9 3.5 3.5 6.5 7.5 8.6 4.8 2.5 9.1 3 19.5 2.5 11.3-0.6 15.2-1.7 26.4-7.6 8.8-4.7 19.6-13 32-24.6 10.4-9.6 23.2-20.4 28.6-24 5.4-3.5 15-8.7 21.3-11.5 6.5-2.9 12.9-4.6 14.7-4 1.7 0.6 3.1 1.7 3 2.5 0 0.7-3.4 3.7-7.5 6.6-4.1 2.9-14.3 11-22.6 17.9-8.3 7-18.4 17-22.4 22.3-4 5.2-9 12.9-11.1 17.1-2.1 4.1-3.8 10.7-3.8 14.7 0 3.9 0.7 8.5 1.5 10.2 0.9 1.7 4.3 4.3 7.6 5.7 3.8 1.7 11.1 2.6 20.2 2.6 10.4-0.2 16.8-1.3 24-4.2 5.3-2.2 14.9-7.5 21.3-11.7 6.3-4.3 22.7-18.9 36.4-32.6 13.7-13.7 25.5-24.5 26.2-24.1 0.7 0.4 3.3-1 5.8-3.2 2.5-2.2 4.5-5 4.4-6.2 0-1.3 0.8-1.9 1.8-1.4 1 0.5 7.3-3.1 14.2-8 6.8-4.9 12.8-8.7 13.2-8.4 0.4 0.2-6.5 8-15.4 17.3-8.9 9.3-19.7 21.7-24 27.5-4.4 5.9-10 14.7-12.4 19.6-2.6 5-4.6 12.3-4.7 16.7-0.2 7.2 0.3 8.2 6 11.5 4.8 2.9 9.1 3.7 19.5 3.6 10.7-0.1 15.3-1 23.1-4.9 5.4-2.6 13.7-7.7 18.6-11.4 4.8-3.6 13.5-12.2 19.2-19.1 5.8-6.8 14.2-18.4 18.7-25.7 4.5-7.4 10.5-19.7 13.2-27.6 2.7-7.8 4.9-17.8 4.9-22.2 0-4.5-1.4-10.7-3.3-14.2-2.1-3.7-6.8-8.1-12-11-4.8-2.7-11.1-5.6-14-6.4l-5.3-1.5c3.3 9.8 4.3 14.3 4.4 16.3 0 2.1-2.2-0.3-5.7-6.3-4.7-7.8-7.7-10.6-15.1-14.2-5.1-2.4-10.5-5.6-11.9-7.1-1.5-1.4-8.4-15-15.3-30.2-6.9-15.1-17.8-41.9-24.2-59.5-6.4-17.5-12.9-34.3-14.4-37.3-1.5-2.9-5.2-8.8-8.2-13-3.1-4.3-8.7-9.4-12.6-11.4-4.2-2.2-12.4-4.1-20-4.7l-12.8-1.1zm-40.3 46.2c-11.3 2.9-27.6 6.2-36.4 7.5-9.4 1.3-31.2 2.2-52.4 2.2-25.9-0.1-41.6-1.1-54.2-3.2-9.8-1.7-19.6-3.4-21.8-3.9-2.9-0.6-4.4 0.3-5.6 3.2-0.9 2.2-5.3 16.4-9.7 31.5-4.4 15.2-8.6 30.7-9.2 34.7l-1.1 7.1c32.6 15.6 46.3 23 51.4 26.5l9.3 6.3c133.3 0 134.5 0 163.4-5.2 16.1-2.8 30.7-5.6 32.4-6.2 1.7-0.6 3.1-2.2 3.1-3.7 0-1.4-4.7-16.4-10.6-33.3-5.8-16.8-14.1-39.8-18.4-51-4.3-11.3-8.5-20.6-9.4-20.8-0.8-0.2-3.5 0.5-6 1.5-2.4 0.9-13.6 4-24.8 6.8zm-246.1 41.8c-3.5 11.7-9.8 27.7-14 35.5-6.7 12.4-8.5 14.4-13.7 15.5-3.3 0.8-9.6 2-14 2.7-4.4 0.7-16 1.3-25.7 1.2-11.6-0.1-23.7-1.4-34.7-4-9.2-2.1-24-5-32.8-6.5-9.8-1.7-27-2.7-44.4-2.7-20.6 0-32.8 1-44.4 3.3-8.8 1.9-22.4 6-30.2 9.3-9 3.8-17.5 9-23.1 14.2-4.9 4.5-11.4 12.9-14.5 18.7-3.1 5.7-6.1 13.4-6.7 17.1-0.9 5.7-0.5 6.8 2.5 7.6 2.2 0.5 13.1-3.9 28.5-11.6 15.1-7.5 24.6-13.3 24.2-14.6-0.5-1.7 3.4-2.3 15.5-2.4 11.2-0.1 18.3-1 22.9-3.1 3.6-1.6 7.1-4.4 7.6-6.1 0.9-2.8 4.5-3.1 37.3-3.5 23.3-0.3 36.3 0.2 36.3 1.3 0 1-1.2 3-2.8 4.4-2.5 2.4-1.9 2.7 5.8 2.9 7.9 0.1 8.2 0.2 3.2 1.7-2.9 0.8-14.9 2.8-26.6 4.3-11.7 1.6-27.7 3.6-35.5 4.6-7.8 1-21.8 3.8-31.1 6.3-9.3 2.4-22.5 7.2-29.3 10.6-6.8 3.4-16.8 9.6-22.2 13.8-5.4 4.1-12.4 11.4-15.6 16.3-3.2 4.8-5.9 10.8-5.8 13.2 0 2.5 1.7 6.1 3.8 8 2.9 2.7 6.9 3.8 16.5 4.3 6.9 0.4 17.8-0.3 24.2-1.5 6.3-1.2 16.3-4.2 22.2-6.6 5.8-2.4 18.2-9.5 27.5-15.8 9.3-6.3 19.7-14.1 23.2-17.2 4.9-4.5 9.6-6.5 20.4-8.9 7.8-1.7 29.3-4.6 47.9-6.6 18.5-1.9 37.3-4.8 41.7-6.3 4.4-1.5 9.8-4 12-5.4 2.2-1.4 4-2 4.1-1.2 0 0.7-1 2.2-2.2 3.2-1.3 1.1-8.3 4.4-15.7 7.5-7.3 3.1-28.1 10-46.1 15.5-19 5.7-40 13.4-49.8 18.2-12.9 6.4-19.6 11.1-28.8 20.4-7.6 7.5-12 13.5-12.1 16 0 2.2 1.6 6.2 3.6 8.9 2 2.7 7 6.6 11.1 8.7 6 3.1 10.4 3.8 20.9 3.6 7.3-0.1 17.7-1.5 23.1-3.1 5.4-1.6 19.8-8.1 32-14.5 12.2-6.4 32.6-18.4 45.3-26.7 12.7-8.3 26.2-17.6 30.1-20.7 6.2-4.8 10.3-6.1 33.8-10.3 14.6-2.6 37.6-5.8 51-7.1 21.5-2 23.9-2.6 20-4.5-2.4-1.3-6-3.9-7.9-5.8-2.2-2.1-2.7-3.6-1.4-3.6 1.2 0.1 5 1.8 8.3 4 3.4 2.2 7.8 5 9.8 6.2 2 1.2 7.5 2.2 12.1 2.2 7.6 0.1 8.5-0.3 8.4-3.9 0-2.2-2-7.4-4.4-11.6-2.4-4.1-8.2-10.4-12.9-13.9-4.6-3.4-18.8-11.5-31.5-17.9-13.7-6.9-24.7-11.4-27-11-2.2 0.4-4 0.6-4.1 0.6 0 0 1.3-2.8 3-6.2 1.7-3.4 4.9-17 7.2-30.2 2.3-13.2 4.6-26.3 5.1-29.3 1.1-5.3 9.6-32.6-3.5-35.7-7.1-1.7-14.7-3.6-16.8-4.2-2.4-0.7-4.2-0.2-4.8 1.3-0.6 1.4-12.5 39.3-16 51.1zm426.6-1520.4c1.5 1.9 4.4 6.7 6.4 10.6 2 3.9 5.1 11.5 7 16.9 1.8 5.4 3.2 12.6 3.1 16-0.1 4.9-0.4 5.5-1.5 2.6-0.8-1.9-3.3-9.5-5.5-16.8-2.3-7.4-6-17.2-8.3-21.8-2.3-4.6-4.1-9-4.1-9.8 0.1-0.7 1.3 0.3 2.9 2.3zm-537.2 205.1c0.8 0 2.2 2 3.2 4.4 1 2.5 1.8 9.5 1.8 15.6 0 6.1-1.3 15.1-3 20-2.1 6.3-6.1 12-13.7 19.6-6.7 6.7-15.2 13-22.4 16.4-6.3 3.1-16.3 6.9-22.2 8.3-5.8 1.5-15 2.7-20.4 2.7-5.4 0-14.4-1.4-20-3.1-5.7-1.7-10.3-3.5-10.3-4 0-0.5 1.4-2.2 3.1-3.8 1.8-1.6 16-9.3 31.6-17.1 17.5-8.7 33.6-18.2 41.8-24.6 8.7-6.9 16-14.6 21.2-22.5 4.3-6.5 8.5-11.9 9.3-11.9zm192.1 8.8c1.1 0 6.4 7 11.8 15.6 5.4 8.5 14.3 21.2 19.8 28 5.6 6.8 14.4 16.5 19.6 21.6 5.2 5 16.3 14.5 24.6 21 8.3 6.6 29.5 21.6 47 33.3 17.6 11.8 32.8 22.1 33.8 23 1.1 1-1.4 1.2-6.2 0.5-4.4-0.6-16.4-3.1-26.7-5.6-10.2-2.5-26.6-7.5-36.4-11.1-9.8-3.7-24.9-10.3-33.7-14.9-10.1-5.2-21.9-13.3-32-22.1-8.8-7.7-18.1-16.7-20.7-20.1-2.6-3.3-6.8-10.5-9.3-15.8-2.8-5.9-4.6-13-4.7-17.8 0-4.4 1.2-11.6 2.8-16 1.5-4.4 4-10.6 5.5-13.7 1.5-3.2 3.7-5.8 4.8-5.9zm-204.4 94.5c7.3-0.2 8.3 0.1 7.2 2.8-0.6 1.7-2 4.2-3.1 5.6-1.4 1.8-1 3 1.6 4.9 2 1.3 6.3 5 9.6 8.2 3.4 3.2 8.9 11.7 12.3 19.1 3.4 7.3 7.7 20.5 9.5 29.3 1.8 8.8 3.8 26.4 4.4 39.1 0.7 13.8 0.3 29.1-0.9 38.1-1.1 8.3-4 22.3-6.6 31.1-2.5 8.8-7.2 21.6-10.5 28.4-3.2 6.9-9 16.1-12.9 20.5-3.8 4.4-10.8 10.6-15.7 13.7-5.7 3.8-12.5 6.4-19.8 7.6-7.4 1.2-15.8 1.2-25.3 0-9.1-1.1-16.9-3.3-21.8-6.1-4.1-2.3-10.6-7.3-14.3-11.1-3.7-3.7-8.8-10.8-11.3-15.7-2.5-4.9-6.2-14.8-8.2-22.2-2.9-10.8-3.6-18.8-3.6-42.6 0-23.8 0.7-32.8 4-48 2.2-10.2 6.6-25 9.8-32.8 3.3-7.8 8.8-19.2 12.3-25.3 3.6-6.1 10.3-14.9 15-19.6 4.8-4.6 13-10.6 18.2-13.2 5.3-2.7 16.9-6.4 25.7-8.2 8.7-1.9 19.7-3.5 24.4-3.6zm-64.3 46.3c-6.2 6.1-11.7 13.8-15.5 21.8-3.2 6.8-7.5 18.8-9.5 26.6-1.9 7.9-4.4 22.2-5.4 32-1.2 12.3-1.2 23 0.1 34.7 1.1 9.2 3.2 21.6 4.7 27.5 1.5 5.8 4.7 14.4 7 19.1 2.4 4.6 6.9 11.3 10.1 14.8 3.1 3.5 9.7 8.3 14.6 10.7 4.9 2.3 10.7 4.3 12.9 4.3l4-0.1c-7.2-8.9-10.8-14.3-12.5-17.7-1.8-3.5-4.2-13.4-5.3-22.2-1.2-8.9-1.6-20.8-1-26.7 0.7-5.8 2.1-14.2 3.1-18.6 1-4.4 5.3-15.2 9.4-24 4.9-10.2 10.7-19.2 16.3-25 4.7-5 13-11.6 18.4-14.6 7.5-4.4 11.9-5.7 19.1-5.7 6.4 0 11 1.1 14.6 3.6l5.4 3.5c0-11-1.7-19.2-3.8-25.3-2-6.1-5.3-13.5-7.3-16.4-2.1-3-6.6-8.4-10.1-12.2-3.5-3.7-8.6-7.9-11.2-9.3-2.7-1.4-9.5-2.5-15.1-2.5-8.2 0.1-12.6 1.3-21.8 6.2-6.3 3.4-15.9 10.4-21.2 15.5zm59.4 157.7c0.5 2.1 2.4 3.5 4.4 3.5 2 0 4.8-2 6.2-4.4 1.5-2.4 2.7-6 2.7-8 0-2-1.2-4-2.7-4.4-1.4-0.5-3.4-0.9-4.4-0.9-0.9 0-2.9 2.4-4.4 5.3-1.5 2.9-2.3 6.9-1.8 8.9zm201.9-186.5c2.3 0 8.9 2.2 14.8 5 5.8 2.8 19 10.5 29.3 17.1 10.2 6.7 26.6 18.2 36.4 25.7 9.8 7.5 32.6 25.9 50.6 40.9 18.1 15.1 38.7 31.4 45.7 36.4 7.1 4.9 12.7 9.2 12.4 9.5-0.2 0.3-8.3-2.4-18.1-6-9.8-3.6-22-8.4-27.1-10.7-5.1-2.3-9.1-3.6-8.8-2.9 0.3 0.7 3.1 6.5 6.2 12.9 3.1 6.3 6.9 17.1 8.3 23.9 1.5 6.9 2.7 16.9 2.7 22.2 0 5.4-1.2 15.4-2.6 22.3-1.5 6.8-5.6 18.4-9.2 25.7-4.5 9.3-10 16.8-18.2 24.9-7.3 7.2-16 13.6-23.2 17.1-6.4 3.1-15.6 7-20.5 8.6-5 1.7-17 3.5-27.5 4-14.2 0.6-21.4 0.1-30.2-2.2-6.3-1.6-15.9-5-21.3-7.6-5.5-2.5-14.1-8.9-19.6-14.5-5.3-5.5-12.6-15.5-16.2-22.3-3.6-6.9-8.1-18-10.1-24.9-2.1-6.8-4.7-19.6-5.8-28.4-1.7-12.2-1.7-19.9-0.2-32.8 1.3-10.1 4.9-25.1 9-37.3 3.7-11.3 9.1-24.9 11.8-30.2 2.7-5.4 7.9-14.2 11.5-19.6 3.7-5.4 10.7-13.5 15.8-18.2 5-4.6 9.9-8.4 10.9-8.4 1 0-0.6-5-3.4-11.1-2.9-6.1-5.7-12.9-6.4-15.1-1-3.4-0.5-4 3-4zm-7.3 66.2c-4.2 5.1-10.6 15.3-14.3 22.6-3.7 7.3-8.5 18.9-10.7 25.7-2.7 8.7-4.2 18.9-4.9 33.8-0.8 18.2-0.4 23.9 3.1 39.1 2.5 10.6 7 23.4 11.3 31.9 4.7 9.3 11 18 18 25.1 6.6 6.6 14.8 12.7 21.4 15.7 6.9 3.3 14.7 5.3 22.2 5.9l11.5 0.8c-11-9.5-16.7-17-19.7-22.8-3.1-5.7-6.7-14.4-8-19.3-1.6-5.8-2.4-17.1-2.3-32 0.1-15.2 1.2-27 3.2-34.6 1.6-6.4 6-16.8 9.8-23.1 3.7-6.4 9.1-14.3 11.9-17.6 2.8-3.3 8.7-7.8 13.1-10 4.4-2.2 13.2-5 19.5-6.2 6.7-1.2 15.7-1.5 21.4-0.8l9.7 1.2c-16.5-12.2-32.9-24.2-47-34.5-14.2-10.3-28.6-20.4-32-22.5-3.4-2-6.8-3.8-7.4-3.8-0.6 0-5.9 3.7-11.8 8.1-5.8 4.4-13.9 12.2-18 17.3zm104.2 153.5c-0.4 6.1 0 6.7 4 6.7 3.4 0 5.2-1.5 7.5-6.2 2.4-5 2.5-7 0.8-10.2-1.1-2.3-2.9-4.1-4-4-1.1 0-3.3 1.6-4.9 3.5-1.6 2-3.1 6.6-3.4 10.2zm-236.2-8.3c6 0 12 1.3 16.9 3.7 4.1 2.1 11.1 6.7 15.4 10.2 4.3 3.6 11.8 12.1 16.6 18.9 4.7 6.8 13.7 20.8 19.8 31.1 9.3 15.4 14.5 21.7 30.3 36.4 10.4 9.8 20.4 20.6 22.2 24 1.7 3.4 4 10.4 5.1 15.5 1.1 5.2 2 11.3 2 13.8 0 2.4-0.6 4.5-1.3 4.5-0.7 0-5.5-2.8-20-12.5l-13.8 12.9c-7.5 7.1-18.1 15.7-23.5 19.2-5.4 3.5-14.1 8.2-19.5 10.5-7.1 3.1-14.2 4.4-25.8 5-11.3 0.5-19.3-0.2-27.5-2.3-6.4-1.6-15.5-5.1-20.4-7.7-4.8-2.6-14.8-10.7-22.2-18.1-7.3-7.3-17-17.5-29.3-32l-12.5 2c-6.8 1.1-18.4 1.7-25.7 1.3-9.5-0.5-15.9-2-22.1-5.1-4.9-2.4-10.3-6.4-12.1-8.8-1.9-2.4-3.8-8-4.3-12.4-0.7-5.8 0.2-10.9 3.1-18.7 2.9-7.5 7.3-14 15.1-22.2 6.7-6.9 18-15.9 28.5-22.4 9.7-5.9 29.9-17.1 45.1-24.7 15.1-7.7 32.7-15.8 39-18 6.4-2.2 15.8-4.1 20.9-4.1zm-55.5 42.8c-18.6 9.9-37.3 20.6-41.7 23.8-4.4 3.2-12.5 10.5-18 16.2-5.4 5.7-11.2 13-12.8 16.2-1.7 3.1-3 7.7-3 10.2 0 3.6 1.3 4.8 6.7 6.4 5.1 1.5 14 1.2 38.6-1.2 27.5-2.6 34.1-2.7 47.1-0.8 8.3 1.3 29.1 5.9 46.1 10.3 27.1 6.9 34.1 8.1 54.2 8.7 19.8 0.7 24 0.3 29.3-2.4 3.4-1.8 6.4-4.7 6.7-6.4 0.3-1.9-2.1-4.7-6.2-7.3-3.7-2.3-10.3-7.4-14.7-11.2-4.4-3.9-10.9-11.4-14.4-16.7-3.6-5.3-10.3-16.8-14.9-25.6-4.7-8.8-11-19.3-14-23.3-3-4.1-8.7-9.9-12.6-13-3.9-3.1-9.9-6.4-13.4-7.3-3.4-0.9-7-1.6-7.9-1.6-1 0-6.2 1.6-11.6 3.6-5.4 1.9-24.9 11.6-43.5 21.4zm14.6 100.3c3.7 4.5 11.1 11.3 16.5 15.2 5.5 4 15.7 8.9 23.5 11.4 8.3 2.6 18 4.3 24.4 4.3 6 0 14.4-1.4 19.1-3.2 4.7-1.7 12.4-5.9 17.2-9.2l8.7-6.1c-23.1-3.1-44.7-7.7-62.7-12.1-18.1-4.5-37.5-8.5-43.2-9.1-5.7-0.5-10.3-0.5-10.3-0.1 0.1 0.4 3.2 4.4 6.8 8.9zm-78 359.2c6.5 4.5-0.8 23.5-0.2 42 0.9 30.7 1.4 35.3 6.2 50.7 2.8 9.2 4.9 17 4.6 17.3-0.2 0.2-3.1-6.2-6.4-14.2-5.7-14.2-5.9-15.6-6.4-44-0.3-16.1-2.6-43.4-2.1-50.2 0.2-4.3 0.6-4.2 4.3-1.6z"/>
	</g>
</svg>