<svg version="1.2" xmlns="http://www.w3.org/2000/svg" viewBox="0 0 800.0713287960294 800" width="800.0713287960294" height="800">
	<title>instagram-2-1-logo-svgrepo-com</title>
	<style>
		.s0 { fill: #000000 } 
		.s1 { fill: #ffffff } 
	</style>
	<path id="Shape 3" fill-rule="evenodd" class="s0" d="m194 0h413c107.1 0 194 86.9 194 194v412c0 107.1-86.9 194-194 194h-413c-107.1 0-194-86.9-194-194v-412c0-107.1 86.9-194 194-194z"/>
	<path id="Shape 1" class="s1" d="m132 153h171.9l120.2 158.1 137.9-158.1 82.7 0.1-182.7 208.9 215 284-167.9 0.1-131.3-172.7-151.8 172.6h-82l194.7-223z"/>
	<path id="Shape 2" class="s0" d="m229 200h51l299 397h-47z"/>
</svg>