<svg version="1.2" xmlns="http://www.w3.org/2000/svg" viewBox="0 0 800 800" width="800" height="800">
	<title>jupiter-ag-jup-logo</title>
	<defs>
		<linearGradient id="g1" x2="1" gradientUnits="userSpaceOnUse" gradientTransform="matrix(-415.692,666.789,-2216.605,-1381.885,617.442,61.703)">
			<stop offset=".16" stop-color="#c6f462"/>
			<stop offset=".89" stop-color="#33d9ff"/>
		</linearGradient>
		<linearGradient id="g2" x2="1" gradientUnits="userSpaceOnUse" gradientTransform="matrix(-415.68,666.789,-2293.513,-1429.788,619.466,59.847)">
			<stop offset=".16" stop-color="#c6f462"/>
			<stop offset=".89" stop-color="#33d9ff"/>
		</linearGradient>
		<linearGradient id="g3" x2="1" gradientUnits="userSpaceOnUse" gradientTransform="matrix(-415.68,666.789,-2407.329,-1500.742,625.102,63.366)">
			<stop offset=".16" stop-color="#c6f462"/>
			<stop offset=".89" stop-color="#33d9ff"/>
		</linearGradient>
		<linearGradient id="g4" x2="1" gradientUnits="userSpaceOnUse" gradientTransform="matrix(-415.692,666.789,-2961.005,-1845.962,614.929,57.018)">
			<stop offset=".16" stop-color="#c6f462"/>
			<stop offset=".89" stop-color="#33d9ff"/>
		</linearGradient>
		<linearGradient id="g5" x2="1" gradientUnits="userSpaceOnUse" gradientTransform="matrix(-415.692,666.789,-3032.816,-1890.731,618.33,59.132)">
			<stop offset=".16" stop-color="#c6f462"/>
			<stop offset=".89" stop-color="#33d9ff"/>
		</linearGradient>
		<linearGradient id="g6" x2="1" gradientUnits="userSpaceOnUse" gradientTransform="matrix(-415.68,666.789,-3074.014,-1916.356,627.679,64.966)">
			<stop offset=".16" stop-color="#c6f462"/>
			<stop offset=".89" stop-color="#33d9ff"/>
		</linearGradient>
	</defs>
	<style>
		.s0 { fill: url(#g1) } 
		.s1 { fill: url(#g2) } 
		.s2 { fill: url(#g3) } 
		.s3 { fill: url(#g4) } 
		.s4 { fill: url(#g5) } 
		.s5 { fill: url(#g6) } 
	</style>
	<g id="Folder 1">
		<path class="s0" d="m567.9 615.4c-85.1-138.2-212-216.5-368.6-249.1-55.4-11.5-111.1-11.3-164.8 9.8-36.8 14.5-42.4 29.8-25.1 68.4 117.7-27.9 227.2-1.9 329.7 57.3 103.3 59.7 180.4 142.9 215.4 261.1 49.2-15 55.5-23.3 43.7-69-7-26.9-15.8-54.9-30.3-78.5z"/>
		<path class="s1" d="m666 503c-109.3-159.2-264-248.3-453.2-278.1-50-7.9-101.1-5.7-148 18.3-22.4 11.4-42.2 26.1-47.6 57.1 147.5-40.6 279.8-4.7 404.4 67.5 125.2 72.6 223 170.1 261 319.8 26.5-23.4 31.3-52.2 24.4-78.9-9.5-36.7-20.1-75.3-41-105.7z"/>
		<path class="s2" d="m24 513.1c9.3 20.7 15.4 44 29.3 60.7 7 8.5 28.2 5.2 43 7.2 2.3 0.3 4.6 0.7 6.9 0.9 131 19.5 234.4 82.9 308.3 193.6 4.3 6.5 11.3 16.2 17.1 16.2 22.1-0.1 44.4-3.6 66.8-5.8-33.3-185-308.7-336.8-471.4-272.8z"/>
		<path class="s3" d="m726.5 357.9c-72.3-101-171.8-168.2-284.9-216.1-78.4-33.3-159.5-53.3-245.6-42.9-29.8 3.5-57.7 12.1-80.7 31.4 294 7.4 515.3 134.8 667.3 386.3 0.3-16.7 2.8-35.3-3.3-50.3-15.3-37.3-29.8-76.2-52.8-108.4z"/>
		<path class="s4" d="m794.2 305.2c-59.8-227.9-303.1-337.5-482.9-282 193.7 38.2 352.6 130.5 482.9 282z"/>
		<path class="s5" d="m88.1 634.5c69.6 88.3 158 139.7 271.3 156.4-43.3-80.9-195.9-168.4-271.3-156.4z"/>
	</g>
</svg>