<svg xmlns="http://www.w3.org/2000/svg" xmlns:xlink="http://www.w3.org/1999/xlink" viewBox="0,0,256,256" width="48px" height="48px" fill-rule="nonzero"><g fill="#ffffff" fill-rule="nonzero" stroke="none" stroke-width="1" stroke-linecap="butt" stroke-linejoin="miter" stroke-miterlimit="10" stroke-dasharray="" stroke-dashoffset="0" font-family="none" font-weight="none" font-size="none" text-anchor="none" style="mix-blend-mode: normal"><g transform="scale(10.66667,10.66667)"><path d="M12,2c-5.523,0 -10,4.477 -10,10c0,5.523 4.477,10 10,10c5.523,0 10,-4.477 10,-10c0,-5.523 -4.477,-10 -10,-10zM16.9,8.803c-0.182,1.088 -0.725,4.724 -1.038,6.976c-0.165,1.188 -0.809,1.261 -1.728,0.759c-1.21,-0.66 -2.338,-1.319 -2.8,-1.647c-0.421,-0.3 -1.057,-0.786 -0.328,-1.495c0.259,-0.253 1.441,-1.484 2.702,-2.805c0.338,-0.354 -0.033,-0.749 -0.355,-0.54c-1.793,1.166 -3.761,2.606 -4.075,2.819c-0.476,0.321 -0.932,0.47 -1.753,0.234c-0.62,-0.177 -1.225,-0.389 -1.461,-0.47c-0.907,-0.31 -0.692,-0.712 0.189,-1.097c3.534,-1.548 8.141,-3.561 8.765,-3.839c1.447,-0.644 2.136,-0.41 1.882,1.105z"></path></g></g></svg>