<svg version="1.2" xmlns="http://www.w3.org/2000/svg" viewBox="0 0 48 48" width="48" height="48">
	<title>icons8-telegram-app</title>
	<style>
		.s0 { opacity: .99;fill: #ffffff } 
	</style>
	<path id="Path 0" fill-rule="evenodd" class="s0" d="m23.8 4c2.3 0 5.9 0.7 7.9 1.6 2.1 0.8 4.9 2.5 6.1 3.7 1.3 1.2 3.3 3.9 4.3 5.9 1.1 2.3 1.9 5.9 1.9 8.8 0 2.9-0.8 6.5-1.9 8.7-1 2.1-3 4.8-4.3 6-1.2 1.2-4 2.9-6.1 3.7-2 0.9-5.5 1.6-7.7 1.6-2.2 0-5.7-0.7-7.8-1.6-2-0.8-4.8-2.5-6-3.7-1.3-1.2-3.3-3.9-4.3-6-1.1-2.2-1.9-5.8-1.9-8.7 0-2.9 0.8-6.5 1.9-8.8 1-2 3-4.7 4.3-5.9 1.2-1.2 3.9-2.9 5.8-3.7 1.9-0.8 5.4-1.5 7.7-1.6zm12.3 8h-3l-8 8-6-8h-8l10 14-9 11h3l8-9 7 9h8l-11-15zm-2 23h-3l-16-21h3z"/>
</svg>