<svg version="1.2" xmlns="http://www.w3.org/2000/svg" viewBox="0 0 1000 1000" width="1000" height="1000">
	<title>Tik-Tok-Logo-08</title>
	<style>
		.s0 { fill: #020202 } 
		.s1 { fill: #ee2353 } 
		.s2 { fill: #ffffff } 
		.s3 { fill: #6bcad0 } 
	</style>
	<g>
		<path class="s0" d="m673.2 271.4c-1.7-2-3.3-4-4.9-6.1 1.6 2.1 3.3 4.1 4.9 6.1z"/>
		<path class="s0" d="m448.1 714.6c-1.8-0.4-3.4-1-5.1-1.5 1.6 0.4 3.3 0.9 5.1 1.5z"/>
		<path class="s0" d="m653.9 242.2c4.1 8.3 9 16 14.4 23.1-5.4-7.1-10.3-15-14.4-23.1z"/>
		<path class="s0" d="m438.1 711.1c-1.6-0.7-3.2-1.3-4.8-2.1 1.6 0.8 3.2 1.6 4.8 2.1z"/>
		<path class="s0" d="m443 713c-1.6-0.6-3.3-1.2-4.9-1.9 1.6 0.7 3.3 1.3 4.9 1.9z"/>
		<path class="s0" d="m471.9 717.7c46.7 0 85.1-35.4 89.9-80.8-4.8 45.3-43.2 80.8-89.9 80.8z"/>
		<path class="s0" d="m424.3 704.2c2.2 1.3 4.4 2.7 6.8 3.7-2.3-1-4.5-2.4-6.8-3.7z"/>
		<path class="s0" d="m787.4 347.1c-9.2-2-18.3-4.9-26.9-8.5 8.6 3.7 17.7 6.5 26.9 8.5z"/>
		<path class="s0" d="m678.4 277.2c-1.8-1.8-3.5-3.8-5.2-5.8 1.7 2 3.4 4 5.2 5.8z"/>
		<path class="s0" d="m759.9 338.3c-1.2-0.5-2.5-1-3.7-1.7 1.2 0.7 2.3 1.2 3.7 1.7z"/>
		<path class="s0" d="m744.1 330.5c-0.3-0.1-0.5-0.3-0.8-0.5 0.3 0.1 0.5 0.4 0.8 0.5z"/>
		<path class="s0" d="m754.4 335.9c-0.9-0.4-1.8-0.9-2.7-1.3 1 0.4 1.8 0.9 2.7 1.3z"/>
		<path class="s0" d="m749.3 333.3c-0.7-0.3-1.2-0.7-1.8-0.9 0.6 0.2 1.1 0.6 1.8 0.9z"/>
		<path class="s0" d="m464.7 514.2c0.6 0.1 1.2 0.4 1.8 0.5-0.7-0.1-1.2-0.3-1.8-0.5z"/>
		<path fill-rule="evenodd" class="s0" d="m468.1 515.2v-85z"/>
		<path class="s0" d="m451.1 511.5c0.4 0 0.8 0.2 1.2 0.2-0.4 0-0.8 0-1.2-0.2z"/>
		<path class="s0" d="m461.3 513.4c0.7 0.1 1.5 0.4 2.1 0.5-0.6-0.1-1.3-0.4-2.1-0.5z"/>
		<path class="s0" d="m454.5 512.1c0.6 0.1 1.1 0.1 1.8 0.2-0.6-0.1-1.2-0.1-1.8-0.2z"/>
		<path class="s0" d="m458 512.6q1 0.2 2 0.4c-0.7 0-1.3-0.3-2-0.4z"/>
		<path fill-rule="evenodd" class="s0" d="m669.8 409.6z"/>
		<path class="s0" d="m500 0c-276.2 0-500 223.8-500 500 0 276.2 223.8 500 500 500 276.2 0 500-223.8 500-500 0-276.2-223.8-500-500-500zm318.7 457.2c-55.5 0-106.9-17.6-148.9-47.7v218c0 109-88.6 197.4-197.6 197.4-55.4 0-105.4-22.8-141.3-59.3-52.9-35.5-87.6-95.7-87.6-164.1 0-109.1 88.5-197.4 197.6-197.4 9 0 18.2 0.6 27.2 1.8v24.3c10.4-0.3 20.9 0.4 31.2 1.8v109.2c-8.8-2.8-18.1-4.2-27.4-4.2-50 0-90.4 40.4-90.4 90.4 0 19.7 6.5 38.9 18.4 54.7-29.5-14.9-49.6-45.5-49.6-80.7 0-49.8 40.4-90.4 90.3-90.4-49.9 0-90.3 40.4-90.3 90.4 0 35.2 20.2 65.8 49.6 80.7 6.8 8.7 15 16.3 24.4 22.1-9.4-5.8-17.7-13.4-24.4-22.1 12.2 6.2 26 9.7 40.7 9.7 49.9 0 90.3-40.3 90.4-90v-426.7h107.5v13.5q0.6 6.1 1.6 12.3c2.5 14.6 7.3 28.5 13.8 41.3-6.5-12.8-11.2-26.7-13.8-41.3h29.7v13.8c3 33.5 17.1 63.7 38.5 87.2-11-6.9-21-15.1-29.9-24.7 8.9 9.4 18.9 17.8 29.9 24.7q1.2 1.2 2.4 2.4-1.2-1.2-2.4-2.4c23.7 14.8 51.2 22.6 79.1 22.5v22.8 84.2-84.2c10.4 2.1 20.8 3.3 31.3 3.3z"/>
		<path class="s0" d="m447.7 511.3c0.1 0 0.4 0 0.5 0-0.1 0-0.3 0-0.5 0z"/>
		<path class="s1" d="m673.2 271.4c1.7 2 3.4 4 5.2 5.8 8.9 9.4 18.9 17.8 29.9 24.7-21.4-23.5-35.5-53.7-38.5-87.2v-13.8h-29.7c2.5 14.6 7.3 28.5 13.8 41.3 4.1 8.3 9 16 14.4 23.1 1.6 2.1 3.3 4.1 4.9 6.1z"/>
		<path class="s1" d="m468.1 515.2c-0.6-0.1-1.1-0.2-1.6-0.5-0.6-0.1-1.2-0.4-1.8-0.5-0.3-0.2-0.7-0.3-1.1-0.3-0.7-0.1-1.5-0.4-2.2-0.5-0.4-0.1-0.9-0.1-1.3-0.3q-1-0.2-2-0.4c-0.5-0.1-1.2-0.2-1.7-0.2-0.5-0.2-1.1-0.3-1.7-0.3-0.8-0.1-1.5-0.3-2.3-0.3-0.4 0-0.8-0.1-1.2-0.1-0.9-0.1-2-0.3-2.9-0.3-0.1 0-0.4 0-0.5 0-2.4-0.1-4.7-0.2-7-0.2-50 0-90.4 40.4-90.4 90.3 0 35.3 20.3 65.9 49.7 80.7-11.9-15.7-18.4-34.9-18.4-54.7 0-49.8 40.4-90.4 90.3-90.4 9.3 0 18.6 1.5 27.5 4.3v-109.2c-10.4-1.5-20.8-2-31.3-1.9l-0.1 84.8z"/>
		<path class="s1" d="m787.4 431.2c-39.9 0-77.8-9.1-111.4-25.4-5.8-2.8-11.7-5.9-17.2-9.2-2.8-1.6-5.6-3.3-8.4-5-4.1-2.7-8.1-5.3-12-8.1v218c0 109.1-88.6 197.5-197.6 197.5-40.7 0-78.6-12.4-110-33.4 35.9 36.7 85.8 59.3 141.2 59.3 109.2 0 197.6-88.4 197.6-197.4v-217.9c42 30 93.5 47.7 149 47.7v-106.8c-10.5 0-21-1-31.3-3.3v84z"/>
		<path class="s2" d="m440.9 799.1c109.1 0 197.6-88.4 197.6-197.5v-218c4 2.8 7.9 5.6 12 8.1 2.8 1.8 5.6 3.5 8.4 5.1 5.6 3.3 11.4 6.3 17.2 9.1 33.7 16.3 71.6 25.5 111.5 25.5v-84.2c-9.4-2-18.5-4.9-26.9-8.5-0.3-0.1-0.4-0.1-0.7-0.2-1.2-0.6-2.5-1.1-3.7-1.8q-0.8-0.4-1.6-0.8c-0.9-0.4-1.9-0.9-2.8-1.3-0.8-0.4-1.7-0.8-2.5-1.2-0.7-0.2-1.2-0.6-1.7-0.9-1.2-0.7-2.3-1.2-3.3-1.9-0.3-0.1-0.6-0.2-0.8-0.5-12-7-23-15.6-32.6-25.7q-1.2-1.2-2.4-2.4c-11-6.9-21.1-15.1-30-24.6-1.7-1.9-3.4-3.9-5.1-5.9-1.8-2-3.3-3.9-4.9-6.1-5.5-7.1-10.4-14.9-14.5-23-6.5-12.9-11.1-26.8-13.8-41.4h-78v426.7c0 3.1-0.1 6.3-0.5 9.2-4.8 45.4-43.2 80.8-89.9 80.8-8.2 0-16.3-1-23.8-3.1-1.8-0.4-3.4-1-5.1-1.5-1.6-0.5-3.3-1.2-4.9-1.9-1.6-0.6-3.2-1.3-4.8-2.1-0.8-0.4-1.5-0.8-2.2-1.2-2.3-1.2-4.5-2.4-6.8-3.7-9.4-5.8-17.7-13.4-24.4-22.1-29.5-14.9-49.6-45.5-49.6-80.7 0-49.8 40.4-90.4 90.3-90.4 2.4 0 4.8 0.1 7.1 0.3 0.1 0 0.4 0 0.5 0 0.9 0.1 2 0.1 2.9 0.2 0.4 0 0.8 0.2 1.2 0.2 0.8 0.1 1.5 0.1 2.2 0.2 0.6 0.2 1.1 0.2 1.8 0.3 0.5 0.1 1.2 0.1 1.7 0.3q1 0.2 2 0.4c0.4 0.1 0.9 0.1 1.3 0.2 0.7 0.2 1.5 0.4 2.1 0.5 0.4 0.2 0.8 0.3 1.2 0.3 0.5 0.1 1.2 0.4 1.7 0.5 0.6 0.2 1.1 0.3 1.6 0.6v-85.1c-107.2 2.2-193.4 89.7-193.4 197.5 0 53.8 21.4 102.4 56.3 138 31.5 21.4 69.4 33.7 110.1 33.7z"/>
		<path class="s2" d="m638.5 601.6c0 109.1-88.5 197.5-197.6 197.5-40.7 0-78.6-12.3-110-33.4 31.4 21.1 69.3 33.4 110 33.4 109.2 0 197.6-88.4 197.6-197.5z"/>
		<path class="s2" d="m460 513.1c0.4 0.2 0.9 0.2 1.3 0.3-0.4-0.1-0.8-0.3-1.3-0.3z"/>
		<path class="s2" d="m468.1 515.2c-0.6-0.1-1.1-0.2-1.6-0.5 0.5 0.1 1 0.4 1.6 0.5z"/>
		<path class="s2" d="m463.4 513.9c0.4 0.1 0.8 0.3 1.2 0.3-0.2 0-0.8-0.2-1.2-0.3z"/>
		<path class="s2" d="m658.9 396.8c-2.8-1.6-5.6-3.3-8.4-5.1 2.8 1.8 5.6 3.3 8.4 5.1z"/>
		<path class="s2" d="m456.3 512.3c0.5 0.2 1.2 0.2 1.7 0.3-0.5 0-1.2-0.1-1.7-0.3z"/>
		<path class="s2" d="m676.1 405.9c-5.8-2.8-11.6-5.8-17.2-9.1 5.6 3.1 11.3 6.2 17.2 9.1z"/>
		<path class="s2" d="m787.4 431.2c-39.9 0-77.8-9.1-111.4-25.4 33.8 16.3 71.5 25.4 111.4 25.4z"/>
		<path class="s2" d="m452.3 511.8c0.8 0.1 1.5 0.1 2.2 0.3-0.6-0.2-1.4-0.3-2.2-0.3z"/>
		<path class="s2" d="m448.2 511.3c0.9 0.1 2 0.1 2.9 0.2-0.9 0-1.9-0.1-2.9-0.2z"/>
		<path class="s2" d="m440.6 511c2.4 0 4.8 0.1 7.1 0.3-2.4-0.2-4.7-0.3-7.1-0.3z"/>
		<path class="s3" d="m433.3 709.1c1.6 0.8 3.2 1.5 4.8 2.1 1.6 0.7 3.2 1.2 4.9 1.9 1.6 0.5 3.3 1.1 5.1 1.5 7.5 2.1 15.6 3.1 23.8 3.1 46.7 0 85.1-35.4 89.9-80.8 0.2-3.1 0.5-6.1 0.5-9.2v-426.7h77.9c-0.7-4.1-1.3-8.2-1.6-12.3v-13.8h-107.5v426.7c-0.1 49.7-40.5 90-90.3 90-14.6 0-28.5-3.4-40.7-9.6 6.7 8.7 15 16.3 24.4 22.1 2.1 1.3 4.3 2.6 6.7 3.7 0.7 0.5 1.5 0.9 2.1 1.3z"/>
		<path class="s3" d="m468.1 430.2v-24.3c-9-1.2-18.1-1.8-27.2-1.8-109.2 0-197.6 88.3-197.6 197.4 0 68.4 34.7 128.7 87.6 164.1-34.8-35.7-56.3-84.3-56.3-138.1 0-107.5 86.3-195.1 193.5-197.3z"/>
		<path class="s3" d="m743.3 330c0.3 0.1 0.5 0.2 0.8 0.5 1.1 0.7 2.3 1.2 3.3 1.9 0.5 0.2 1.2 0.6 1.7 0.9 0.8 0.4 1.8 0.8 2.6 1.2 0.9 0.4 1.8 0.9 2.7 1.3q0.8 0.4 1.6 0.8c1.2 0.5 2.5 1.2 3.7 1.7 0.3 0.2 0.4 0.2 0.7 0.3 8.6 3.7 17.6 6.5 26.9 8.5v-22.8c-28 0-55.4-7.8-79.1-22.6q1.2 1.2 2.4 2.4c9.6 10.1 20.6 18.9 32.7 25.9z"/>
		<path class="s3" d="m760.5 338.6c-0.2-0.1-0.4-0.1-0.6-0.3 0.1 0.2 0.4 0.2 0.6 0.3z"/>
		<path class="s3" d="m756.2 336.6q-0.8-0.4-1.6-0.8c0.4 0.4 1 0.7 1.6 0.8z"/>
		<path class="s3" d="m747.4 332.4c-1.2-0.7-2.2-1.2-3.3-1.9 1.1 0.7 2.3 1.2 3.3 1.9z"/>
		<path class="s3" d="m751.8 334.6c-0.8-0.4-1.7-0.8-2.5-1.2 0.8 0.3 1.6 0.7 2.5 1.2z"/>
		<path class="s3" d="m274.6 627.6c0-107.7 86.3-195.2 193.5-197.4-107.2 2.2-193.5 89.8-193.5 197.4 0 53.8 21.5 102.5 56.3 138.1-34.8-35.6-56.3-84.3-56.3-138.1z"/>
		<path class="s3" d="m743.3 330c-12.1-7-23.1-15.8-32.6-25.7 9.7 10 20.7 18.7 32.6 25.7z"/>
	</g>
</svg>