<svg xmlns="http://www.w3.org/2000/svg" xmlns:xlink="http://www.w3.org/1999/xlink" viewBox="0,0,256,256" width="48px" height="48px" fill-rule="nonzero"><g fill="#ffffff" fill-rule="nonzero" stroke="none" stroke-width="1" stroke-linecap="butt" stroke-linejoin="miter" stroke-miterlimit="10" stroke-dasharray="" stroke-dashoffset="0" font-family="none" font-weight="none" font-size="none" text-anchor="none" style="mix-blend-mode: normal"><g transform="scale(10.66667,10.66667)"><path d="M19,3h-14c-1.105,0 -2,0.895 -2,2v14c0,1.105 0.895,2 2,2h14c1.105,0 2,-0.895 2,-2v-14c0,-1.105 -0.895,-2 -2,-2zM16.939,10.998c-0.852,-0.052 -1.577,-0.292 -2.187,-0.627c-0.339,-0.186 -0.752,0.041 -0.752,0.429v3.343c0,1.79 -1.21,3.418 -2.963,3.776c-2.41,0.494 -4.537,-1.344 -4.537,-3.669c0,-1.93 1.57,-3.5 3.5,-3.5c0.552,0 1,0.448 1,1c0,0.552 -0.448,1 -1,1c-0.827,0 -1.5,0.673 -1.5,1.5c0,1.062 0.951,1.906 2.046,1.726c0.86,-0.142 1.454,-0.953 1.454,-1.825v-7.151c0,-0.478 0.338,-0.889 0.807,-0.981c0.469,-0.094 0.938,0.16 1.118,0.602c0.037,0.087 0.973,2.25 3.135,2.381c0.551,0.033 0.971,0.507 0.938,1.059c-0.033,0.551 -0.493,0.975 -1.059,0.937z"></path></g></g></svg>