<svg xmlns="http://www.w3.org/2000/svg" xmlns:xlink="http://www.w3.org/1999/xlink" viewBox="0,0,256,256" width="48px" height="48px" fill-rule="nonzero"><g fill="#ffffff" fill-rule="nonzero" stroke="none" stroke-width="1" stroke-linecap="butt" stroke-linejoin="miter" stroke-miterlimit="10" stroke-dasharray="" stroke-dashoffset="0" font-family="none" font-weight="none" font-size="none" text-anchor="none" style="mix-blend-mode: normal"><g transform="scale(10.66667,10.66667)"><path d="M15,12c0,1.655 -1.345,3 -3,3c-1.655,0 -3,-1.345 -3,-3c0,-1.655 1.345,-3 3,-3c1.655,0 3,1.345 3,3zM21,7v10c0,2.209 -1.791,4 -4,4h-10c-2.209,0 -4,-1.791 -4,-4v-10c0,-2.209 1.791,-4 4,-4h10c2.209,0 4,1.791 4,4zM17,12c0,-2.757 -2.243,-5 -5,-5c-2.757,0 -5,2.243 -5,5c0,2.757 2.243,5 5,5c2.757,0 5,-2.243 5,-5zM18.5,6.5c0,-0.552 -0.448,-1 -1,-1c-0.552,0 -1,0.448 -1,1c0,0.552 0.448,1 1,1c0.552,0 1,-0.448 1,-1z"></path></g></g></svg>