<svg xmlns="http://www.w3.org/2000/svg" xmlns:xlink="http://www.w3.org/1999/xlink" viewBox="0,0,256,256" width="48px" height="48px" fill-rule="nonzero"><g fill="#ffffff" fill-rule="nonzero" stroke="none" stroke-width="1" stroke-linecap="butt" stroke-linejoin="miter" stroke-miterlimit="10" stroke-dasharray="" stroke-dashoffset="0" font-family="none" font-weight="none" font-size="none" text-anchor="none" style="mix-blend-mode: normal"><g transform="scale(10.66667,10.66667)"><path d="M21.406,6.177c-0.13,-0.576 -0.547,-1.038 -1.102,-1.221c-1.473,-0.486 -4.668,-0.956 -8.304,-0.956c-3.636,0 -6.831,0.47 -8.304,0.956c-0.556,0.183 -0.972,0.645 -1.103,1.221c-0.246,1.087 -0.593,3.104 -0.593,5.823c0,2.719 0.347,4.736 0.594,5.823c0.13,0.576 0.547,1.038 1.102,1.221c1.473,0.486 4.668,0.956 8.304,0.956c3.636,0 6.831,-0.47 8.304,-0.956c0.556,-0.183 0.972,-0.645 1.102,-1.221c0.247,-1.087 0.594,-3.104 0.594,-5.823c0,-2.719 -0.347,-4.736 -0.594,-5.823zM10,14.701v-5.402c0,-0.449 0.483,-0.733 0.875,-0.513l4.824,2.701c0.401,0.225 0.401,0.802 0,1.026l-4.824,2.701c-0.392,0.22 -0.875,-0.063 -0.875,-0.513z"></path></g></g></svg>