<svg width="20" height="20" viewBox="0 0 20 20" fill="none" xmlns="http://www.w3.org/2000/svg">
<g clip-path="url(#clip0_3749_3693)">
<path d="M4.16602 12.5003H3.33268C2.89065 12.5003 2.46673 12.3247 2.15417 12.0122C1.84161 11.6996 1.66602 11.2757 1.66602 10.8337V3.33366C1.66602 2.89163 1.84161 2.46771 2.15417 2.15515C2.46673 1.84259 2.89065 1.66699 3.33268 1.66699H10.8327C11.2747 1.66699 11.6986 1.84259 12.0112 2.15515C12.3238 2.46771 12.4993 2.89163 12.4993 3.33366V4.16699M9.16602 7.50033H16.666C17.5865 7.50033 18.3327 8.24652 18.3327 9.16699V16.667C18.3327 17.5875 17.5865 18.3337 16.666 18.3337H9.16602C8.24554 18.3337 7.49935 17.5875 7.49935 16.667V9.16699C7.49935 8.24652 8.24554 7.50033 9.16602 7.50033Z" stroke="#882EFB" stroke-width="1.67" stroke-linecap="round" stroke-linejoin="round"/>
</g>
<defs>
<clipPath id="clip0_3749_3693">
<rect width="20" height="20" fill="white"/>
</clipPath>
</defs>
</svg>
