<svg version="1.2" xmlns="http://www.w3.org/2000/svg" viewBox="0 0 48 48" width="48" height="48">
	<title>flooz-logo</title>
	<style>
		.s0 { fill: #ffffff } 
	</style>
	<g id="Background">
		<path id="Path 0" fill-rule="evenodd" class="s0" d="m39.8 8.8c0 0.1-1.3 2.3-2.8 5.1-1.6 2.8-2.9 5-2.9 5 0 0.1 1.1 0.3 2.4 0.6 1.3 0.2 2.4 0.5 2.4 0.5 0.1 0-0.8 1.2-1.9 2.5-1 1.4-1.9 2.5-1.9 2.5 0 0 1.3 1.4 3 3 2.7 2.7 2.9 3 2.7 3-0.2 0-2.2-0.2-8.8-0.9l-0.5 1.9c-0.2 1-0.4 1.9-0.5 1.9 0 0.1-1.1-0.5-2.4-1.3-1.3-0.8-2.4-1.4-2.5-1.5-0.1 0-1.3 1.9-4 6.3-2.2 3.5-4 6.3-4 6.3 0 0 0.6-2.9 1.4-6.3 0.8-3.4 1.4-6.3 1.4-6.3-0.1 0-1.8 0.2-4 0.4-2.1 0.3-3.9 0.5-3.9 0.5 0 0 0.9-1.6 2-3.5 1-1.9 1.9-3.4 1.9-3.4 0-0.1-2.7-1-6-2.1-3.3-1.1-5.9-2-5.8-2 0.1-0.1 3.2-0.5 7-1 3.7-0.6 6.8-1 6.8-1.1 0 0-0.6-1.8-1.4-3.9-0.8-2.2-1.5-4-1.5-4 0 0 1.8 0.9 4 2 2.1 1 3.9 1.9 4 1.9 0 0 0.7-0.9 1.5-1.9 0.8-1.1 1.5-2 1.5-2 0 0 0.9 0.9 2 2 1.1 1 2 1.9 2 1.9 0.1 0 2-1.4 4.4-3 2.4-1.7 4.4-3.1 4.4-3.1zm-19.8 13.3l1 3.9 4 2c4.6-1.6 5.9-2 5.9-2.1 0 0-0.4-1.6-1-3.5l-0.9-3.4h-5.9z"/>
	</g>
</svg>