<svg version="1.2" xmlns="http://www.w3.org/2000/svg" viewBox="0 0 480 480" width="48" height="48">
	<title>favicon</title>
	<style>
		.s0 { fill: #000000 } 
	</style>
	<g id="Background">
		<path id="Path 0" fill-rule="evenodd" class="s0" d="m397.7 88.5c0.2 0.3-12.5 23-28.2 50.5-15.7 27.5-28.4 50.2-28.2 50.5 0.1 0.2 10.8 2.5 23.7 5.1 12.9 2.6 23.8 5 24.2 5.3 0.4 0.3-8 11.6-18.8 25.1-10.7 13.5-19.5 24.7-19.4 25 0 0.3 13.4 13.9 29.8 30.3 26.8 26.8 29.4 29.7 26.7 29.6-1.6 0-22-2.1-87.4-9.4l-4.7 19c-2.6 10.4-4.9 19.3-5.3 19.7-0.3 0.4-11.2-5.6-24.1-13.4-12.9-7.7-24.2-14.2-25-14.4-1.1-0.3-13.2 18.5-40.5 62.5-21.4 34.6-39.1 62.9-39.3 62.8-0.1-0.1 6.1-28.3 13.8-62.7 7.8-34.4 13.9-62.7 13.5-63-0.3-0.3-18 1.7-39.3 4.3-21.3 2.7-38.8 4.7-39 4.5-0.1-0.2 8.6-15.7 19.3-34.5 10.7-18.9 19.4-34.5 19.3-34.8-0.2-0.2-27.1-9.4-59.8-20.4-32.7-10.9-58.8-20.1-58-20.4 0.8-0.3 32.1-4.9 69.5-10.2 37.4-5.3 68.2-9.8 68.5-10.1 0.3-0.2-6.1-18.1-14.3-39.7-8.1-21.5-14.6-39.3-14.5-39.5 0.2-0.2 18 8.5 39.6 19.3 21.5 10.7 39.5 19.5 40 19.5 0.4-0.1 7.2-8.8 15.2-19.5 8-10.8 14.7-19.5 15-19.5 0.3 0 9.3 8.8 20 19.5 10.7 10.7 19.8 19.5 20.3 19.5 0.4 0 20.1-13.7 43.9-30.5 23.7-16.7 43.3-30.2 43.5-30zm-197.4 132l9.8 39 39.9 20c45.7-15.1 59-19.8 59-20.3 0-0.4-4.3-16.1-9.7-35l-9.8-34.2h-59z"/>
	</g>
</svg>